STARTFONT 2.1
FONT tosh
SIZE 1 75 75
FONTBOUNDINGBOX 8 16 0 -4
STARTPROPERTIES 26
FONTNAME_REGISTRY ""
FOUNDRY "misc"
FAMILY_NAME "tosh"
WEIGHT_NAME "medium"
SLANT "r"
SETWIDTH_NAME "normal"
ADD_STYLE_NAME ""
PIXEL_SIZE 16
POINT_SIZE 14
RESOLUTION_X 75
RESOLUTION_Y 75
SPACING "c"
AVERAGE_WIDTH 80
CHARSET_REGISTRY "ISO10646"
CHARSET_ENCODING "1"
COPYRIGHT "Jan Engelhardt <jengelh [at] gmx de>, 2004"
CAP_HEIGHT 10
X_HEIGHT 7
WEIGHT 10
RESOLUTION 103
QUAD_WIDTH 8
FONT_ASCENT 12
FONT_DESCENT 4
DEFAULT_CHAR 0
_XMBDFED_INFO "Edited with xmbdfed 4.7."
_GBDFED_INFO "Edited with gbdfed 1.3."
ENDPROPERTIES
CHARS 4387
STARTCHAR char0
ENCODING 0
SWIDTH 7680 0
DWIDTH 8 0
BBX 8 16 0 -4
BITMAP
00
00
6D
01
40
41
01
40
41
01
40
5B
00
00
00
00
ENDCHAR
STARTCHAR char1
ENCODING 1
SWIDTH 7680 0
DWIDTH 8 0
BBX 8 16 0 -4
BITMAP
00
00
00
00
00
76
DC
00
76
DC
00
00
00
00
00
00
ENDCHAR
STARTCHAR char2
ENCODING 2
SWIDTH 7680 0
DWIDTH 8 0
BBX 8 16 0 -4
BITMAP
00
6F
FC
CC
CC
CC
CF
CC
CC
CC
FC
6F
00
00
00
00
ENDCHAR
STARTCHAR char3
ENCODING 3
SWIDTH 7680 0
DWIDTH 8 0
BBX 8 16 0 -4
BITMAP
00
00
00
00
00
77
CD
CD
CF
CC
CD
77
00
00
00
00
ENDCHAR
STARTCHAR char4
ENCODING 4
SWIDTH 7680 0
DWIDTH 8 0
BBX 8 16 0 -4
BITMAP
00
00
00
00
10
38
7C
FE
7C
38
10
00
00
00
00
00
ENDCHAR
STARTCHAR char5
ENCODING 5
SWIDTH 7680 0
DWIDTH 8 0
BBX 8 16 0 -4
BITMAP
00
88
88
F8
88
88
00
3E
08
08
08
08
00
00
00
00
ENDCHAR
STARTCHAR char6
ENCODING 6
SWIDTH 7680 0
DWIDTH 8 0
BBX 8 16 0 -4
BITMAP
00
F8
80
E0
80
80
00
3E
20
38
20
20
00
00
00
00
ENDCHAR
STARTCHAR char7
ENCODING 7
SWIDTH 7680 0
DWIDTH 8 0
BBX 8 16 0 -4
BITMAP
00
70
88
80
88
70
00
3C
22
3C
24
22
00
00
00
00
ENDCHAR
STARTCHAR char8
ENCODING 8
SWIDTH 7680 0
DWIDTH 8 0
BBX 8 16 0 -4
BITMAP
00
80
80
80
80
F8
00
3E
20
38
20
20
00
00
00
00
ENDCHAR
STARTCHAR char9
ENCODING 9
SWIDTH 7680 0
DWIDTH 8 0
BBX 8 16 0 -4
BITMAP
11
44
11
44
11
44
11
44
11
44
11
44
11
44
11
44
ENDCHAR
STARTCHAR char10
ENCODING 10
SWIDTH 7680 0
DWIDTH 8 0
BBX 8 16 0 -4
BITMAP
55
AA
55
AA
55
AA
55
AA
55
AA
55
AA
55
AA
55
AA
ENDCHAR
STARTCHAR char11
ENCODING 11
SWIDTH 7680 0
DWIDTH 8 0
BBX 8 16 0 -4
BITMAP
DD
77
DD
77
DD
77
DD
77
DD
77
DD
77
DD
77
DD
77
ENDCHAR
STARTCHAR char12
ENCODING 12
SWIDTH 7680 0
DWIDTH 8 0
BBX 8 16 0 -4
BITMAP
FF
FF
FF
FF
FF
FF
FF
FF
FF
FF
FF
FF
FF
FF
FF
FF
ENDCHAR
STARTCHAR char13
ENCODING 13
SWIDTH 7680 0
DWIDTH 8 0
BBX 8 16 0 -4
BITMAP
00
00
00
00
00
00
00
FF
FF
FF
FF
FF
FF
FF
FF
FF
ENDCHAR
STARTCHAR char14
ENCODING 14
SWIDTH 7680 0
DWIDTH 8 0
BBX 8 16 0 -4
BITMAP
FF
FF
FF
FF
FF
FF
FF
00
00
00
00
00
00
00
00
00
ENDCHAR
STARTCHAR char15
ENCODING 15
SWIDTH 7680 0
DWIDTH 8 0
BBX 8 16 0 -4
BITMAP
F0
F0
F0
F0
F0
F0
F0
F0
F0
F0
F0
F0
F0
F0
F0
F0
ENDCHAR
STARTCHAR char16
ENCODING 16
SWIDTH 7680 0
DWIDTH 8 0
BBX 8 16 0 -4
BITMAP
0F
0F
0F
0F
0F
0F
0F
0F
0F
0F
0F
0F
0F
0F
0F
0F
ENDCHAR
STARTCHAR char17
ENCODING 17
SWIDTH 7680 0
DWIDTH 8 0
BBX 8 16 0 -4
BITMAP
00
88
C8
A8
98
88
00
20
20
20
20
3E
00
00
00
00
ENDCHAR
STARTCHAR char18
ENCODING 18
SWIDTH 7680 0
DWIDTH 8 0
BBX 8 16 0 -4
BITMAP
00
88
88
50
50
20
00
3E
08
08
08
08
00
00
00
00
ENDCHAR
STARTCHAR char19
ENCODING 19
SWIDTH 7680 0
DWIDTH 8 0
BBX 8 16 0 -4
BITMAP
00
00
00
0C
18
30
60
30
18
0C
00
7E
00
00
00
00
ENDCHAR
STARTCHAR char20
ENCODING 20
SWIDTH 7680 0
DWIDTH 8 0
BBX 8 16 0 -4
BITMAP
00
00
00
30
18
0C
06
0C
18
30
00
7E
00
00
00
00
ENDCHAR
STARTCHAR char21
ENCODING 21
SWIDTH 7680 0
DWIDTH 8 0
BBX 8 16 0 -4
BITMAP
00
00
00
06
0C
FE
18
30
FE
60
C0
00
00
00
00
00
ENDCHAR
STARTCHAR char22
ENCODING 22
SWIDTH 7680 0
DWIDTH 8 0
BBX 8 16 0 -4
BITMAP
00
00
02
06
0E
3E
FE
3E
0E
06
02
00
00
00
00
00
ENDCHAR
STARTCHAR char23
ENCODING 23
SWIDTH 7680 0
DWIDTH 8 0
BBX 8 16 0 -4
BITMAP
00
00
02
06
0E
3E
FE
3E
0E
06
02
00
00
00
00
00
ENDCHAR
STARTCHAR char24
ENCODING 24
SWIDTH 7680 0
DWIDTH 8 0
BBX 8 16 0 -4
BITMAP
00
00
18
3C
7E
18
18
18
18
18
18
18
00
00
00
00
ENDCHAR
STARTCHAR char25
ENCODING 25
SWIDTH 7680 0
DWIDTH 8 0
BBX 8 16 0 -4
BITMAP
00
00
18
18
18
18
18
18
18
7E
3C
18
00
00
00
00
ENDCHAR
STARTCHAR char26
ENCODING 26
SWIDTH 7680 0
DWIDTH 8 0
BBX 8 16 0 -4
BITMAP
00
00
00
00
00
18
0C
FE
0C
18
00
00
00
00
00
00
ENDCHAR
STARTCHAR char27
ENCODING 27
SWIDTH 7680 0
DWIDTH 8 0
BBX 8 16 0 -4
BITMAP
00
00
00
00
00
30
60
FE
60
30
00
00
00
00
00
00
ENDCHAR
STARTCHAR char28
ENCODING 28
SWIDTH 7680 0
DWIDTH 8 0
BBX 8 16 0 -4
BITMAP
00
00
18
3C
7E
18
18
18
18
7E
3C
18
00
00
00
00
ENDCHAR
STARTCHAR char29
ENCODING 29
SWIDTH 7680 0
DWIDTH 8 0
BBX 8 16 0 -4
BITMAP
00
00
00
00
00
24
66
FF
66
24
00
00
00
00
00
00
ENDCHAR
STARTCHAR char30
ENCODING 30
SWIDTH 7680 0
DWIDTH 8 0
BBX 8 16 0 -4
BITMAP
00
00
00
00
06
36
66
FE
60
30
00
00
00
00
00
00
ENDCHAR
STARTCHAR char31
ENCODING 31
SWIDTH 7680 0
DWIDTH 8 0
BBX 8 16 0 -4
BITMAP
00
00
00
00
FE
6C
6C
6C
6C
6C
6C
6C
00
00
00
00
ENDCHAR
STARTCHAR char32
ENCODING 32
SWIDTH 7680 0
DWIDTH 8 0
BBX 8 16 0 -4
BITMAP
00
00
00
00
00
00
00
00
00
00
00
00
00
00
00
00
ENDCHAR
STARTCHAR char33
ENCODING 33
SWIDTH 7680 0
DWIDTH 8 0
BBX 8 16 0 -4
BITMAP
00
00
18
3C
3C
3C
3C
18
18
18
00
18
18
00
00
00
ENDCHAR
STARTCHAR char34
ENCODING 34
SWIDTH 7680 0
DWIDTH 8 0
BBX 8 16 0 -4
BITMAP
00
00
66
66
66
66
66
00
00
00
00
00
00
00
00
00
ENDCHAR
STARTCHAR char35
ENCODING 35
SWIDTH 7680 0
DWIDTH 8 0
BBX 8 16 0 -4
BITMAP
00
00
6C
6C
6C
FE
6C
6C
6C
FE
6C
6C
6C
00
00
00
ENDCHAR
STARTCHAR char36
ENCODING 36
SWIDTH 7680 0
DWIDTH 8 0
BBX 8 16 0 -4
BITMAP
00
18
18
7C
C6
C0
C0
7C
06
06
C6
7C
18
18
00
00
ENDCHAR
STARTCHAR char37
ENCODING 37
SWIDTH 7680 0
DWIDTH 8 0
BBX 8 16 0 -4
BITMAP
00
00
C6
C6
0C
0C
18
38
30
60
60
C6
C6
00
00
00
ENDCHAR
STARTCHAR char38
ENCODING 38
SWIDTH 7680 0
DWIDTH 8 0
BBX 8 16 0 -4
BITMAP
00
00
38
6C
6C
38
30
76
DE
CC
CC
DE
76
00
00
00
ENDCHAR
STARTCHAR char39
ENCODING 39
SWIDTH 7680 0
DWIDTH 8 0
BBX 8 16 0 -4
BITMAP
00
00
18
18
18
30
00
00
00
00
00
00
00
00
00
00
ENDCHAR
STARTCHAR char40
ENCODING 40
SWIDTH 7680 0
DWIDTH 8 0
BBX 8 16 0 -4
BITMAP
00
00
0C
18
30
30
30
30
30
30
30
18
0C
00
00
00
ENDCHAR
STARTCHAR char41
ENCODING 41
SWIDTH 7680 0
DWIDTH 8 0
BBX 8 16 0 -4
BITMAP
00
00
30
18
0C
0C
0C
0C
0C
0C
0C
18
30
00
00
00
ENDCHAR
STARTCHAR char42
ENCODING 42
SWIDTH 7680 0
DWIDTH 8 0
BBX 8 16 0 -4
BITMAP
00
00
00
00
00
6C
38
FE
38
6C
00
00
00
00
00
00
ENDCHAR
STARTCHAR char43
ENCODING 43
SWIDTH 7680 0
DWIDTH 8 0
BBX 8 16 0 -4
BITMAP
00
00
00
00
00
18
18
7E
18
18
00
00
00
00
00
00
ENDCHAR
STARTCHAR char44
ENCODING 44
SWIDTH 7680 0
DWIDTH 8 0
BBX 8 16 0 -4
BITMAP
00
00
00
00
00
00
00
00
00
00
00
18
18
30
00
00
ENDCHAR
STARTCHAR char45
ENCODING 45
SWIDTH 7680 0
DWIDTH 8 0
BBX 8 16 0 -4
BITMAP
00
00
00
00
00
00
00
FE
00
00
00
00
00
00
00
00
ENDCHAR
STARTCHAR char46
ENCODING 46
SWIDTH 7680 0
DWIDTH 8 0
BBX 8 16 0 -4
BITMAP
00
00
00
00
00
00
00
00
00
00
00
18
18
00
00
00
ENDCHAR
STARTCHAR char47
ENCODING 47
SWIDTH 7680 0
DWIDTH 8 0
BBX 8 16 0 -4
BITMAP
00
00
06
06
0C
0C
18
38
30
60
60
C0
C0
00
00
00
ENDCHAR
STARTCHAR char48
ENCODING 48
SWIDTH 7680 0
DWIDTH 8 0
BBX 8 16 0 -4
BITMAP
00
00
7C
C6
C6
C6
D6
D6
D6
C6
C6
C6
7C
00
00
00
ENDCHAR
STARTCHAR char49
ENCODING 49
SWIDTH 7680 0
DWIDTH 8 0
BBX 8 16 0 -4
BITMAP
00
00
18
38
78
18
18
18
18
18
18
18
7E
00
00
00
ENDCHAR
STARTCHAR char50
ENCODING 50
SWIDTH 7680 0
DWIDTH 8 0
BBX 8 16 0 -4
BITMAP
00
00
7C
C6
06
06
0C
18
30
60
C0
C0
FE
00
00
00
ENDCHAR
STARTCHAR char51
ENCODING 51
SWIDTH 7680 0
DWIDTH 8 0
BBX 8 16 0 -4
BITMAP
00
00
7C
C6
06
06
3C
06
06
06
06
C6
7C
00
00
00
ENDCHAR
STARTCHAR char52
ENCODING 52
SWIDTH 7680 0
DWIDTH 8 0
BBX 8 16 0 -4
BITMAP
00
00
04
0C
1C
3C
6C
CC
FE
0C
0C
0C
0C
00
00
00
ENDCHAR
STARTCHAR char53
ENCODING 53
SWIDTH 7680 0
DWIDTH 8 0
BBX 8 16 0 -4
BITMAP
00
00
FE
C0
C0
C0
FC
06
06
06
06
C6
7C
00
00
00
ENDCHAR
STARTCHAR char54
ENCODING 54
SWIDTH 7680 0
DWIDTH 8 0
BBX 8 16 0 -4
BITMAP
00
00
3C
60
C0
C0
FC
C6
C6
C6
C6
C6
7C
00
00
00
ENDCHAR
STARTCHAR char55
ENCODING 55
SWIDTH 7680 0
DWIDTH 8 0
BBX 8 16 0 -4
BITMAP
00
00
FE
C6
06
06
0C
18
30
30
30
30
30
00
00
00
ENDCHAR
STARTCHAR char56
ENCODING 56
SWIDTH 7680 0
DWIDTH 8 0
BBX 8 16 0 -4
BITMAP
00
00
7C
C6
C6
C6
7C
C6
C6
C6
C6
C6
7C
00
00
00
ENDCHAR
STARTCHAR char57
ENCODING 57
SWIDTH 7680 0
DWIDTH 8 0
BBX 8 16 0 -4
BITMAP
00
00
7C
C6
C6
C6
C6
7E
06
06
06
0C
78
00
00
00
ENDCHAR
STARTCHAR char58
ENCODING 58
SWIDTH 7680 0
DWIDTH 8 0
BBX 8 16 0 -4
BITMAP
00
00
00
00
00
00
00
18
18
00
00
18
18
00
00
00
ENDCHAR
STARTCHAR char59
ENCODING 59
SWIDTH 7680 0
DWIDTH 8 0
BBX 8 16 0 -4
BITMAP
00
00
00
00
00
00
00
18
18
00
00
18
18
30
00
00
ENDCHAR
STARTCHAR char60
ENCODING 60
SWIDTH 7680 0
DWIDTH 8 0
BBX 8 16 0 -4
BITMAP
00
00
06
0C
18
30
60
C0
60
30
18
0C
06
00
00
00
ENDCHAR
STARTCHAR char61
ENCODING 61
SWIDTH 7680 0
DWIDTH 8 0
BBX 8 16 0 -4
BITMAP
00
00
00
00
00
00
FE
00
FE
00
00
00
00
00
00
00
ENDCHAR
STARTCHAR char62
ENCODING 62
SWIDTH 7680 0
DWIDTH 8 0
BBX 8 16 0 -4
BITMAP
00
00
C0
60
30
18
0C
06
0C
18
30
60
C0
00
00
00
ENDCHAR
STARTCHAR char63
ENCODING 63
SWIDTH 7680 0
DWIDTH 8 0
BBX 8 16 0 -4
BITMAP
00
00
7C
C6
C6
06
0C
18
30
30
00
30
30
00
00
00
ENDCHAR
STARTCHAR char64
ENCODING 64
SWIDTH 7680 0
DWIDTH 8 0
BBX 8 16 0 -4
BITMAP
00
00
7C
C6
C6
C6
DE
DE
DE
DE
C0
C0
7E
00
00
00
ENDCHAR
STARTCHAR char65
ENCODING 65
SWIDTH 7680 0
DWIDTH 8 0
BBX 8 16 0 -4
BITMAP
00
00
38
6C
C6
C6
C6
C6
FE
C6
C6
C6
C6
00
00
00
ENDCHAR
STARTCHAR char66
ENCODING 66
SWIDTH 7680 0
DWIDTH 8 0
BBX 8 16 0 -4
BITMAP
00
00
FC
C6
C6
C6
FC
C6
C6
C6
C6
C6
FC
00
00
00
ENDCHAR
STARTCHAR char67
ENCODING 67
SWIDTH 7680 0
DWIDTH 8 0
BBX 8 16 0 -4
BITMAP
00
00
7C
C6
C0
C0
C0
C0
C0
C0
C0
C6
7C
00
00
00
ENDCHAR
STARTCHAR char68
ENCODING 68
SWIDTH 7680 0
DWIDTH 8 0
BBX 8 16 0 -4
BITMAP
00
00
F8
CC
C6
C6
C6
C6
C6
C6
C6
CC
F8
00
00
00
ENDCHAR
STARTCHAR char69
ENCODING 69
SWIDTH 7680 0
DWIDTH 8 0
BBX 8 16 0 -4
BITMAP
00
00
FE
C0
C0
C0
FC
C0
C0
C0
C0
C0
FE
00
00
00
ENDCHAR
STARTCHAR char70
ENCODING 70
SWIDTH 7680 0
DWIDTH 8 0
BBX 8 16 0 -4
BITMAP
00
00
FE
C0
C0
C0
FC
C0
C0
C0
C0
C0
C0
00
00
00
ENDCHAR
STARTCHAR char71
ENCODING 71
SWIDTH 7680 0
DWIDTH 8 0
BBX 8 16 0 -4
BITMAP
00
00
7C
C6
C0
C0
C0
DE
C6
C6
C6
C6
7E
00
00
00
ENDCHAR
STARTCHAR char72
ENCODING 72
SWIDTH 7680 0
DWIDTH 8 0
BBX 8 16 0 -4
BITMAP
00
00
C6
C6
C6
C6
C6
FE
C6
C6
C6
C6
C6
00
00
00
ENDCHAR
STARTCHAR char73
ENCODING 73
SWIDTH 7680 0
DWIDTH 8 0
BBX 8 16 0 -4
BITMAP
00
00
FC
30
30
30
30
30
30
30
30
30
FC
00
00
00
ENDCHAR
STARTCHAR char74
ENCODING 74
SWIDTH 7680 0
DWIDTH 8 0
BBX 8 16 0 -4
BITMAP
00
00
1E
0C
0C
0C
0C
0C
0C
0C
CC
CC
78
00
00
00
ENDCHAR
STARTCHAR char75
ENCODING 75
SWIDTH 7680 0
DWIDTH 8 0
BBX 8 16 0 -4
BITMAP
00
00
C6
C6
CC
D8
F0
E0
F0
D8
CC
C6
C6
00
00
00
ENDCHAR
STARTCHAR char76
ENCODING 76
SWIDTH 7680 0
DWIDTH 8 0
BBX 8 16 0 -4
BITMAP
00
00
C0
C0
C0
C0
C0
C0
C0
C0
C0
C0
FE
00
00
00
ENDCHAR
STARTCHAR char77
ENCODING 77
SWIDTH 7680 0
DWIDTH 8 0
BBX 8 16 0 -4
BITMAP
00
00
C6
C6
EE
FE
D6
D6
D6
C6
C6
C6
C6
00
00
00
ENDCHAR
STARTCHAR char78
ENCODING 78
SWIDTH 7680 0
DWIDTH 8 0
BBX 8 16 0 -4
BITMAP
00
00
C6
C6
E6
E6
F6
DE
CE
CE
C6
C6
C6
00
00
00
ENDCHAR
STARTCHAR char79
ENCODING 79
SWIDTH 7680 0
DWIDTH 8 0
BBX 8 16 0 -4
BITMAP
00
00
7C
C6
C6
C6
C6
C6
C6
C6
C6
C6
7C
00
00
00
ENDCHAR
STARTCHAR char80
ENCODING 80
SWIDTH 7680 0
DWIDTH 8 0
BBX 8 16 0 -4
BITMAP
00
00
FC
C6
C6
C6
C6
FC
C0
C0
C0
C0
C0
00
00
00
ENDCHAR
STARTCHAR char81
ENCODING 81
SWIDTH 7680 0
DWIDTH 8 0
BBX 8 16 0 -4
BITMAP
00
00
7C
C6
C6
C6
C6
C6
C6
C6
F6
DA
6C
06
00
00
ENDCHAR
STARTCHAR char82
ENCODING 82
SWIDTH 7680 0
DWIDTH 8 0
BBX 8 16 0 -4
BITMAP
00
00
FC
C6
C6
C6
C6
FC
D8
CC
CC
C6
C6
00
00
00
ENDCHAR
STARTCHAR char83
ENCODING 83
SWIDTH 7680 0
DWIDTH 8 0
BBX 8 16 0 -4
BITMAP
00
00
7C
C6
C0
60
30
18
0C
06
06
C6
7C
00
00
00
ENDCHAR
STARTCHAR char84
ENCODING 84
SWIDTH 7680 0
DWIDTH 8 0
BBX 8 16 0 -4
BITMAP
00
00
FE
30
30
30
30
30
30
30
30
30
30
00
00
00
ENDCHAR
STARTCHAR char85
ENCODING 85
SWIDTH 7680 0
DWIDTH 8 0
BBX 8 16 0 -4
BITMAP
00
00
C6
C6
C6
C6
C6
C6
C6
C6
C6
C6
7C
00
00
00
ENDCHAR
STARTCHAR char86
ENCODING 86
SWIDTH 7680 0
DWIDTH 8 0
BBX 8 16 0 -4
BITMAP
00
00
C6
C6
C6
C6
C6
C6
C6
C6
6C
38
10
00
00
00
ENDCHAR
STARTCHAR char87
ENCODING 87
SWIDTH 7680 0
DWIDTH 8 0
BBX 8 16 0 -4
BITMAP
00
00
C6
C6
C6
C6
D6
D6
D6
D6
FE
6C
6C
00
00
00
ENDCHAR
STARTCHAR char88
ENCODING 88
SWIDTH 7680 0
DWIDTH 8 0
BBX 8 16 0 -4
BITMAP
00
00
C6
C6
C6
6C
38
38
38
6C
C6
C6
C6
00
00
00
ENDCHAR
STARTCHAR char89
ENCODING 89
SWIDTH 7680 0
DWIDTH 8 0
BBX 8 16 0 -4
BITMAP
00
00
CC
CC
CC
CC
CC
78
30
30
30
30
30
00
00
00
ENDCHAR
STARTCHAR char90
ENCODING 90
SWIDTH 7680 0
DWIDTH 8 0
BBX 8 16 0 -4
BITMAP
00
00
FE
06
06
0C
18
30
60
C0
C0
C0
FE
00
00
00
ENDCHAR
STARTCHAR char91
ENCODING 91
SWIDTH 7680 0
DWIDTH 8 0
BBX 8 16 0 -4
BITMAP
00
00
3C
30
30
30
30
30
30
30
30
30
3C
00
00
00
ENDCHAR
STARTCHAR char92
ENCODING 92
SWIDTH 7680 0
DWIDTH 8 0
BBX 8 16 0 -4
BITMAP
00
00
C0
C0
60
60
30
38
18
0C
0C
06
06
00
00
00
ENDCHAR
STARTCHAR char93
ENCODING 93
SWIDTH 7680 0
DWIDTH 8 0
BBX 8 16 0 -4
BITMAP
00
00
3C
0C
0C
0C
0C
0C
0C
0C
0C
0C
3C
00
00
00
ENDCHAR
STARTCHAR char94
ENCODING 94
SWIDTH 7680 0
DWIDTH 8 0
BBX 8 16 0 -4
BITMAP
00
00
10
38
6C
C6
00
00
00
00
00
00
00
00
00
00
ENDCHAR
STARTCHAR char95
ENCODING 95
SWIDTH 7680 0
DWIDTH 8 0
BBX 8 16 0 -4
BITMAP
00
00
00
00
00
00
00
00
00
00
00
00
00
00
FF
00
ENDCHAR
STARTCHAR char96
ENCODING 96
SWIDTH 7680 0
DWIDTH 8 0
BBX 8 16 0 -4
BITMAP
00
00
18
18
18
0C
00
00
00
00
00
00
00
00
00
00
ENDCHAR
STARTCHAR char97
ENCODING 97
SWIDTH 7680 0
DWIDTH 8 0
BBX 8 16 0 -4
BITMAP
00
00
00
00
00
7C
06
06
7E
C6
C6
C6
7E
00
00
00
ENDCHAR
STARTCHAR char98
ENCODING 98
SWIDTH 7680 0
DWIDTH 8 0
BBX 8 16 0 -4
BITMAP
00
00
C0
C0
C0
DC
E6
C6
C6
C6
C6
E6
DC
00
00
00
ENDCHAR
STARTCHAR char99
ENCODING 99
SWIDTH 7680 0
DWIDTH 8 0
BBX 8 16 0 -4
BITMAP
00
00
00
00
00
7C
C6
C0
C0
C0
C0
C6
7C
00
00
00
ENDCHAR
STARTCHAR char100
ENCODING 100
SWIDTH 7680 0
DWIDTH 8 0
BBX 8 16 0 -4
BITMAP
00
00
06
06
06
76
CE
C6
C6
C6
C6
CE
76
00
00
00
ENDCHAR
STARTCHAR char101
ENCODING 101
SWIDTH 7680 0
DWIDTH 8 0
BBX 8 16 0 -4
BITMAP
00
00
00
00
00
7C
C6
C6
FE
C0
C0
C0
7E
00
00
00
ENDCHAR
STARTCHAR char102
ENCODING 102
SWIDTH 7680 0
DWIDTH 8 0
BBX 8 16 0 -4
BITMAP
00
00
1C
36
30
30
FC
30
30
30
30
30
30
00
00
00
ENDCHAR
STARTCHAR char103
ENCODING 103
SWIDTH 7680 0
DWIDTH 8 0
BBX 8 16 0 -4
BITMAP
00
00
00
00
00
76
CE
C6
C6
C6
CE
76
06
C6
7C
00
ENDCHAR
STARTCHAR char104
ENCODING 104
SWIDTH 7680 0
DWIDTH 8 0
BBX 8 16 0 -4
BITMAP
00
00
C0
C0
C0
DC
E6
C6
C6
C6
C6
C6
C6
00
00
00
ENDCHAR
STARTCHAR char105
ENCODING 105
SWIDTH 7680 0
DWIDTH 8 0
BBX 8 16 0 -4
BITMAP
00
00
18
00
00
38
18
18
18
18
18
18
3C
00
00
00
ENDCHAR
STARTCHAR char106
ENCODING 106
SWIDTH 7680 0
DWIDTH 8 0
BBX 8 16 0 -4
BITMAP
00
00
06
00
00
1E
06
06
06
06
06
06
C6
C6
7C
00
ENDCHAR
STARTCHAR char107
ENCODING 107
SWIDTH 7680 0
DWIDTH 8 0
BBX 8 16 0 -4
BITMAP
00
00
C0
C0
C0
C6
CC
D8
F0
F0
D8
CC
C6
00
00
00
ENDCHAR
STARTCHAR char108
ENCODING 108
SWIDTH 7680 0
DWIDTH 8 0
BBX 8 16 0 -4
BITMAP
00
00
38
18
18
18
18
18
18
18
18
18
3C
00
00
00
ENDCHAR
STARTCHAR char109
ENCODING 109
SWIDTH 7680 0
DWIDTH 8 0
BBX 8 16 0 -4
BITMAP
00
00
00
00
00
EC
FE
D6
D6
D6
D6
C6
C6
00
00
00
ENDCHAR
STARTCHAR char110
ENCODING 110
SWIDTH 7680 0
DWIDTH 8 0
BBX 8 16 0 -4
BITMAP
00
00
00
00
00
DC
E6
C6
C6
C6
C6
C6
C6
00
00
00
ENDCHAR
STARTCHAR char111
ENCODING 111
SWIDTH 7680 0
DWIDTH 8 0
BBX 8 16 0 -4
BITMAP
00
00
00
00
00
7C
C6
C6
C6
C6
C6
C6
7C
00
00
00
ENDCHAR
STARTCHAR char112
ENCODING 112
SWIDTH 7680 0
DWIDTH 8 0
BBX 8 16 0 -4
BITMAP
00
00
00
00
00
DC
E6
C6
C6
C6
E6
DC
C0
C0
C0
00
ENDCHAR
STARTCHAR char113
ENCODING 113
SWIDTH 7680 0
DWIDTH 8 0
BBX 8 16 0 -4
BITMAP
00
00
00
00
00
76
CE
C6
C6
C6
CE
76
06
06
06
00
ENDCHAR
STARTCHAR char114
ENCODING 114
SWIDTH 7680 0
DWIDTH 8 0
BBX 8 16 0 -4
BITMAP
00
00
00
00
00
DC
E6
C0
C0
C0
C0
C0
C0
00
00
00
ENDCHAR
STARTCHAR char115
ENCODING 115
SWIDTH 7680 0
DWIDTH 8 0
BBX 8 16 0 -4
BITMAP
00
00
00
00
00
7C
C6
C0
70
1C
06
C6
7C
00
00
00
ENDCHAR
STARTCHAR char116
ENCODING 116
SWIDTH 7680 0
DWIDTH 8 0
BBX 8 16 0 -4
BITMAP
00
00
30
30
30
FE
30
30
30
30
30
36
1C
00
00
00
ENDCHAR
STARTCHAR char117
ENCODING 117
SWIDTH 7680 0
DWIDTH 8 0
BBX 8 16 0 -4
BITMAP
00
00
00
00
00
C6
C6
C6
C6
C6
C6
C6
7C
00
00
00
ENDCHAR
STARTCHAR char118
ENCODING 118
SWIDTH 7680 0
DWIDTH 8 0
BBX 8 16 0 -4
BITMAP
00
00
00
00
00
C6
C6
C6
C6
C6
6C
38
10
00
00
00
ENDCHAR
STARTCHAR char119
ENCODING 119
SWIDTH 7680 0
DWIDTH 8 0
BBX 8 16 0 -4
BITMAP
00
00
00
00
00
C6
C6
D6
D6
D6
D6
FE
6C
00
00
00
ENDCHAR
STARTCHAR char120
ENCODING 120
SWIDTH 7680 0
DWIDTH 8 0
BBX 8 16 0 -4
BITMAP
00
00
00
00
00
C6
C6
6C
38
38
6C
C6
C6
00
00
00
ENDCHAR
STARTCHAR char121
ENCODING 121
SWIDTH 7680 0
DWIDTH 8 0
BBX 8 16 0 -4
BITMAP
00
00
00
00
00
C6
C6
C6
C6
C6
CE
76
06
C6
7C
00
ENDCHAR
STARTCHAR char122
ENCODING 122
SWIDTH 7680 0
DWIDTH 8 0
BBX 8 16 0 -4
BITMAP
00
00
00
00
00
FE
06
0C
18
30
60
C0
FE
00
00
00
ENDCHAR
STARTCHAR char123
ENCODING 123
SWIDTH 7680 0
DWIDTH 8 0
BBX 8 16 0 -4
BITMAP
00
00
0E
18
18
18
18
70
18
18
18
18
0E
00
00
00
ENDCHAR
STARTCHAR char124
ENCODING 124
SWIDTH 7680 0
DWIDTH 8 0
BBX 8 16 0 -4
BITMAP
00
00
18
18
18
18
18
00
18
18
18
18
18
00
00
00
ENDCHAR
STARTCHAR char125
ENCODING 125
SWIDTH 7680 0
DWIDTH 8 0
BBX 8 16 0 -4
BITMAP
00
00
70
18
18
18
18
0E
18
18
18
18
70
00
00
00
ENDCHAR
STARTCHAR char126
ENCODING 126
SWIDTH 7680 0
DWIDTH 8 0
BBX 8 16 0 -4
BITMAP
00
00
00
76
DC
00
00
00
00
00
00
00
00
00
00
00
ENDCHAR
STARTCHAR char127
ENCODING 127
SWIDTH 7680 0
DWIDTH 8 0
BBX 8 16 0 -4
BITMAP
00
00
00
10
10
38
38
6C
6C
C6
C6
FE
00
00
00
00
ENDCHAR
STARTCHAR char160
ENCODING 160
SWIDTH 7680 0
DWIDTH 8 0
BBX 8 16 0 -4
BITMAP
00
00
00
00
00
00
00
00
00
00
00
00
41
7F
00
00
ENDCHAR
STARTCHAR char173
ENCODING 161
SWIDTH 7680 0
DWIDTH 8 0
BBX 8 16 0 -4
BITMAP
00
00
00
18
18
00
18
18
3C
3C
3C
3C
18
00
00
00
ENDCHAR
STARTCHAR char162
ENCODING 162
SWIDTH 7680 0
DWIDTH 8 0
BBX 8 16 0 -4
BITMAP
00
00
00
30
30
78
CC
C0
C0
CC
78
30
30
00
00
00
ENDCHAR
STARTCHAR char163
ENCODING 163
SWIDTH 7680 0
DWIDTH 8 0
BBX 8 16 0 -4
BITMAP
00
00
38
6C
60
60
60
F8
60
60
60
E6
FC
00
00
00
ENDCHAR
STARTCHAR char164
ENCODING 164
SWIDTH 7680 0
DWIDTH 8 0
BBX 8 16 0 -4
BITMAP
00
00
00
00
C6
7C
C6
C6
C6
C6
7C
C6
00
00
00
00
ENDCHAR
STARTCHAR char165
ENCODING 165
SWIDTH 7680 0
DWIDTH 8 0
BBX 8 16 0 -4
BITMAP
00
00
66
66
66
3C
18
7E
18
7E
18
18
18
00
00
00
ENDCHAR
STARTCHAR char166
ENCODING 166
SWIDTH 7680 0
DWIDTH 8 0
BBX 8 16 0 -4
BITMAP
00
00
0C
0C
0C
0C
0C
00
0C
0C
0C
0C
0C
00
00
00
ENDCHAR
STARTCHAR char21
ENCODING 167
SWIDTH 7680 0
DWIDTH 8 0
BBX 8 16 0 -4
BITMAP
00
00
7C
C6
60
38
6C
C6
C6
6C
38
0C
C6
7C
00
00
ENDCHAR
STARTCHAR char168
ENCODING 168
SWIDTH 7680 0
DWIDTH 8 0
BBX 8 16 0 -4
BITMAP
00
6C
6C
00
00
00
00
00
00
00
00
00
00
00
00
00
ENDCHAR
STARTCHAR char169
ENCODING 169
SWIDTH 7680 0
DWIDTH 8 0
BBX 8 16 0 -4
BITMAP
00
00
00
7C
82
9A
A2
A2
A2
9A
82
7C
00
00
00
00
ENDCHAR
STARTCHAR char170
ENCODING 170
SWIDTH 7680 0
DWIDTH 8 0
BBX 8 16 0 -4
BITMAP
00
3C
6C
6C
36
00
7E
00
00
00
00
00
00
00
00
00
ENDCHAR
STARTCHAR char174
ENCODING 171
SWIDTH 7680 0
DWIDTH 8 0
BBX 8 16 0 -4
BITMAP
00
00
00
00
00
36
6C
D8
6C
36
00
00
00
00
00
00
ENDCHAR
STARTCHAR char172
ENCODING 172
SWIDTH 7680 0
DWIDTH 8 0
BBX 8 16 0 -4
BITMAP
00
00
00
00
00
00
00
00
FE
06
06
06
00
00
00
00
ENDCHAR
STARTCHAR char173
ENCODING 173
SWIDTH 7680 0
DWIDTH 8 0
BBX 8 16 0 -4
BITMAP
00
00
00
00
00
00
00
FE
00
00
00
00
00
00
00
00
ENDCHAR
STARTCHAR char174
ENCODING 174
SWIDTH 7680 0
DWIDTH 8 0
BBX 8 16 0 -4
BITMAP
00
00
00
7C
82
B2
AA
B2
AA
AA
82
7C
00
00
00
00
ENDCHAR
STARTCHAR char175
ENCODING 175
SWIDTH 7680 0
DWIDTH 8 0
BBX 8 16 0 -4
BITMAP
00
FF
00
00
00
00
00
00
00
00
00
00
00
00
00
00
ENDCHAR
STARTCHAR char248
ENCODING 176
SWIDTH 7680 0
DWIDTH 8 0
BBX 8 16 0 -4
BITMAP
00
78
CC
CC
CC
78
00
00
00
00
00
00
00
00
00
00
ENDCHAR
STARTCHAR char241
ENCODING 177
SWIDTH 7680 0
DWIDTH 8 0
BBX 8 16 0 -4
BITMAP
00
00
00
00
00
18
18
7E
18
18
00
00
7E
00
00
00
ENDCHAR
STARTCHAR char178
ENCODING 178
SWIDTH 7680 0
DWIDTH 8 0
BBX 8 16 0 -4
BITMAP
00
38
6C
0C
18
30
60
7C
00
00
00
00
00
00
00
00
ENDCHAR
STARTCHAR char179
ENCODING 179
SWIDTH 7680 0
DWIDTH 8 0
BBX 8 16 0 -4
BITMAP
00
7C
06
06
3C
06
06
7C
00
00
00
00
00
00
00
00
ENDCHAR
STARTCHAR char180
ENCODING 180
SWIDTH 7680 0
DWIDTH 8 0
BBX 8 16 0 -4
BITMAP
00
0C
18
30
00
00
00
00
00
00
00
00
00
00
00
00
ENDCHAR
STARTCHAR char230
ENCODING 181
SWIDTH 7680 0
DWIDTH 8 0
BBX 8 16 0 -4
BITMAP
00
00
00
00
00
66
66
66
66
66
66
76
6C
60
C0
80
ENDCHAR
STARTCHAR char20
ENCODING 182
SWIDTH 7680 0
DWIDTH 8 0
BBX 8 16 0 -4
BITMAP
00
00
7F
DB
DB
DB
DB
7B
1B
1B
1B
1B
1B
00
00
00
ENDCHAR
STARTCHAR char183
ENCODING 183
SWIDTH 7680 0
DWIDTH 8 0
BBX 8 16 0 -4
BITMAP
00
00
00
00
00
00
00
18
18
00
00
00
00
00
00
00
ENDCHAR
STARTCHAR char128
ENCODING 184
SWIDTH 7680 0
DWIDTH 8 0
BBX 8 16 0 -4
BITMAP
00
00
00
00
00
00
00
00
00
00
00
10
18
CC
78
00
ENDCHAR
STARTCHAR char185
ENCODING 185
SWIDTH 7680 0
DWIDTH 8 0
BBX 8 16 0 -4
BITMAP
00
30
70
30
30
30
78
00
00
00
00
00
00
00
00
00
ENDCHAR
STARTCHAR char186
ENCODING 186
SWIDTH 7680 0
DWIDTH 8 0
BBX 8 16 0 -4
BITMAP
00
38
6C
6C
38
00
7C
00
00
00
00
00
00
00
00
00
ENDCHAR
STARTCHAR char175
ENCODING 187
SWIDTH 7680 0
DWIDTH 8 0
BBX 8 16 0 -4
BITMAP
00
00
00
00
00
D8
6C
36
6C
D8
00
00
00
00
00
00
ENDCHAR
STARTCHAR char172
ENCODING 188
SWIDTH 7680 0
DWIDTH 8 0
BBX 8 16 0 -4
BITMAP
00
C0
C0
C2
C6
CC
18
30
66
CE
96
3E
06
06
00
00
ENDCHAR
STARTCHAR char171
ENCODING 189
SWIDTH 7680 0
DWIDTH 8 0
BBX 8 16 0 -4
BITMAP
00
C0
C0
C2
C6
CC
18
30
60
CE
9B
06
0C
1F
00
00
ENDCHAR
STARTCHAR char190
ENCODING 190
SWIDTH 7680 0
DWIDTH 8 0
BBX 8 16 0 -4
BITMAP
00
E0
30
62
36
EC
18
30
66
CE
9A
3F
06
06
00
00
ENDCHAR
STARTCHAR char191
ENCODING 191
SWIDTH 7680 0
DWIDTH 8 0
BBX 8 16 0 -4
BITMAP
00
00
18
18
00
18
18
30
60
C0
C6
C6
7C
00
00
00
ENDCHAR
STARTCHAR char192
ENCODING 192
SWIDTH 7680 0
DWIDTH 8 0
BBX 8 16 0 -4
BITMAP
0C
06
10
38
6C
C6
C6
FE
C6
C6
C6
C6
C6
00
00
00
ENDCHAR
STARTCHAR char193
ENCODING 193
SWIDTH 7680 0
DWIDTH 8 0
BBX 8 16 0 -4
BITMAP
60
C0
10
38
6C
C6
C6
FE
C6
C6
C6
C6
C6
00
00
00
ENDCHAR
STARTCHAR char194
ENCODING 194
SWIDTH 7680 0
DWIDTH 8 0
BBX 8 16 0 -4
BITMAP
38
6C
C6
10
38
6C
C6
C6
FE
C6
C6
C6
C6
00
00
00
ENDCHAR
STARTCHAR char195
ENCODING 195
SWIDTH 7680 0
DWIDTH 8 0
BBX 8 16 0 -4
BITMAP
76
DC
00
38
6C
C6
C6
FE
C6
C6
C6
C6
C6
00
00
00
ENDCHAR
STARTCHAR char196
ENCODING 196
SWIDTH 7680 0
DWIDTH 8 0
BBX 8 16 0 -4
BITMAP
C6
C6
10
38
6C
C6
C6
C6
FE
C6
C6
C6
C6
00
00
00
ENDCHAR
STARTCHAR char197
ENCODING 197
SWIDTH 7680 0
DWIDTH 8 0
BBX 8 16 0 -4
BITMAP
38
6C
38
00
38
6C
C6
C6
C6
FE
C6
C6
C6
00
00
00
ENDCHAR
STARTCHAR char198
ENCODING 198
SWIDTH 7680 0
DWIDTH 8 0
BBX 8 16 0 -4
BITMAP
00
00
1F
3C
6C
CC
CC
FF
CC
CC
CC
CC
CF
00
00
00
ENDCHAR
STARTCHAR char199
ENCODING 199
SWIDTH 7680 0
DWIDTH 8 0
BBX 8 16 0 -4
BITMAP
00
00
3C
66
C0
C0
C0
C0
C0
C0
66
3C
18
CC
78
00
ENDCHAR
STARTCHAR char200
ENCODING 200
SWIDTH 7680 0
DWIDTH 8 0
BBX 8 16 0 -4
BITMAP
60
30
18
00
FE
C0
C0
FC
C0
C0
C0
C0
FE
00
00
00
ENDCHAR
STARTCHAR char201
ENCODING 201
SWIDTH 7680 0
DWIDTH 8 0
BBX 8 16 0 -4
BITMAP
18
30
60
00
FE
C0
C0
FC
C0
C0
C0
C0
FE
00
00
00
ENDCHAR
STARTCHAR char202
ENCODING 202
SWIDTH 7680 0
DWIDTH 8 0
BBX 8 16 0 -4
BITMAP
38
6C
C6
00
FE
C0
C0
FC
C0
C0
C0
C0
FE
00
00
00
ENDCHAR
STARTCHAR char203
ENCODING 203
SWIDTH 7680 0
DWIDTH 8 0
BBX 8 16 0 -4
BITMAP
00
6C
6C
00
FE
C0
C0
FC
C0
C0
C0
C0
FE
00
00
00
ENDCHAR
STARTCHAR char204
ENCODING 204
SWIDTH 7680 0
DWIDTH 8 0
BBX 8 16 0 -4
BITMAP
30
18
00
3C
18
18
18
18
18
18
18
18
3C
00
00
00
ENDCHAR
STARTCHAR char205
ENCODING 205
SWIDTH 7680 0
DWIDTH 8 0
BBX 8 16 0 -4
BITMAP
0C
18
00
3C
18
18
18
18
18
18
18
18
3C
00
00
00
ENDCHAR
STARTCHAR char206
ENCODING 206
SWIDTH 7680 0
DWIDTH 8 0
BBX 8 16 0 -4
BITMAP
3C
66
00
3C
18
18
18
18
18
18
18
18
3C
00
00
00
ENDCHAR
STARTCHAR char207
ENCODING 207
SWIDTH 7680 0
DWIDTH 8 0
BBX 8 16 0 -4
BITMAP
00
66
00
3C
18
18
18
18
18
18
18
18
3C
00
00
00
ENDCHAR
STARTCHAR char68
ENCODING 208
SWIDTH 7680 0
DWIDTH 8 0
BBX 8 16 0 -4
BITMAP
00
00
F8
CC
C6
C6
C6
F6
C6
C6
C6
CC
F8
00
00
00
ENDCHAR
STARTCHAR char209
ENCODING 209
SWIDTH 7680 0
DWIDTH 8 0
BBX 8 16 0 -4
BITMAP
76
DC
00
C6
C6
E6
F6
FE
DE
CE
C6
C6
C6
00
00
00
ENDCHAR
STARTCHAR char210
ENCODING 210
SWIDTH 7680 0
DWIDTH 8 0
BBX 8 16 0 -4
BITMAP
30
18
00
7C
C6
C6
C6
C6
C6
C6
C6
C6
7C
00
00
00
ENDCHAR
STARTCHAR char211
ENCODING 211
SWIDTH 7680 0
DWIDTH 8 0
BBX 8 16 0 -4
BITMAP
18
30
00
7C
C6
C6
C6
C6
C6
C6
C6
C6
7C
00
00
00
ENDCHAR
STARTCHAR char212
ENCODING 212
SWIDTH 7680 0
DWIDTH 8 0
BBX 8 16 0 -4
BITMAP
38
6C
00
7C
C6
C6
C6
C6
C6
C6
C6
C6
7C
00
00
00
ENDCHAR
STARTCHAR char213
ENCODING 213
SWIDTH 7680 0
DWIDTH 8 0
BBX 8 16 0 -4
BITMAP
76
DC
00
7C
C6
C6
C6
C6
C6
C6
C6
C6
7C
00
00
00
ENDCHAR
STARTCHAR char214
ENCODING 214
SWIDTH 7680 0
DWIDTH 8 0
BBX 8 16 0 -4
BITMAP
6C
6C
00
7C
C6
C6
C6
C6
C6
C6
C6
C6
7C
00
00
00
ENDCHAR
STARTCHAR char215
ENCODING 215
SWIDTH 7680 0
DWIDTH 8 0
BBX 8 16 0 -4
BITMAP
00
00
00
00
00
C6
6C
38
38
6C
C6
00
00
00
00
00
ENDCHAR
STARTCHAR char216
ENCODING 216
SWIDTH 7680 0
DWIDTH 8 0
BBX 8 16 0 -4
BITMAP
00
04
7C
CE
CE
D6
D6
D6
D6
E6
E6
7C
40
00
00
00
ENDCHAR
STARTCHAR char217
ENCODING 217
SWIDTH 7680 0
DWIDTH 8 0
BBX 8 16 0 -4
BITMAP
18
30
00
C6
C6
C6
C6
C6
C6
C6
C6
C6
7C
00
00
00
ENDCHAR
STARTCHAR char218
ENCODING 218
SWIDTH 7680 0
DWIDTH 8 0
BBX 8 16 0 -4
BITMAP
30
18
00
C6
C6
C6
C6
C6
C6
C6
C6
C6
7C
00
00
00
ENDCHAR
STARTCHAR char219
ENCODING 219
SWIDTH 7680 0
DWIDTH 8 0
BBX 8 16 0 -4
BITMAP
38
6C
00
C6
C6
C6
C6
C6
C6
C6
C6
C6
7C
00
00
00
ENDCHAR
STARTCHAR char220
ENCODING 220
SWIDTH 7680 0
DWIDTH 8 0
BBX 8 16 0 -4
BITMAP
6C
6C
00
C6
C6
C6
C6
C6
C6
C6
C6
C6
7C
00
00
00
ENDCHAR
STARTCHAR char221
ENCODING 221
SWIDTH 7680 0
DWIDTH 8 0
BBX 8 16 0 -4
BITMAP
18
30
00
CC
CC
CC
CC
CC
78
30
30
30
30
00
00
00
ENDCHAR
STARTCHAR char222
ENCODING 222
SWIDTH 7680 0
DWIDTH 8 0
BBX 8 16 0 -4
BITMAP
00
E0
60
60
7C
66
66
66
66
66
7C
60
60
F0
00
00
ENDCHAR
STARTCHAR char223
ENCODING 223
SWIDTH 7680 0
DWIDTH 8 0
BBX 8 16 0 -4
BITMAP
00
00
3C
66
66
66
6C
66
66
66
66
66
6C
60
60
00
ENDCHAR
STARTCHAR char224
ENCODING 224
SWIDTH 7680 0
DWIDTH 8 0
BBX 8 16 0 -4
BITMAP
00
60
30
18
00
7C
06
06
7E
C6
C6
C6
7E
00
00
00
ENDCHAR
STARTCHAR char225
ENCODING 225
SWIDTH 7680 0
DWIDTH 8 0
BBX 8 16 0 -4
BITMAP
00
0C
18
30
00
7C
06
06
7E
C6
C6
C6
7E
00
00
00
ENDCHAR
STARTCHAR char226
ENCODING 226
SWIDTH 7680 0
DWIDTH 8 0
BBX 8 16 0 -4
BITMAP
00
10
38
6C
00
7C
06
06
7E
C6
C6
C6
7E
00
00
00
ENDCHAR
STARTCHAR char228
ENCODING 227
SWIDTH 7680 0
DWIDTH 8 0
BBX 8 16 0 -4
BITMAP
00
00
76
DC
00
7C
06
06
7E
C6
C6
C6
7E
00
00
00
ENDCHAR
STARTCHAR char228
ENCODING 228
SWIDTH 7680 0
DWIDTH 8 0
BBX 8 16 0 -4
BITMAP
00
00
6C
6C
00
7C
06
06
7E
C6
C6
C6
7E
00
00
00
ENDCHAR
STARTCHAR char229
ENCODING 229
SWIDTH 7680 0
DWIDTH 8 0
BBX 8 16 0 -4
BITMAP
00
38
6C
38
00
7C
06
06
7E
C6
C6
C6
7E
00
00
00
ENDCHAR
STARTCHAR char230
ENCODING 230
SWIDTH 7680 0
DWIDTH 8 0
BBX 8 16 0 -4
BITMAP
00
00
00
00
00
EC
36
36
76
DE
D8
D8
6E
00
00
00
ENDCHAR
STARTCHAR char231
ENCODING 231
SWIDTH 7680 0
DWIDTH 8 0
BBX 8 16 0 -4
BITMAP
00
00
00
00
00
7C
C6
C0
C0
C0
C0
C6
7C
18
0C
38
ENDCHAR
STARTCHAR char232
ENCODING 232
SWIDTH 7680 0
DWIDTH 8 0
BBX 8 16 0 -4
BITMAP
00
60
30
18
00
7C
C6
C6
FE
C0
C0
C0
7E
00
00
00
ENDCHAR
STARTCHAR char233
ENCODING 233
SWIDTH 7680 0
DWIDTH 8 0
BBX 8 16 0 -4
BITMAP
00
0C
18
30
00
7C
C6
C6
FE
C0
C0
C0
7E
00
00
00
ENDCHAR
STARTCHAR char234
ENCODING 234
SWIDTH 7680 0
DWIDTH 8 0
BBX 8 16 0 -4
BITMAP
00
10
38
6C
00
7C
C6
C6
FE
C0
C0
C0
7E
00
00
00
ENDCHAR
STARTCHAR char235
ENCODING 235
SWIDTH 7680 0
DWIDTH 8 0
BBX 8 16 0 -4
BITMAP
00
00
6C
6C
00
7C
C6
C6
FE
C0
C0
C0
7E
00
00
00
ENDCHAR
STARTCHAR char236
ENCODING 236
SWIDTH 7680 0
DWIDTH 8 0
BBX 8 16 0 -4
BITMAP
00
60
30
18
00
38
18
18
18
18
18
18
3C
00
00
00
ENDCHAR
STARTCHAR char237
ENCODING 237
SWIDTH 7680 0
DWIDTH 8 0
BBX 8 16 0 -4
BITMAP
00
0C
18
30
00
38
18
18
18
18
18
18
3C
00
00
00
ENDCHAR
STARTCHAR char238
ENCODING 238
SWIDTH 7680 0
DWIDTH 8 0
BBX 8 16 0 -4
BITMAP
00
10
38
6C
00
38
18
18
18
18
18
18
3C
00
00
00
ENDCHAR
STARTCHAR char239
ENCODING 239
SWIDTH 7680 0
DWIDTH 8 0
BBX 8 16 0 -4
BITMAP
00
00
6C
6C
00
38
18
18
18
18
18
18
3C
00
00
00
ENDCHAR
STARTCHAR char240
ENCODING 240
SWIDTH 7680 0
DWIDTH 8 0
BBX 8 16 0 -4
BITMAP
00
00
00
34
18
2C
06
3E
66
66
66
66
3C
00
00
00
ENDCHAR
STARTCHAR char241
ENCODING 241
SWIDTH 7680 0
DWIDTH 8 0
BBX 8 16 0 -4
BITMAP
00
76
DC
00
00
DC
E6
C6
C6
C6
C6
C6
C6
00
00
00
ENDCHAR
STARTCHAR char242
ENCODING 242
SWIDTH 7680 0
DWIDTH 8 0
BBX 8 16 0 -4
BITMAP
00
60
30
18
00
7C
C6
C6
C6
C6
C6
C6
7C
00
00
00
ENDCHAR
STARTCHAR char243
ENCODING 243
SWIDTH 7680 0
DWIDTH 8 0
BBX 8 16 0 -4
BITMAP
00
0C
18
30
00
7C
C6
C6
C6
C6
C6
C6
7C
00
00
00
ENDCHAR
STARTCHAR char244
ENCODING 244
SWIDTH 7680 0
DWIDTH 8 0
BBX 8 16 0 -4
BITMAP
00
10
38
6C
00
7C
C6
C6
C6
C6
C6
C6
7C
00
00
00
ENDCHAR
STARTCHAR char246
ENCODING 245
SWIDTH 7680 0
DWIDTH 8 0
BBX 8 16 0 -4
BITMAP
00
00
76
DC
00
7C
C6
C6
C6
C6
C6
C6
7C
00
00
00
ENDCHAR
STARTCHAR char246
ENCODING 246
SWIDTH 7680 0
DWIDTH 8 0
BBX 8 16 0 -4
BITMAP
00
00
6C
6C
00
7C
C6
C6
C6
C6
C6
C6
7C
00
00
00
ENDCHAR
STARTCHAR char246
ENCODING 247
SWIDTH 7680 0
DWIDTH 8 0
BBX 8 16 0 -4
BITMAP
00
00
00
00
18
18
00
7E
00
18
18
00
00
00
00
00
ENDCHAR
STARTCHAR char248
ENCODING 248
SWIDTH 7680 0
DWIDTH 8 0
BBX 8 16 0 -4
BITMAP
00
00
00
00
00
00
7C
CE
DE
F6
E6
C6
7C
00
00
00
ENDCHAR
STARTCHAR char249
ENCODING 249
SWIDTH 7680 0
DWIDTH 8 0
BBX 8 16 0 -4
BITMAP
00
60
30
18
00
C6
C6
C6
C6
C6
C6
C6
7C
00
00
00
ENDCHAR
STARTCHAR char250
ENCODING 250
SWIDTH 7680 0
DWIDTH 8 0
BBX 8 16 0 -4
BITMAP
00
0C
18
30
00
C6
C6
C6
C6
C6
C6
C6
7C
00
00
00
ENDCHAR
STARTCHAR char251
ENCODING 251
SWIDTH 7680 0
DWIDTH 8 0
BBX 8 16 0 -4
BITMAP
00
10
38
6C
00
C6
C6
C6
C6
C6
C6
C6
7C
00
00
00
ENDCHAR
STARTCHAR char252
ENCODING 252
SWIDTH 7680 0
DWIDTH 8 0
BBX 8 16 0 -4
BITMAP
00
00
6C
6C
00
C6
C6
C6
C6
C6
C6
C6
7C
00
00
00
ENDCHAR
STARTCHAR char253
ENCODING 253
SWIDTH 7680 0
DWIDTH 8 0
BBX 8 16 0 -4
BITMAP
00
0C
18
30
00
C6
C6
C6
C6
C6
CE
76
06
C6
78
00
ENDCHAR
STARTCHAR char254
ENCODING 254
SWIDTH 7680 0
DWIDTH 8 0
BBX 8 16 0 -4
BITMAP
00
00
F0
60
7C
66
66
66
66
7C
60
F0
00
00
00
00
ENDCHAR
STARTCHAR char255
ENCODING 255
SWIDTH 7680 0
DWIDTH 8 0
BBX 8 16 0 -4
BITMAP
00
00
6C
6C
00
C6
C6
C6
C6
C6
CE
76
06
C6
7C
00
ENDCHAR
STARTCHAR char256
ENCODING 256
SWIDTH 7680 0
DWIDTH 8 0
BBX 8 16 0 -4
BITMAP
00
3E
00
1C
22
41
41
41
7F
41
41
41
00
00
00
00
ENDCHAR
STARTCHAR char257
ENCODING 257
SWIDTH 7680 0
DWIDTH 8 0
BBX 8 16 0 -4
BITMAP
00
00
00
3E
00
3E
01
01
3F
41
43
3D
00
00
00
00
ENDCHAR
STARTCHAR char258
ENCODING 258
SWIDTH 7680 0
DWIDTH 8 0
BBX 8 16 0 -4
BITMAP
00
22
1C
00
1C
22
41
41
7F
41
41
41
00
00
00
00
ENDCHAR
STARTCHAR char259
ENCODING 259
SWIDTH 7680 0
DWIDTH 8 0
BBX 8 16 0 -4
BITMAP
00
00
22
1C
00
3E
01
01
3F
41
43
3D
00
00
00
00
ENDCHAR
STARTCHAR char260
ENCODING 260
SWIDTH 7680 0
DWIDTH 8 0
BBX 8 16 0 -4
BITMAP
00
00
08
14
22
41
41
41
7F
41
41
41
01
01
80
00
ENDCHAR
STARTCHAR char261
ENCODING 261
SWIDTH 7680 0
DWIDTH 8 0
BBX 8 16 0 -4
BITMAP
00
00
00
00
00
3E
01
01
3F
41
43
3D
01
01
80
00
ENDCHAR
STARTCHAR char262
ENCODING 262
SWIDTH 7680 0
DWIDTH 8 0
BBX 8 16 0 -4
BITMAP
02
04
08
00
3E
41
40
40
40
40
41
3E
00
00
00
00
ENDCHAR
STARTCHAR char263
ENCODING 263
SWIDTH 7680 0
DWIDTH 8 0
BBX 8 16 0 -4
BITMAP
00
02
04
08
00
3E
41
40
40
40
41
3E
00
00
00
00
ENDCHAR
STARTCHAR char264
ENCODING 264
SWIDTH 7680 0
DWIDTH 8 0
BBX 8 16 0 -4
BITMAP
08
14
22
00
3E
41
41
40
40
40
41
3E
00
00
00
00
ENDCHAR
STARTCHAR char265
ENCODING 265
SWIDTH 7680 0
DWIDTH 8 0
BBX 8 16 0 -4
BITMAP
00
08
14
22
00
3E
41
40
40
40
41
3E
00
00
00
00
ENDCHAR
STARTCHAR char266
ENCODING 266
SWIDTH 7680 0
DWIDTH 8 0
BBX 8 16 0 -4
BITMAP
00
18
00
3E
41
40
40
40
40
40
41
3E
00
00
00
00
ENDCHAR
STARTCHAR char267
ENCODING 267
SWIDTH 7680 0
DWIDTH 8 0
BBX 8 16 0 -4
BITMAP
00
00
00
18
00
3E
41
40
40
40
41
3E
00
00
00
00
ENDCHAR
STARTCHAR char268
ENCODING 268
SWIDTH 7680 0
DWIDTH 8 0
BBX 8 16 0 -4
BITMAP
22
14
08
00
3E
41
40
40
40
40
41
3E
00
00
00
00
ENDCHAR
STARTCHAR char269
ENCODING 269
SWIDTH 7680 0
DWIDTH 8 0
BBX 8 16 0 -4
BITMAP
00
22
14
08
00
3E
41
40
40
40
41
3E
00
00
00
00
ENDCHAR
STARTCHAR char270
ENCODING 270
SWIDTH 7680 0
DWIDTH 8 0
BBX 8 16 0 -4
BITMAP
22
14
08
7C
42
41
41
41
41
41
42
7C
00
00
00
00
ENDCHAR
STARTCHAR char271
ENCODING 271
SWIDTH 7680 0
DWIDTH 8 0
BBX 8 16 0 -4
BITMAP
00
22
15
09
01
3D
43
41
41
41
43
3D
00
00
00
00
ENDCHAR
STARTCHAR char272
ENCODING 272
SWIDTH 7680 0
DWIDTH 8 0
BBX 8 16 0 -4
BITMAP
00
00
7C
42
41
41
E1
41
41
41
42
7C
00
00
00
00
ENDCHAR
STARTCHAR char273
ENCODING 273
SWIDTH 7680 0
DWIDTH 8 0
BBX 8 16 0 -4
BITMAP
00
00
01
07
81
3D
43
41
41
41
43
3D
00
00
00
00
ENDCHAR
STARTCHAR char274
ENCODING 274
SWIDTH 7680 0
DWIDTH 8 0
BBX 8 16 0 -4
BITMAP
00
3E
00
7F
40
40
40
7C
40
40
40
7F
00
00
00
00
ENDCHAR
STARTCHAR char275
ENCODING 275
SWIDTH 7680 0
DWIDTH 8 0
BBX 8 16 0 -4
BITMAP
00
00
00
3E
00
3E
41
41
7F
40
40
3E
00
00
00
00
ENDCHAR
STARTCHAR char276
ENCODING 276
SWIDTH 7680 0
DWIDTH 8 0
BBX 8 16 0 -4
BITMAP
00
22
1C
00
7F
40
40
7C
40
40
40
7F
00
00
00
00
ENDCHAR
STARTCHAR char277
ENCODING 277
SWIDTH 7680 0
DWIDTH 8 0
BBX 8 16 0 -4
BITMAP
00
00
22
1C
00
3E
41
41
7F
40
40
3E
00
00
00
00
ENDCHAR
STARTCHAR char278
ENCODING 278
SWIDTH 7680 0
DWIDTH 8 0
BBX 8 16 0 -4
BITMAP
00
18
00
7F
40
40
40
7C
40
40
40
7F
00
00
00
00
ENDCHAR
STARTCHAR char279
ENCODING 279
SWIDTH 7680 0
DWIDTH 8 0
BBX 8 16 0 -4
BITMAP
00
00
00
18
00
3E
41
41
7F
40
40
3E
00
00
00
00
ENDCHAR
STARTCHAR char280
ENCODING 280
SWIDTH 7680 0
DWIDTH 8 0
BBX 8 16 0 -4
BITMAP
00
00
7F
40
40
40
7C
40
40
40
40
7F
08
0C
00
00
ENDCHAR
STARTCHAR char281
ENCODING 281
SWIDTH 7680 0
DWIDTH 8 0
BBX 8 16 0 -4
BITMAP
00
00
00
00
00
3E
41
41
7F
40
40
3E
08
0C
00
00
ENDCHAR
STARTCHAR char282
ENCODING 282
SWIDTH 7680 0
DWIDTH 8 0
BBX 8 16 0 -4
BITMAP
22
14
08
00
7F
40
40
7C
40
40
40
7F
00
00
00
00
ENDCHAR
STARTCHAR char283
ENCODING 283
SWIDTH 7680 0
DWIDTH 8 0
BBX 8 16 0 -4
BITMAP
00
22
14
08
00
3E
41
41
7F
40
40
3E
00
00
00
00
ENDCHAR
STARTCHAR char284
ENCODING 284
SWIDTH 7680 0
DWIDTH 8 0
BBX 8 16 0 -4
BITMAP
08
14
22
00
3E
41
40
40
47
41
41
3E
00
00
00
00
ENDCHAR
STARTCHAR char285
ENCODING 285
SWIDTH 7680 0
DWIDTH 8 0
BBX 8 16 0 -4
BITMAP
00
08
14
22
00
3D
42
42
42
3C
40
3E
41
41
3E
00
ENDCHAR
STARTCHAR char286
ENCODING 286
SWIDTH 7680 0
DWIDTH 8 0
BBX 8 16 0 -4
BITMAP
00
22
1C
00
3E
41
40
40
47
41
41
3E
00
00
00
00
ENDCHAR
STARTCHAR char287
ENCODING 287
SWIDTH 7680 0
DWIDTH 8 0
BBX 8 16 0 -4
BITMAP
00
00
22
1C
00
3D
42
42
42
3C
40
3E
41
41
3E
00
ENDCHAR
STARTCHAR char288
ENCODING 288
SWIDTH 7680 0
DWIDTH 8 0
BBX 8 16 0 -4
BITMAP
00
18
00
3E
41
40
40
47
41
41
41
3E
00
00
00
00
ENDCHAR
STARTCHAR char289
ENCODING 289
SWIDTH 7680 0
DWIDTH 8 0
BBX 8 16 0 -4
BITMAP
00
00
00
18
00
3D
42
42
42
3C
40
3E
41
41
3E
00
ENDCHAR
STARTCHAR char290
ENCODING 290
SWIDTH 7680 0
DWIDTH 8 0
BBX 8 16 0 -4
BITMAP
00
00
3E
41
40
40
40
47
41
41
41
3E
0C
24
18
00
ENDCHAR
STARTCHAR char291
ENCODING 291
SWIDTH 7680 0
DWIDTH 8 0
BBX 8 16 0 -4
BITMAP
00
04
08
0C
00
3D
42
42
42
3C
40
3E
41
3E
00
00
ENDCHAR
STARTCHAR char292
ENCODING 292
SWIDTH 7680 0
DWIDTH 8 0
BBX 8 16 0 -4
BITMAP
08
14
22
00
41
41
41
7F
41
41
41
41
00
00
00
00
ENDCHAR
STARTCHAR char293
ENCODING 293
SWIDTH 7680 0
DWIDTH 8 0
BBX 8 16 0 -4
BITMAP
04
0A
51
40
40
5E
61
41
41
41
41
41
00
00
00
00
ENDCHAR
STARTCHAR char294
ENCODING 294
SWIDTH 7680 0
DWIDTH 8 0
BBX 8 16 0 -4
BITMAP
00
00
41
41
FF
C1
7F
41
41
41
41
41
00
00
00
00
ENDCHAR
STARTCHAR char295
ENCODING 295
SWIDTH 7680 0
DWIDTH 8 0
BBX 8 16 0 -4
BITMAP
00
00
40
F0
40
5E
61
41
41
41
41
41
00
00
00
00
ENDCHAR
STARTCHAR char296
ENCODING 296
SWIDTH 7680 0
DWIDTH 8 0
BBX 8 16 0 -4
BITMAP
00
31
4E
00
3E
08
08
08
08
08
08
3E
00
00
00
00
ENDCHAR
STARTCHAR char297
ENCODING 297
SWIDTH 7680 0
DWIDTH 8 0
BBX 8 16 0 -4
BITMAP
00
00
32
4C
00
38
08
08
08
08
08
3E
00
00
00
00
ENDCHAR
STARTCHAR char298
ENCODING 298
SWIDTH 7680 0
DWIDTH 8 0
BBX 8 16 0 -4
BITMAP
00
3E
00
3E
08
08
08
08
08
08
08
3E
00
00
00
00
ENDCHAR
STARTCHAR char299
ENCODING 299
SWIDTH 7680 0
DWIDTH 8 0
BBX 8 16 0 -4
BITMAP
00
00
00
7E
00
38
08
08
08
08
08
3E
00
00
00
00
ENDCHAR
STARTCHAR char300
ENCODING 300
SWIDTH 7680 0
DWIDTH 8 0
BBX 8 16 0 -4
BITMAP
00
22
1C
00
3E
08
08
08
08
08
08
3E
00
00
00
00
ENDCHAR
STARTCHAR char301
ENCODING 301
SWIDTH 7680 0
DWIDTH 8 0
BBX 8 16 0 -4
BITMAP
00
00
22
1C
00
38
08
08
08
08
08
3E
00
00
00
00
ENDCHAR
STARTCHAR char302
ENCODING 302
SWIDTH 7680 0
DWIDTH 8 0
BBX 8 16 0 -4
BITMAP
00
00
3E
08
08
08
08
08
08
08
08
3E
10
18
00
00
ENDCHAR
STARTCHAR char303
ENCODING 303
SWIDTH 7680 0
DWIDTH 8 0
BBX 8 16 0 -4
BITMAP
00
00
00
18
00
38
08
08
08
08
08
3E
10
18
00
00
ENDCHAR
STARTCHAR char304
ENCODING 304
SWIDTH 7680 0
DWIDTH 8 0
BBX 8 16 0 -4
BITMAP
00
0C
00
3E
08
08
08
08
08
08
08
3E
00
00
00
00
ENDCHAR
STARTCHAR char305
ENCODING 305
SWIDTH 7680 0
DWIDTH 8 0
BBX 8 16 0 -4
BITMAP
00
00
00
00
00
38
08
08
08
08
08
3E
00
00
00
00
ENDCHAR
STARTCHAR char306
ENCODING 306
SWIDTH 7680 0
DWIDTH 8 0
BBX 8 16 0 -4
BITMAP
00
00
77
21
21
21
21
21
21
21
29
76
00
00
00
00
ENDCHAR
STARTCHAR char307
ENCODING 307
SWIDTH 7680 0
DWIDTH 8 0
BBX 8 16 0 -4
BITMAP
00
00
63
00
00
67
21
21
21
21
21
F9
01
11
0E
00
ENDCHAR
STARTCHAR char308
ENCODING 308
SWIDTH 7680 0
DWIDTH 8 0
BBX 8 16 0 -4
BITMAP
04
0A
11
00
0F
02
02
02
02
02
42
3C
00
00
00
00
ENDCHAR
STARTCHAR char309
ENCODING 309
SWIDTH 7680 0
DWIDTH 8 0
BBX 8 16 0 -4
BITMAP
00
04
0A
11
00
0E
02
02
02
02
02
42
42
42
3C
00
ENDCHAR
STARTCHAR char310
ENCODING 310
SWIDTH 7680 0
DWIDTH 8 0
BBX 8 16 0 -4
BITMAP
00
00
41
42
44
48
70
50
48
44
42
41
30
90
60
00
ENDCHAR
STARTCHAR char311
ENCODING 311
SWIDTH 7680 0
DWIDTH 8 0
BBX 8 16 0 -4
BITMAP
00
00
40
40
40
41
46
58
60
58
46
41
30
90
60
00
ENDCHAR
STARTCHAR char312
ENCODING 312
SWIDTH 7680 0
DWIDTH 8 0
BBX 8 16 0 -4
BITMAP
00
00
00
00
00
41
42
44
78
44
42
41
00
00
00
00
ENDCHAR
STARTCHAR char313
ENCODING 313
SWIDTH 7680 0
DWIDTH 8 0
BBX 8 16 0 -4
BITMAP
02
04
08
00
40
40
40
40
40
40
40
7F
00
00
00
00
ENDCHAR
STARTCHAR char314
ENCODING 314
SWIDTH 7680 0
DWIDTH 8 0
BBX 8 16 0 -4
BITMAP
02
04
08
00
38
08
08
08
08
08
08
3E
00
00
00
00
ENDCHAR
STARTCHAR char315
ENCODING 315
SWIDTH 7680 0
DWIDTH 8 0
BBX 8 16 0 -4
BITMAP
00
00
40
40
40
40
40
40
40
40
40
7F
0C
24
18
00
ENDCHAR
STARTCHAR char316
ENCODING 316
SWIDTH 7680 0
DWIDTH 8 0
BBX 8 16 0 -4
BITMAP
00
00
38
08
08
08
08
08
08
08
08
3E
0C
24
18
00
ENDCHAR
STARTCHAR char317
ENCODING 317
SWIDTH 7680 0
DWIDTH 8 0
BBX 8 16 0 -4
BITMAP
00
22
14
08
40
40
40
40
40
40
40
7F
00
00
00
00
ENDCHAR
STARTCHAR char318
ENCODING 318
SWIDTH 7680 0
DWIDTH 8 0
BBX 8 16 0 -4
BITMAP
22
14
08
00
38
08
08
08
08
08
08
3E
00
00
00
00
ENDCHAR
STARTCHAR char319
ENCODING 319
SWIDTH 7680 0
DWIDTH 8 0
BBX 8 16 0 -4
BITMAP
00
00
40
40
40
44
44
40
40
40
40
7F
00
00
00
00
ENDCHAR
STARTCHAR char320
ENCODING 320
SWIDTH 7680 0
DWIDTH 8 0
BBX 8 16 0 -4
BITMAP
00
00
70
10
10
12
12
10
10
10
10
7C
00
00
00
00
ENDCHAR
STARTCHAR char321
ENCODING 321
SWIDTH 7680 0
DWIDTH 8 0
BBX 8 16 0 -4
BITMAP
00
00
40
40
40
50
60
C0
40
40
40
7F
00
00
00
00
ENDCHAR
STARTCHAR char322
ENCODING 322
SWIDTH 7680 0
DWIDTH 8 0
BBX 8 16 0 -4
BITMAP
00
00
38
08
08
0A
0C
18
08
08
08
3E
00
00
00
00
ENDCHAR
STARTCHAR char323
ENCODING 323
SWIDTH 7680 0
DWIDTH 8 0
BBX 8 16 0 -4
BITMAP
00
02
04
08
41
41
61
51
49
45
43
41
00
00
00
00
ENDCHAR
STARTCHAR char324
ENCODING 324
SWIDTH 7680 0
DWIDTH 8 0
BBX 8 16 0 -4
BITMAP
00
02
04
08
00
5E
61
41
41
41
41
41
00
00
00
00
ENDCHAR
STARTCHAR char325
ENCODING 325
SWIDTH 7680 0
DWIDTH 8 0
BBX 8 16 0 -4
BITMAP
00
00
41
41
61
51
49
45
43
41
41
41
20
90
60
00
ENDCHAR
STARTCHAR char326
ENCODING 326
SWIDTH 7680 0
DWIDTH 8 0
BBX 8 16 0 -4
BITMAP
00
00
00
00
00
5E
61
41
41
41
41
41
20
90
60
00
ENDCHAR
STARTCHAR char327
ENCODING 327
SWIDTH 7680 0
DWIDTH 8 0
BBX 8 16 0 -4
BITMAP
22
14
08
41
41
61
51
49
45
43
41
41
00
00
00
00
ENDCHAR
STARTCHAR char328
ENCODING 328
SWIDTH 7680 0
DWIDTH 8 0
BBX 8 16 0 -4
BITMAP
00
22
14
08
00
5E
61
41
41
41
41
41
00
00
00
00
ENDCHAR
STARTCHAR char329
ENCODING 329
SWIDTH 7680 0
DWIDTH 8 0
BBX 8 16 0 -4
BITMAP
00
C0
40
80
00
5E
61
41
41
41
41
41
00
00
00
00
ENDCHAR
STARTCHAR char330
ENCODING 330
SWIDTH 7680 0
DWIDTH 8 0
BBX 8 16 0 -4
BITMAP
00
00
41
41
61
51
49
45
43
41
41
41
09
06
00
00
ENDCHAR
STARTCHAR char331
ENCODING 331
SWIDTH 7680 0
DWIDTH 8 0
BBX 8 16 0 -4
BITMAP
00
00
00
00
00
5E
61
41
41
41
41
41
09
06
00
00
ENDCHAR
STARTCHAR char332
ENCODING 332
SWIDTH 7680 0
DWIDTH 8 0
BBX 8 16 0 -4
BITMAP
00
00
3E
00
3E
41
41
41
41
41
41
3E
00
00
00
00
ENDCHAR
STARTCHAR char333
ENCODING 333
SWIDTH 7680 0
DWIDTH 8 0
BBX 8 16 0 -4
BITMAP
00
00
00
3E
00
3E
41
41
41
41
41
3E
00
00
00
00
ENDCHAR
STARTCHAR char334
ENCODING 334
SWIDTH 7680 0
DWIDTH 8 0
BBX 8 16 0 -4
BITMAP
00
22
1C
00
3E
41
41
41
41
41
41
3E
00
00
00
00
ENDCHAR
STARTCHAR char335
ENCODING 335
SWIDTH 7680 0
DWIDTH 8 0
BBX 8 16 0 -4
BITMAP
00
00
22
1C
00
3E
41
41
41
41
41
3E
00
00
00
00
ENDCHAR
STARTCHAR char336
ENCODING 336
SWIDTH 7680 0
DWIDTH 8 0
BBX 8 16 0 -4
BITMAP
00
11
22
00
3E
41
41
41
41
41
41
3E
00
00
00
00
ENDCHAR
STARTCHAR char337
ENCODING 337
SWIDTH 7680 0
DWIDTH 8 0
BBX 8 16 0 -4
BITMAP
00
00
11
22
00
3E
41
41
41
41
41
3E
00
00
00
00
ENDCHAR
STARTCHAR char338
ENCODING 338
SWIDTH 7680 0
DWIDTH 8 0
BBX 8 16 0 -4
BITMAP
00
00
3F
48
48
48
4E
48
48
48
48
3F
00
00
00
00
ENDCHAR
STARTCHAR char339
ENCODING 339
SWIDTH 7680 0
DWIDTH 8 0
BBX 8 16 0 -4
BITMAP
00
00
00
00
00
36
49
49
4F
48
49
36
00
00
00
00
ENDCHAR
STARTCHAR char340
ENCODING 340
SWIDTH 7680 0
DWIDTH 8 0
BBX 8 16 0 -4
BITMAP
02
04
08
00
7E
41
41
41
7E
42
41
41
00
00
00
00
ENDCHAR
STARTCHAR char341
ENCODING 341
SWIDTH 7680 0
DWIDTH 8 0
BBX 8 16 0 -4
BITMAP
00
02
04
08
00
4E
31
21
20
20
20
20
00
00
00
00
ENDCHAR
STARTCHAR char342
ENCODING 342
SWIDTH 7680 0
DWIDTH 8 0
BBX 8 16 0 -4
BITMAP
00
00
7E
41
41
41
7E
48
44
42
41
41
30
90
60
00
ENDCHAR
STARTCHAR char343
ENCODING 343
SWIDTH 7680 0
DWIDTH 8 0
BBX 8 16 0 -4
BITMAP
00
00
00
00
00
4E
31
21
20
20
20
20
30
90
60
00
ENDCHAR
STARTCHAR char344
ENCODING 344
SWIDTH 7680 0
DWIDTH 8 0
BBX 8 16 0 -4
BITMAP
22
14
08
00
7E
41
41
41
7E
42
41
41
00
00
00
00
ENDCHAR
STARTCHAR char345
ENCODING 345
SWIDTH 7680 0
DWIDTH 8 0
BBX 8 16 0 -4
BITMAP
00
22
14
08
00
4E
31
21
20
20
20
20
00
00
00
00
ENDCHAR
STARTCHAR char346
ENCODING 346
SWIDTH 7680 0
DWIDTH 8 0
BBX 8 16 0 -4
BITMAP
02
04
08
00
3E
41
40
3E
01
41
41
3E
00
00
00
00
ENDCHAR
STARTCHAR char347
ENCODING 347
SWIDTH 7680 0
DWIDTH 8 0
BBX 8 16 0 -4
BITMAP
00
02
04
08
00
3E
41
40
3E
01
41
3E
00
00
00
00
ENDCHAR
STARTCHAR char348
ENCODING 348
SWIDTH 7680 0
DWIDTH 8 0
BBX 8 16 0 -4
BITMAP
08
14
22
00
3E
41
40
3E
01
41
41
3E
00
00
00
00
ENDCHAR
STARTCHAR char349
ENCODING 349
SWIDTH 7680 0
DWIDTH 8 0
BBX 8 16 0 -4
BITMAP
00
08
14
22
00
3E
41
40
3E
01
41
3E
00
00
00
00
ENDCHAR
STARTCHAR char350
ENCODING 350
SWIDTH 7680 0
DWIDTH 8 0
BBX 8 16 0 -4
BITMAP
00
00
3E
41
40
40
3E
01
01
41
41
3E
0C
24
18
00
ENDCHAR
STARTCHAR char351
ENCODING 351
SWIDTH 7680 0
DWIDTH 8 0
BBX 8 16 0 -4
BITMAP
00
00
00
00
00
3E
41
40
3E
01
41
3E
0C
24
18
00
ENDCHAR
STARTCHAR char352
ENCODING 352
SWIDTH 7680 0
DWIDTH 8 0
BBX 8 16 0 -4
BITMAP
22
14
08
00
3E
41
40
3E
01
41
41
3E
00
00
00
00
ENDCHAR
STARTCHAR char353
ENCODING 353
SWIDTH 7680 0
DWIDTH 8 0
BBX 8 16 0 -4
BITMAP
00
22
14
08
00
3E
41
40
3E
01
41
3E
00
00
00
00
ENDCHAR
STARTCHAR char354
ENCODING 354
SWIDTH 7680 0
DWIDTH 8 0
BBX 8 16 0 -4
BITMAP
00
00
7F
08
08
08
08
08
08
08
08
0C
24
18
00
00
ENDCHAR
STARTCHAR char355
ENCODING 355
SWIDTH 7680 0
DWIDTH 8 0
BBX 8 16 0 -4
BITMAP
00
00
00
10
10
7E
10
10
10
10
11
0E
24
18
00
00
ENDCHAR
STARTCHAR char356
ENCODING 356
SWIDTH 7680 0
DWIDTH 8 0
BBX 8 16 0 -4
BITMAP
22
14
08
00
7F
08
08
08
08
08
08
08
00
00
00
00
ENDCHAR
STARTCHAR char357
ENCODING 357
SWIDTH 7680 0
DWIDTH 8 0
BBX 8 16 0 -4
BITMAP
11
0A
04
10
10
7E
10
10
10
10
11
0E
00
00
00
00
ENDCHAR
STARTCHAR char358
ENCODING 358
SWIDTH 7680 0
DWIDTH 8 0
BBX 8 16 0 -4
BITMAP
00
00
7F
08
08
3E
08
08
08
08
08
08
00
00
00
00
ENDCHAR
STARTCHAR char359
ENCODING 359
SWIDTH 7680 0
DWIDTH 8 0
BBX 8 16 0 -4
BITMAP
00
00
00
10
10
7E
10
7C
10
10
11
0E
00
00
00
00
ENDCHAR
STARTCHAR char360
ENCODING 360
SWIDTH 7680 0
DWIDTH 8 0
BBX 8 16 0 -4
BITMAP
00
31
4E
00
41
41
41
41
41
41
41
3E
00
00
00
00
ENDCHAR
STARTCHAR char361
ENCODING 361
SWIDTH 7680 0
DWIDTH 8 0
BBX 8 16 0 -4
BITMAP
00
00
32
4C
00
42
42
42
42
42
42
3D
00
00
00
00
ENDCHAR
STARTCHAR char362
ENCODING 362
SWIDTH 7680 0
DWIDTH 8 0
BBX 8 16 0 -4
BITMAP
00
00
3E
00
41
41
41
41
41
41
41
3E
00
00
00
00
ENDCHAR
STARTCHAR char363
ENCODING 363
SWIDTH 7680 0
DWIDTH 8 0
BBX 8 16 0 -4
BITMAP
00
00
00
7E
00
42
42
42
42
42
42
3D
00
00
00
00
ENDCHAR
STARTCHAR char364
ENCODING 364
SWIDTH 7680 0
DWIDTH 8 0
BBX 8 16 0 -4
BITMAP
00
22
1C
00
41
41
41
41
41
41
41
3E
00
00
00
00
ENDCHAR
STARTCHAR char365
ENCODING 365
SWIDTH 7680 0
DWIDTH 8 0
BBX 8 16 0 -4
BITMAP
00
00
22
1C
00
42
42
42
42
42
42
3D
00
00
00
00
ENDCHAR
STARTCHAR char366
ENCODING 366
SWIDTH 7680 0
DWIDTH 8 0
BBX 8 16 0 -4
BITMAP
00
0C
12
0C
41
41
41
41
41
41
41
3E
00
00
00
00
ENDCHAR
STARTCHAR char367
ENCODING 367
SWIDTH 7680 0
DWIDTH 8 0
BBX 8 16 0 -4
BITMAP
00
00
18
24
18
42
42
42
42
42
42
3D
00
00
00
00
ENDCHAR
STARTCHAR char368
ENCODING 368
SWIDTH 7680 0
DWIDTH 8 0
BBX 8 16 0 -4
BITMAP
00
11
22
00
41
41
41
41
41
41
41
3E
00
00
00
00
ENDCHAR
STARTCHAR char369
ENCODING 369
SWIDTH 7680 0
DWIDTH 8 0
BBX 8 16 0 -4
BITMAP
00
00
12
24
00
42
42
42
42
42
42
3D
00
00
00
00
ENDCHAR
STARTCHAR char370
ENCODING 370
SWIDTH 7680 0
DWIDTH 8 0
BBX 8 16 0 -4
BITMAP
00
00
41
41
41
41
41
41
41
41
41
3E
10
18
00
00
ENDCHAR
STARTCHAR char371
ENCODING 371
SWIDTH 7680 0
DWIDTH 8 0
BBX 8 16 0 -4
BITMAP
00
00
00
00
00
42
42
42
42
42
42
3D
08
0C
00
00
ENDCHAR
STARTCHAR char372
ENCODING 372
SWIDTH 7680 0
DWIDTH 8 0
BBX 8 16 0 -4
BITMAP
08
14
22
00
41
41
41
49
49
49
55
22
00
00
00
00
ENDCHAR
STARTCHAR char373
ENCODING 373
SWIDTH 7680 0
DWIDTH 8 0
BBX 8 16 0 -4
BITMAP
00
08
14
22
00
41
41
49
49
49
55
22
00
00
00
00
ENDCHAR
STARTCHAR char374
ENCODING 374
SWIDTH 7680 0
DWIDTH 8 0
BBX 8 16 0 -4
BITMAP
08
14
22
00
41
41
22
14
08
08
08
08
00
00
00
00
ENDCHAR
STARTCHAR char375
ENCODING 375
SWIDTH 7680 0
DWIDTH 8 0
BBX 8 16 0 -4
BITMAP
00
08
14
22
00
42
42
42
42
42
46
3A
02
42
3C
00
ENDCHAR
STARTCHAR char376
ENCODING 376
SWIDTH 7680 0
DWIDTH 8 0
BBX 8 16 0 -4
BITMAP
00
22
22
00
41
41
22
14
08
08
08
08
00
00
00
00
ENDCHAR
STARTCHAR char377
ENCODING 377
SWIDTH 7680 0
DWIDTH 8 0
BBX 8 16 0 -4
BITMAP
02
04
08
00
7F
02
04
08
10
20
40
7F
00
00
00
00
ENDCHAR
STARTCHAR char378
ENCODING 378
SWIDTH 7680 0
DWIDTH 8 0
BBX 8 16 0 -4
BITMAP
00
02
04
08
00
7F
02
04
08
10
20
7F
00
00
00
00
ENDCHAR
STARTCHAR char379
ENCODING 379
SWIDTH 7680 0
DWIDTH 8 0
BBX 8 16 0 -4
BITMAP
00
0C
00
7F
01
02
04
08
10
20
40
7F
00
00
00
00
ENDCHAR
STARTCHAR char380
ENCODING 380
SWIDTH 7680 0
DWIDTH 8 0
BBX 8 16 0 -4
BITMAP
00
00
00
0C
00
7F
02
04
08
10
20
7F
00
00
00
00
ENDCHAR
STARTCHAR char381
ENCODING 381
SWIDTH 7680 0
DWIDTH 8 0
BBX 8 16 0 -4
BITMAP
22
14
08
00
7F
02
04
08
10
20
40
7F
00
00
00
00
ENDCHAR
STARTCHAR char382
ENCODING 382
SWIDTH 7680 0
DWIDTH 8 0
BBX 8 16 0 -4
BITMAP
00
22
14
08
00
7F
02
04
08
10
20
7F
00
00
00
00
ENDCHAR
STARTCHAR char383
ENCODING 383
SWIDTH 7680 0
DWIDTH 8 0
BBX 8 16 0 -4
BITMAP
00
00
0E
11
10
10
30
10
10
10
10
10
00
00
00
00
ENDCHAR
STARTCHAR char384
ENCODING 384
SWIDTH 7680 0
DWIDTH 8 0
BBX 8 16 0 -4
BITMAP
00
00
40
F8
40
5E
61
41
41
41
61
5E
00
00
00
00
ENDCHAR
STARTCHAR char385
ENCODING 385
SWIDTH 7680 0
DWIDTH 8 0
BBX 8 16 0 -4
BITMAP
00
00
7E
91
91
11
1E
11
11
11
11
3E
00
00
00
00
ENDCHAR
STARTCHAR char386
ENCODING 386
SWIDTH 7680 0
DWIDTH 8 0
BBX 8 16 0 -4
BITMAP
00
00
7E
20
20
20
3E
21
21
21
21
7E
00
00
00
00
ENDCHAR
STARTCHAR char387
ENCODING 387
SWIDTH 7680 0
DWIDTH 8 0
BBX 8 16 0 -4
BITMAP
00
00
3E
20
20
20
3C
22
22
22
22
3C
00
00
00
00
ENDCHAR
STARTCHAR char388
ENCODING 388
SWIDTH 7680 0
DWIDTH 8 0
BBX 8 16 0 -4
BITMAP
00
00
20
60
60
20
3E
21
21
21
21
7E
00
00
00
00
ENDCHAR
STARTCHAR char389
ENCODING 389
SWIDTH 7680 0
DWIDTH 8 0
BBX 8 16 0 -4
BITMAP
00
00
20
60
60
20
3C
22
22
22
22
3C
00
00
00
00
ENDCHAR
STARTCHAR char390
ENCODING 390
SWIDTH 7680 0
DWIDTH 8 0
BBX 8 16 0 -4
BITMAP
00
00
3E
41
01
01
01
01
01
01
41
3E
00
00
00
00
ENDCHAR
STARTCHAR char391
ENCODING 391
SWIDTH 7680 0
DWIDTH 8 0
BBX 8 16 0 -4
BITMAP
00
01
BE
42
40
40
40
40
40
40
42
3C
00
00
00
00
ENDCHAR
STARTCHAR char392
ENCODING 392
SWIDTH 7680 0
DWIDTH 8 0
BBX 8 16 0 -4
BITMAP
00
00
00
01
82
3E
41
40
40
40
41
3E
00
00
00
00
ENDCHAR
STARTCHAR char393
ENCODING 393
SWIDTH 7680 0
DWIDTH 8 0
BBX 8 16 0 -4
BITMAP
00
00
7C
42
41
41
E1
41
41
41
42
7C
00
00
00
00
ENDCHAR
STARTCHAR char394
ENCODING 394
SWIDTH 7680 0
DWIDTH 8 0
BBX 8 16 0 -4
BITMAP
00
00
7E
91
91
11
11
11
11
11
11
3E
00
00
00
00
ENDCHAR
STARTCHAR char395
ENCODING 395
SWIDTH 7680 0
DWIDTH 8 0
BBX 8 16 0 -4
BITMAP
00
00
3F
02
02
02
3E
42
42
42
42
3F
00
00
00
00
ENDCHAR
STARTCHAR char396
ENCODING 396
SWIDTH 7680 0
DWIDTH 8 0
BBX 8 16 0 -4
BITMAP
00
00
3E
02
02
02
1E
22
22
22
22
1E
00
00
00
00
ENDCHAR
STARTCHAR char397
ENCODING 397
SWIDTH 7680 0
DWIDTH 8 0
BBX 8 16 0 -4
BITMAP
00
00
00
00
00
3E
41
41
41
41
41
3E
02
41
3E
00
ENDCHAR
STARTCHAR char398
ENCODING 398
SWIDTH 7680 0
DWIDTH 8 0
BBX 8 16 0 -4
BITMAP
00
00
7F
01
01
01
1F
01
01
01
01
7F
00
00
00
00
ENDCHAR
STARTCHAR char399
ENCODING 399
SWIDTH 7680 0
DWIDTH 8 0
BBX 8 16 0 -4
BITMAP
00
00
1C
22
41
01
01
7F
41
41
22
1C
00
00
00
00
ENDCHAR
STARTCHAR char400
ENCODING 400
SWIDTH 7680 0
DWIDTH 8 0
BBX 8 16 0 -4
BITMAP
00
00
3E
41
40
40
38
40
40
40
41
3E
00
00
00
00
ENDCHAR
STARTCHAR char401
ENCODING 401
SWIDTH 7680 0
DWIDTH 8 0
BBX 8 16 0 -4
BITMAP
00
00
3F
20
20
38
20
20
20
20
20
20
20
C0
00
00
ENDCHAR
STARTCHAR char402
ENCODING 402
SWIDTH 7680 0
DWIDTH 8 0
BBX 8 16 0 -4
BITMAP
00
00
0E
11
11
10
10
7C
10
10
10
10
10
60
00
00
ENDCHAR
STARTCHAR char403
ENCODING 403
SWIDTH 7680 0
DWIDTH 8 0
BBX 8 16 0 -4
BITMAP
00
03
02
3E
41
40
40
47
41
41
41
3E
00
00
00
00
ENDCHAR
STARTCHAR char404
ENCODING 404
SWIDTH 7680 0
DWIDTH 8 0
BBX 8 16 0 -4
BITMAP
00
00
41
41
22
22
14
14
08
14
14
08
00
00
00
00
ENDCHAR
STARTCHAR char405
ENCODING 405
SWIDTH 7680 0
DWIDTH 8 0
BBX 8 16 0 -4
BITMAP
00
00
40
40
40
50
69
49
49
49
49
46
00
00
00
00
ENDCHAR
STARTCHAR char406
ENCODING 406
SWIDTH 7680 0
DWIDTH 8 0
BBX 8 16 0 -4
BITMAP
00
00
30
10
10
10
10
10
10
10
12
0C
00
00
00
00
ENDCHAR
STARTCHAR char407
ENCODING 407
SWIDTH 7680 0
DWIDTH 8 0
BBX 8 16 0 -4
BITMAP
00
00
3E
08
08
08
3E
08
08
08
08
3E
00
00
00
00
ENDCHAR
STARTCHAR char408
ENCODING 408
SWIDTH 7680 0
DWIDTH 8 0
BBX 8 16 0 -4
BITMAP
00
00
42
45
49
50
60
50
48
44
42
41
00
00
00
00
ENDCHAR
STARTCHAR char409
ENCODING 409
SWIDTH 7680 0
DWIDTH 8 0
BBX 8 16 0 -4
BITMAP
00
00
30
48
40
41
46
58
60
58
46
41
00
00
00
00
ENDCHAR
STARTCHAR char410
ENCODING 410
SWIDTH 7680 0
DWIDTH 8 0
BBX 8 16 0 -4
BITMAP
00
00
38
08
08
08
3E
08
08
08
08
3E
00
00
00
00
ENDCHAR
STARTCHAR char411
ENCODING 411
SWIDTH 7680 0
DWIDTH 8 0
BBX 8 16 0 -4
BITMAP
00
00
48
30
30
48
08
14
22
22
41
41
00
00
00
00
ENDCHAR
STARTCHAR char412
ENCODING 412
SWIDTH 7680 0
DWIDTH 8 0
BBX 8 16 0 -4
BITMAP
00
00
49
49
49
49
49
49
49
49
49
37
00
00
00
00
ENDCHAR
STARTCHAR char413
ENCODING 413
SWIDTH 7680 0
DWIDTH 8 0
BBX 8 16 0 -4
BITMAP
00
00
41
41
61
51
49
45
43
41
41
41
40
80
00
00
ENDCHAR
STARTCHAR char414
ENCODING 414
SWIDTH 7680 0
DWIDTH 8 0
BBX 8 16 0 -4
BITMAP
00
00
00
00
00
5E
61
41
41
41
41
41
01
01
01
00
ENDCHAR
STARTCHAR char415
ENCODING 415
SWIDTH 7680 0
DWIDTH 8 0
BBX 8 16 0 -4
BITMAP
00
00
3E
41
41
41
7F
41
41
41
41
3E
00
00
00
00
ENDCHAR
STARTCHAR char416
ENCODING 416
SWIDTH 7680 0
DWIDTH 8 0
BBX 8 16 0 -4
BITMAP
00
00
3C
C2
C3
42
42
42
42
42
42
3C
00
00
00
00
ENDCHAR
STARTCHAR char417
ENCODING 417
SWIDTH 7680 0
DWIDTH 8 0
BBX 8 16 0 -4
BITMAP
00
00
00
00
00
3C
C2
C3
42
42
42
3C
00
00
00
00
ENDCHAR
STARTCHAR char418
ENCODING 418
SWIDTH 7680 0
DWIDTH 8 0
BBX 8 16 0 -4
BITMAP
00
00
3A
45
45
45
45
45
45
45
45
39
00
00
00
00
ENDCHAR
STARTCHAR char419
ENCODING 419
SWIDTH 7680 0
DWIDTH 8 0
BBX 8 16 0 -4
BITMAP
00
00
00
00
00
3A
45
45
45
45
45
39
01
01
01
00
ENDCHAR
STARTCHAR char420
ENCODING 420
SWIDTH 7680 0
DWIDTH 8 0
BBX 8 16 0 -4
BITMAP
00
00
7E
91
91
11
1E
10
10
10
10
10
00
00
00
00
ENDCHAR
STARTCHAR char421
ENCODING 421
SWIDTH 7680 0
DWIDTH 8 0
BBX 8 16 0 -4
BITMAP
00
00
30
40
40
5E
61
41
41
41
61
5E
40
40
40
00
ENDCHAR
STARTCHAR char422
ENCODING 422
SWIDTH 7680 0
DWIDTH 8 0
BBX 8 16 0 -4
BITMAP
00
00
70
20
3E
21
21
22
3C
22
22
72
02
01
80
00
ENDCHAR
STARTCHAR char423
ENCODING 423
SWIDTH 7680 0
DWIDTH 8 0
BBX 8 16 0 -4
BITMAP
00
00
3E
41
41
01
0E
30
40
41
41
3E
00
00
00
00
ENDCHAR
STARTCHAR char424
ENCODING 424
SWIDTH 7680 0
DWIDTH 8 0
BBX 8 16 0 -4
BITMAP
00
00
00
00
00
3E
41
01
3E
40
41
3E
00
00
00
00
ENDCHAR
STARTCHAR char425
ENCODING 425
SWIDTH 7680 0
DWIDTH 8 0
BBX 8 16 0 -4
BITMAP
00
00
7F
41
20
10
08
08
10
20
41
7F
00
00
00
00
ENDCHAR
STARTCHAR char426
ENCODING 426
SWIDTH 7680 0
DWIDTH 8 0
BBX 8 16 0 -4
BITMAP
00
00
30
48
48
38
08
08
08
08
08
08
09
06
00
00
ENDCHAR
STARTCHAR char427
ENCODING 427
SWIDTH 7680 0
DWIDTH 8 0
BBX 8 16 0 -4
BITMAP
00
00
00
10
10
7E
10
10
10
10
12
0C
02
0C
00
00
ENDCHAR
STARTCHAR char428
ENCODING 428
SWIDTH 7680 0
DWIDTH 8 0
BBX 8 16 0 -4
BITMAP
00
00
3F
48
48
08
08
08
08
08
08
08
00
00
00
00
ENDCHAR
STARTCHAR char429
ENCODING 429
SWIDTH 7680 0
DWIDTH 8 0
BBX 8 16 0 -4
BITMAP
00
00
0C
10
10
7E
10
10
10
10
11
0E
00
00
00
00
ENDCHAR
STARTCHAR char430
ENCODING 430
SWIDTH 7680 0
DWIDTH 8 0
BBX 8 16 0 -4
BITMAP
00
00
7F
08
08
08
08
08
08
08
08
08
08
06
00
00
ENDCHAR
STARTCHAR char431
ENCODING 431
SWIDTH 7680 0
DWIDTH 8 0
BBX 8 16 0 -4
BITMAP
00
00
42
C2
C3
42
42
42
42
42
42
3C
00
00
00
00
ENDCHAR
STARTCHAR char432
ENCODING 432
SWIDTH 7680 0
DWIDTH 8 0
BBX 8 16 0 -4
BITMAP
00
00
00
00
00
42
C2
C3
42
42
42
3D
00
00
00
00
ENDCHAR
STARTCHAR char433
ENCODING 433
SWIDTH 7680 0
DWIDTH 8 0
BBX 8 16 0 -4
BITMAP
00
00
63
22
22
41
41
41
41
41
22
1C
00
00
00
00
ENDCHAR
STARTCHAR char434
ENCODING 434
SWIDTH 7680 0
DWIDTH 8 0
BBX 8 16 0 -4
BITMAP
00
00
44
42
41
41
41
41
41
41
22
1C
00
00
00
00
ENDCHAR
STARTCHAR char435
ENCODING 435
SWIDTH 7680 0
DWIDTH 8 0
BBX 8 16 0 -4
BITMAP
00
00
01
41
A2
94
08
08
08
08
08
08
00
00
00
00
ENDCHAR
STARTCHAR char436
ENCODING 436
SWIDTH 7680 0
DWIDTH 8 0
BBX 8 16 0 -4
BITMAP
00
00
00
01
82
42
42
42
42
42
46
3A
02
42
3C
00
ENDCHAR
STARTCHAR char437
ENCODING 437
SWIDTH 7680 0
DWIDTH 8 0
BBX 8 16 0 -4
BITMAP
00
00
7F
01
02
04
3E
10
20
40
40
7F
00
00
00
00
ENDCHAR
STARTCHAR char438
ENCODING 438
SWIDTH 7680 0
DWIDTH 8 0
BBX 8 16 0 -4
BITMAP
00
00
00
00
00
7F
02
04
3E
10
20
7F
00
00
00
00
ENDCHAR
STARTCHAR char439
ENCODING 439
SWIDTH 7680 0
DWIDTH 8 0
BBX 8 16 0 -4
BITMAP
00
00
7F
02
04
08
1C
02
01
01
42
3C
00
00
00
00
ENDCHAR
STARTCHAR char440
ENCODING 440
SWIDTH 7680 0
DWIDTH 8 0
BBX 8 16 0 -4
BITMAP
00
00
7F
20
10
08
1C
20
40
40
21
1E
00
00
00
00
ENDCHAR
STARTCHAR char441
ENCODING 441
SWIDTH 7680 0
DWIDTH 8 0
BBX 8 16 0 -4
BITMAP
00
00
00
00
00
7E
20
10
08
1C
20
40
40
22
1C
00
ENDCHAR
STARTCHAR char442
ENCODING 442
SWIDTH 7680 0
DWIDTH 8 0
BBX 8 16 0 -4
BITMAP
00
00
00
00
00
7E
04
08
10
38
04
04
18
22
1C
00
ENDCHAR
STARTCHAR char443
ENCODING 443
SWIDTH 7680 0
DWIDTH 8 0
BBX 8 16 0 -4
BITMAP
00
00
3E
41
41
01
02
3E
10
20
40
7F
00
00
00
00
ENDCHAR
STARTCHAR char444
ENCODING 444
SWIDTH 7680 0
DWIDTH 8 0
BBX 8 16 0 -4
BITMAP
00
00
7F
41
40
5E
61
01
01
01
41
3E
00
00
00
00
ENDCHAR
STARTCHAR char445
ENCODING 445
SWIDTH 7680 0
DWIDTH 8 0
BBX 8 16 0 -4
BITMAP
00
00
00
3E
20
20
2C
32
02
02
22
1C
00
00
00
00
ENDCHAR
STARTCHAR char446
ENCODING 446
SWIDTH 7680 0
DWIDTH 8 0
BBX 8 16 0 -4
BITMAP
00
00
08
08
3E
08
08
04
02
02
22
1C
00
00
00
00
ENDCHAR
STARTCHAR char447
ENCODING 447
SWIDTH 7680 0
DWIDTH 8 0
BBX 8 16 0 -4
BITMAP
00
00
00
00
00
00
2E
31
21
22
24
38
20
20
00
00
ENDCHAR
STARTCHAR char448
ENCODING 448
SWIDTH 7680 0
DWIDTH 8 0
BBX 8 16 0 -4
BITMAP
00
00
08
08
08
08
08
08
08
08
08
08
00
00
00
00
ENDCHAR
STARTCHAR char449
ENCODING 449
SWIDTH 7680 0
DWIDTH 8 0
BBX 8 16 0 -4
BITMAP
00
00
14
14
14
14
14
14
14
14
14
14
00
00
00
00
ENDCHAR
STARTCHAR char450
ENCODING 450
SWIDTH 7680 0
DWIDTH 8 0
BBX 8 16 0 -4
BITMAP
00
00
08
08
08
3E
08
08
3E
08
08
08
00
00
00
00
ENDCHAR
STARTCHAR char451
ENCODING 451
SWIDTH 7680 0
DWIDTH 8 0
BBX 8 16 0 -4
BITMAP
00
00
08
08
08
08
08
08
00
00
08
08
00
00
00
00
ENDCHAR
STARTCHAR char452
ENCODING 452
SWIDTH 7680 0
DWIDTH 8 0
BBX 8 16 0 -4
BITMAP
00
05
02
00
F7
C8
C9
49
4A
4A
4C
F7
80
00
00
00
ENDCHAR
STARTCHAR char453
ENCODING 453
SWIDTH 7680 0
DWIDTH 8 0
BBX 8 16 0 -4
BITMAP
00
00
F2
C9
48
4F
C8
C9
49
4A
4A
F7
80
00
00
00
ENDCHAR
STARTCHAR char454
ENCODING 454
SWIDTH 7680 0
DWIDTH 8 0
BBX 8 16 0 -4
BITMAP
00
00
0A
89
08
6F
98
89
89
8A
9A
6F
80
00
00
00
ENDCHAR
STARTCHAR char455
ENCODING 455
SWIDTH 7680 0
DWIDTH 8 0
BBX 8 16 0 -4
BITMAP
00
00
81
81
81
81
81
81
81
81
89
F6
00
00
00
00
ENDCHAR
STARTCHAR char456
ENCODING 456
SWIDTH 7680 0
DWIDTH 8 0
BBX 8 16 0 -4
BITMAP
00
00
43
40
40
43
41
41
41
41
41
79
01
09
06
00
ENDCHAR
STARTCHAR char457
ENCODING 457
SWIDTH 7680 0
DWIDTH 8 0
BBX 8 16 0 -4
BITMAP
00
00
63
20
20
23
21
21
21
21
21
71
01
09
06
00
ENDCHAR
STARTCHAR char458
ENCODING 458
SWIDTH 7680 0
DWIDTH 8 0
BBX 8 16 0 -4
BITMAP
00
00
88
88
88
C8
A8
A8
98
88
8C
8B
00
00
00
00
ENDCHAR
STARTCHAR char459
ENCODING 459
SWIDTH 7680 0
DWIDTH 8 0
BBX 8 16 0 -4
BITMAP
00
00
8B
88
88
CB
A9
A9
99
89
89
89
01
09
06
00
ENDCHAR
STARTCHAR char460
ENCODING 460
SWIDTH 7680 0
DWIDTH 8 0
BBX 8 16 0 -4
BITMAP
00
00
03
00
00
59
65
45
45
45
45
45
01
09
06
00
ENDCHAR
STARTCHAR char461
ENCODING 461
SWIDTH 7680 0
DWIDTH 8 0
BBX 8 16 0 -4
BITMAP
22
14
08
00
1C
22
41
41
7F
41
41
41
00
00
00
00
ENDCHAR
STARTCHAR char462
ENCODING 462
SWIDTH 7680 0
DWIDTH 8 0
BBX 8 16 0 -4
BITMAP
00
22
14
08
00
3E
01
01
3F
41
43
3D
00
00
00
00
ENDCHAR
STARTCHAR char463
ENCODING 463
SWIDTH 7680 0
DWIDTH 8 0
BBX 8 16 0 -4
BITMAP
22
14
08
00
3E
08
08
08
08
08
08
3E
00
00
00
00
ENDCHAR
STARTCHAR char464
ENCODING 464
SWIDTH 7680 0
DWIDTH 8 0
BBX 8 16 0 -4
BITMAP
00
22
14
08
00
38
08
08
08
08
08
3E
00
00
00
00
ENDCHAR
STARTCHAR char465
ENCODING 465
SWIDTH 7680 0
DWIDTH 8 0
BBX 8 16 0 -4
BITMAP
22
14
08
00
3E
41
41
41
41
41
41
3E
00
00
00
00
ENDCHAR
STARTCHAR char466
ENCODING 466
SWIDTH 7680 0
DWIDTH 8 0
BBX 8 16 0 -4
BITMAP
00
22
14
08
00
3E
41
41
41
41
41
3E
00
00
00
00
ENDCHAR
STARTCHAR char467
ENCODING 467
SWIDTH 7680 0
DWIDTH 8 0
BBX 8 16 0 -4
BITMAP
22
14
08
00
41
41
41
41
41
41
41
3E
00
00
00
00
ENDCHAR
STARTCHAR char468
ENCODING 468
SWIDTH 7680 0
DWIDTH 8 0
BBX 8 16 0 -4
BITMAP
00
22
14
08
00
42
42
42
42
42
42
3D
00
00
00
00
ENDCHAR
STARTCHAR char469
ENCODING 469
SWIDTH 7680 0
DWIDTH 8 0
BBX 8 16 0 -4
BITMAP
00
3E
00
36
00
41
41
41
41
41
41
3E
00
00
00
00
ENDCHAR
STARTCHAR char470
ENCODING 470
SWIDTH 7680 0
DWIDTH 8 0
BBX 8 16 0 -4
BITMAP
00
7E
00
66
00
42
42
42
42
42
42
3D
00
00
00
00
ENDCHAR
STARTCHAR char471
ENCODING 471
SWIDTH 7680 0
DWIDTH 8 0
BBX 8 16 0 -4
BITMAP
04
08
00
36
00
41
41
41
41
41
41
3E
00
00
00
00
ENDCHAR
STARTCHAR char472
ENCODING 472
SWIDTH 7680 0
DWIDTH 8 0
BBX 8 16 0 -4
BITMAP
04
08
00
66
00
42
42
42
42
42
42
3D
00
00
00
00
ENDCHAR
STARTCHAR char473
ENCODING 473
SWIDTH 7680 0
DWIDTH 8 0
BBX 8 16 0 -4
BITMAP
14
08
00
36
00
41
41
41
41
41
41
3E
00
00
00
00
ENDCHAR
STARTCHAR char474
ENCODING 474
SWIDTH 7680 0
DWIDTH 8 0
BBX 8 16 0 -4
BITMAP
24
18
00
66
00
42
42
42
42
42
42
3D
00
00
00
00
ENDCHAR
STARTCHAR char475
ENCODING 475
SWIDTH 7680 0
DWIDTH 8 0
BBX 8 16 0 -4
BITMAP
10
08
00
63
00
41
41
41
41
41
41
3E
00
00
00
00
ENDCHAR
STARTCHAR char476
ENCODING 476
SWIDTH 7680 0
DWIDTH 8 0
BBX 8 16 0 -4
BITMAP
20
10
00
66
00
42
42
42
42
42
42
3D
00
00
00
00
ENDCHAR
STARTCHAR char477
ENCODING 477
SWIDTH 7680 0
DWIDTH 8 0
BBX 8 16 0 -4
BITMAP
00
00
00
00
00
3E
01
01
7F
41
41
3E
00
00
00
00
ENDCHAR
STARTCHAR char478
ENCODING 478
SWIDTH 7680 0
DWIDTH 8 0
BBX 8 16 0 -4
BITMAP
3E
00
36
00
1C
22
41
41
7F
41
41
41
00
00
00
00
ENDCHAR
STARTCHAR char479
ENCODING 479
SWIDTH 7680 0
DWIDTH 8 0
BBX 8 16 0 -4
BITMAP
00
3E
00
36
00
3E
01
01
3F
41
43
3D
00
00
00
00
ENDCHAR
STARTCHAR char480
ENCODING 480
SWIDTH 7680 0
DWIDTH 8 0
BBX 8 16 0 -4
BITMAP
3E
00
18
00
1C
22
41
41
7F
41
41
41
00
00
00
00
ENDCHAR
STARTCHAR char481
ENCODING 481
SWIDTH 7680 0
DWIDTH 8 0
BBX 8 16 0 -4
BITMAP
00
3E
00
0C
00
3E
01
01
3F
41
43
3D
00
00
00
00
ENDCHAR
STARTCHAR char482
ENCODING 482
SWIDTH 7680 0
DWIDTH 8 0
BBX 8 16 0 -4
BITMAP
00
3E
00
3F
48
48
48
7E
48
48
48
4F
00
00
00
00
ENDCHAR
STARTCHAR char483
ENCODING 483
SWIDTH 7680 0
DWIDTH 8 0
BBX 8 16 0 -4
BITMAP
00
00
00
3E
00
36
49
09
3E
48
49
37
00
00
00
00
ENDCHAR
STARTCHAR char484
ENCODING 484
SWIDTH 7680 0
DWIDTH 8 0
BBX 8 16 0 -4
BITMAP
00
00
3E
41
40
40
40
47
41
4F
C1
3E
00
00
00
00
ENDCHAR
STARTCHAR char485
ENCODING 485
SWIDTH 7680 0
DWIDTH 8 0
BBX 8 16 0 -4
BITMAP
00
00
00
00
00
3D
42
42
42
42
42
3E
02
FF
BC
00
ENDCHAR
STARTCHAR char486
ENCODING 486
SWIDTH 7680 0
DWIDTH 8 0
BBX 8 16 0 -4
BITMAP
22
14
08
00
3E
41
40
40
47
41
41
3E
00
00
00
00
ENDCHAR
STARTCHAR char487
ENCODING 487
SWIDTH 7680 0
DWIDTH 8 0
BBX 8 16 0 -4
BITMAP
00
22
14
08
00
3D
42
42
42
3C
40
3E
41
41
3E
00
ENDCHAR
STARTCHAR char488
ENCODING 488
SWIDTH 7680 0
DWIDTH 8 0
BBX 8 16 0 -4
BITMAP
22
14
08
00
41
42
44
78
48
44
42
41
00
00
00
00
ENDCHAR
STARTCHAR char489
ENCODING 489
SWIDTH 7680 0
DWIDTH 8 0
BBX 8 16 0 -4
BITMAP
22
14
48
40
40
41
46
58
60
58
46
41
00
00
00
00
ENDCHAR
STARTCHAR char490
ENCODING 490
SWIDTH 7680 0
DWIDTH 8 0
BBX 8 16 0 -4
BITMAP
00
00
3E
41
41
41
41
41
41
41
41
3E
10
18
00
00
ENDCHAR
STARTCHAR char491
ENCODING 491
SWIDTH 7680 0
DWIDTH 8 0
BBX 8 16 0 -4
BITMAP
00
00
00
00
00
3E
41
41
41
41
41
3E
10
18
00
00
ENDCHAR
STARTCHAR char492
ENCODING 492
SWIDTH 7680 0
DWIDTH 8 0
BBX 8 16 0 -4
BITMAP
00
00
3E
00
3E
41
41
41
41
41
41
3E
10
18
00
00
ENDCHAR
STARTCHAR char493
ENCODING 493
SWIDTH 7680 0
DWIDTH 8 0
BBX 8 16 0 -4
BITMAP
00
00
00
3E
00
3E
41
41
41
41
41
3E
10
18
00
00
ENDCHAR
STARTCHAR char494
ENCODING 494
SWIDTH 7680 0
DWIDTH 8 0
BBX 8 16 0 -4
BITMAP
22
14
08
7F
02
04
08
1C
02
01
42
3C
00
00
00
00
ENDCHAR
STARTCHAR char495
ENCODING 495
SWIDTH 7680 0
DWIDTH 8 0
BBX 8 16 0 -4
BITMAP
00
22
14
08
00
3F
02
04
08
1C
02
01
01
22
1C
00
ENDCHAR
STARTCHAR char496
ENCODING 496
SWIDTH 7680 0
DWIDTH 8 0
BBX 8 16 0 -4
BITMAP
00
11
0A
04
00
0E
02
02
02
02
02
42
42
42
3C
00
ENDCHAR
STARTCHAR char497
ENCODING 497
SWIDTH 7680 0
DWIDTH 8 0
BBX 8 16 0 -4
BITMAP
00
00
F7
C8
C8
C9
49
4A
4A
4C
4C
F7
80
00
00
00
ENDCHAR
STARTCHAR char498
ENCODING 498
SWIDTH 7680 0
DWIDTH 8 0
BBX 8 16 0 -4
BITMAP
00
00
F0
48
48
4F
C8
C9
49
4A
4A
F7
80
00
00
00
ENDCHAR
STARTCHAR char499
ENCODING 499
SWIDTH 7680 0
DWIDTH 8 0
BBX 8 16 0 -4
BITMAP
00
00
08
08
08
6F
98
89
89
8A
9A
6F
80
00
00
00
ENDCHAR
STARTCHAR char500
ENCODING 500
SWIDTH 7680 0
DWIDTH 8 0
BBX 8 16 0 -4
BITMAP
02
04
08
00
3E
41
40
40
47
41
41
3E
00
00
00
00
ENDCHAR
STARTCHAR char501
ENCODING 501
SWIDTH 7680 0
DWIDTH 8 0
BBX 8 16 0 -4
BITMAP
00
02
04
08
00
3D
42
42
42
3C
40
3E
41
41
3E
00
ENDCHAR
STARTCHAR char502
ENCODING 502
SWIDTH 7680 0
DWIDTH 8 0
BBX 8 16 0 -4
BITMAP
00
00
48
48
48
49
79
49
49
49
49
46
00
00
00
00
ENDCHAR
STARTCHAR char503
ENCODING 503
SWIDTH 7680 0
DWIDTH 8 0
BBX 8 16 0 -4
BITMAP
00
00
5E
61
41
41
41
46
58
60
40
40
40
40
00
00
ENDCHAR
STARTCHAR char504
ENCODING 504
SWIDTH 7680 0
DWIDTH 8 0
BBX 8 16 0 -4
BITMAP
00
20
10
08
41
41
61
51
49
45
43
41
00
00
00
00
ENDCHAR
STARTCHAR char505
ENCODING 505
SWIDTH 7680 0
DWIDTH 8 0
BBX 8 16 0 -4
BITMAP
00
20
10
08
00
5E
61
41
41
41
41
41
00
00
00
00
ENDCHAR
STARTCHAR char506
ENCODING 506
SWIDTH 7680 0
DWIDTH 8 0
BBX 8 16 0 -4
BITMAP
04
08
00
1C
22
1C
14
22
41
7F
41
41
00
00
00
00
ENDCHAR
STARTCHAR char507
ENCODING 507
SWIDTH 7680 0
DWIDTH 8 0
BBX 8 16 0 -4
BITMAP
04
08
00
0C
12
0C
3E
01
3F
41
43
3D
00
00
00
00
ENDCHAR
STARTCHAR char508
ENCODING 508
SWIDTH 7680 0
DWIDTH 8 0
BBX 8 16 0 -4
BITMAP
02
04
08
00
3F
48
48
7E
48
48
48
4F
00
00
00
00
ENDCHAR
STARTCHAR char509
ENCODING 509
SWIDTH 7680 0
DWIDTH 8 0
BBX 8 16 0 -4
BITMAP
00
02
04
08
00
36
49
09
3E
48
49
37
00
00
00
00
ENDCHAR
STARTCHAR char510
ENCODING 510
SWIDTH 7680 0
DWIDTH 8 0
BBX 8 16 0 -4
BITMAP
02
04
08
01
3E
43
45
49
49
51
61
3E
40
00
00
00
ENDCHAR
STARTCHAR char511
ENCODING 511
SWIDTH 7680 0
DWIDTH 8 0
BBX 8 16 0 -4
BITMAP
00
02
04
08
01
3E
45
45
49
51
51
3E
40
00
00
00
ENDCHAR
STARTCHAR char512
ENCODING 512
SWIDTH 7680 0
DWIDTH 8 0
BBX 8 16 0 -4
BITMAP
00
24
12
00
1C
22
41
41
7F
41
41
41
00
00
00
00
ENDCHAR
STARTCHAR char513
ENCODING 513
SWIDTH 7680 0
DWIDTH 8 0
BBX 8 16 0 -4
BITMAP
00
00
24
12
00
3E
01
01
3F
41
43
3D
00
00
00
00
ENDCHAR
STARTCHAR char514
ENCODING 514
SWIDTH 7680 0
DWIDTH 8 0
BBX 8 16 0 -4
BITMAP
00
1C
22
00
1C
22
41
41
7F
41
41
41
00
00
00
00
ENDCHAR
STARTCHAR char515
ENCODING 515
SWIDTH 7680 0
DWIDTH 8 0
BBX 8 16 0 -4
BITMAP
00
00
1C
22
00
3E
01
01
3F
41
43
3D
00
00
00
00
ENDCHAR
STARTCHAR char516
ENCODING 516
SWIDTH 7680 0
DWIDTH 8 0
BBX 8 16 0 -4
BITMAP
00
24
12
00
7F
40
40
7C
40
40
40
7F
00
00
00
00
ENDCHAR
STARTCHAR char517
ENCODING 517
SWIDTH 7680 0
DWIDTH 8 0
BBX 8 16 0 -4
BITMAP
00
00
24
12
00
3E
41
41
7F
40
40
3E
00
00
00
00
ENDCHAR
STARTCHAR char518
ENCODING 518
SWIDTH 7680 0
DWIDTH 8 0
BBX 8 16 0 -4
BITMAP
00
1C
22
00
7F
40
40
7C
40
40
40
7F
00
00
00
00
ENDCHAR
STARTCHAR char519
ENCODING 519
SWIDTH 7680 0
DWIDTH 8 0
BBX 8 16 0 -4
BITMAP
00
00
1C
22
00
3E
41
41
7F
40
40
3E
00
00
00
00
ENDCHAR
STARTCHAR char520
ENCODING 520
SWIDTH 7680 0
DWIDTH 8 0
BBX 8 16 0 -4
BITMAP
00
24
12
00
3E
08
08
08
08
08
08
3E
00
00
00
00
ENDCHAR
STARTCHAR char521
ENCODING 521
SWIDTH 7680 0
DWIDTH 8 0
BBX 8 16 0 -4
BITMAP
00
48
24
00
38
08
08
08
08
08
08
3E
00
00
00
00
ENDCHAR
STARTCHAR char522
ENCODING 522
SWIDTH 7680 0
DWIDTH 8 0
BBX 8 16 0 -4
BITMAP
00
1C
22
00
3E
08
08
08
08
08
08
3E
00
00
00
00
ENDCHAR
STARTCHAR char523
ENCODING 523
SWIDTH 7680 0
DWIDTH 8 0
BBX 8 16 0 -4
BITMAP
00
38
44
00
38
08
08
08
08
08
08
3E
00
00
00
00
ENDCHAR
STARTCHAR char524
ENCODING 524
SWIDTH 7680 0
DWIDTH 8 0
BBX 8 16 0 -4
BITMAP
00
24
12
00
3E
41
41
41
41
41
41
3E
00
00
00
00
ENDCHAR
STARTCHAR char525
ENCODING 525
SWIDTH 7680 0
DWIDTH 8 0
BBX 8 16 0 -4
BITMAP
00
00
24
12
00
3E
41
41
41
41
41
3E
00
00
00
00
ENDCHAR
STARTCHAR char526
ENCODING 526
SWIDTH 7680 0
DWIDTH 8 0
BBX 8 16 0 -4
BITMAP
00
1C
22
00
3E
41
41
41
41
41
41
3E
00
00
00
00
ENDCHAR
STARTCHAR char527
ENCODING 527
SWIDTH 7680 0
DWIDTH 8 0
BBX 8 16 0 -4
BITMAP
00
00
1C
22
00
3E
41
41
41
41
41
3E
00
00
00
00
ENDCHAR
STARTCHAR char528
ENCODING 528
SWIDTH 7680 0
DWIDTH 8 0
BBX 8 16 0 -4
BITMAP
00
24
12
00
7E
41
41
41
7E
42
41
41
00
00
00
00
ENDCHAR
STARTCHAR char529
ENCODING 529
SWIDTH 7680 0
DWIDTH 8 0
BBX 8 16 0 -4
BITMAP
00
00
24
12
00
4E
31
21
20
20
20
20
00
00
00
00
ENDCHAR
STARTCHAR char530
ENCODING 530
SWIDTH 7680 0
DWIDTH 8 0
BBX 8 16 0 -4
BITMAP
00
1C
22
00
7E
41
41
41
7E
42
41
41
00
00
00
00
ENDCHAR
STARTCHAR char531
ENCODING 531
SWIDTH 7680 0
DWIDTH 8 0
BBX 8 16 0 -4
BITMAP
00
00
1C
22
00
4E
31
21
20
20
20
20
00
00
00
00
ENDCHAR
STARTCHAR char532
ENCODING 532
SWIDTH 7680 0
DWIDTH 8 0
BBX 8 16 0 -4
BITMAP
00
24
12
00
41
41
41
41
41
41
41
3E
00
00
00
00
ENDCHAR
STARTCHAR char533
ENCODING 533
SWIDTH 7680 0
DWIDTH 8 0
BBX 8 16 0 -4
BITMAP
00
00
48
24
00
42
42
42
42
42
42
3D
00
00
00
00
ENDCHAR
STARTCHAR char534
ENCODING 534
SWIDTH 7680 0
DWIDTH 8 0
BBX 8 16 0 -4
BITMAP
00
1C
22
00
41
41
41
41
41
41
41
3E
00
00
00
00
ENDCHAR
STARTCHAR char535
ENCODING 535
SWIDTH 7680 0
DWIDTH 8 0
BBX 8 16 0 -4
BITMAP
00
00
1C
22
00
42
42
42
42
42
42
3D
00
00
00
00
ENDCHAR
STARTCHAR char536
ENCODING 536
SWIDTH 7680 0
DWIDTH 8 0
BBX 8 16 0 -4
BITMAP
00
00
3E
41
41
40
38
06
01
41
41
3E
0C
04
08
00
ENDCHAR
STARTCHAR char537
ENCODING 537
SWIDTH 7680 0
DWIDTH 8 0
BBX 8 16 0 -4
BITMAP
00
00
00
00
00
3E
41
40
3E
01
41
3E
0C
04
08
00
ENDCHAR
STARTCHAR char538
ENCODING 538
SWIDTH 7680 0
DWIDTH 8 0
BBX 8 16 0 -4
BITMAP
00
00
7F
08
08
08
08
08
08
08
08
08
0C
04
08
00
ENDCHAR
STARTCHAR char539
ENCODING 539
SWIDTH 7680 0
DWIDTH 8 0
BBX 8 16 0 -4
BITMAP
00
00
00
10
10
7E
10
10
10
10
11
0E
0C
04
08
00
ENDCHAR
STARTCHAR char540
ENCODING 540
SWIDTH 7680 0
DWIDTH 8 0
BBX 8 16 0 -4
BITMAP
00
00
5E
61
01
02
0C
32
01
01
06
78
00
00
00
00
ENDCHAR
STARTCHAR char541
ENCODING 541
SWIDTH 7680 0
DWIDTH 8 0
BBX 8 16 0 -4
BITMAP
00
00
00
00
00
2E
31
01
02
0C
32
01
01
06
38
00
ENDCHAR
STARTCHAR char542
ENCODING 542
SWIDTH 7680 0
DWIDTH 8 0
BBX 8 16 0 -4
BITMAP
22
14
08
41
41
41
41
7F
41
41
41
41
00
00
00
00
ENDCHAR
STARTCHAR char543
ENCODING 543
SWIDTH 7680 0
DWIDTH 8 0
BBX 8 16 0 -4
BITMAP
22
14
48
40
40
5E
61
41
41
41
41
41
00
00
00
00
ENDCHAR
STARTCHAR char544
ENCODING 544
SWIDTH 7680 0
DWIDTH 8 0
BBX 8 16 0 -4
BITMAP
00
00
5E
61
41
41
41
41
41
41
41
41
01
01
01
00
ENDCHAR
STARTCHAR char546
ENCODING 546
SWIDTH 7680 0
DWIDTH 8 0
BBX 8 16 0 -4
BITMAP
00
00
22
41
41
41
3E
41
41
41
41
3E
00
00
00
00
ENDCHAR
STARTCHAR char547
ENCODING 547
SWIDTH 7680 0
DWIDTH 8 0
BBX 8 16 0 -4
BITMAP
00
00
00
12
21
21
21
1E
21
21
21
1E
00
00
00
00
ENDCHAR
STARTCHAR char548
ENCODING 548
SWIDTH 7680 0
DWIDTH 8 0
BBX 8 16 0 -4
BITMAP
00
00
7F
01
02
04
08
10
20
40
40
7F
01
06
00
00
ENDCHAR
STARTCHAR char549
ENCODING 549
SWIDTH 7680 0
DWIDTH 8 0
BBX 8 16 0 -4
BITMAP
00
00
00
00
00
7F
02
04
08
10
20
7F
01
06
00
00
ENDCHAR
STARTCHAR char550
ENCODING 550
SWIDTH 7680 0
DWIDTH 8 0
BBX 8 16 0 -4
BITMAP
00
08
00
1C
22
41
41
41
7F
41
41
41
00
00
00
00
ENDCHAR
STARTCHAR char551
ENCODING 551
SWIDTH 7680 0
DWIDTH 8 0
BBX 8 16 0 -4
BITMAP
00
00
00
08
00
3E
01
01
3F
41
43
3D
00
00
00
00
ENDCHAR
STARTCHAR char552
ENCODING 552
SWIDTH 7680 0
DWIDTH 8 0
BBX 8 16 0 -4
BITMAP
00
00
7F
40
40
40
7C
40
40
40
40
7F
08
24
18
00
ENDCHAR
STARTCHAR char553
ENCODING 553
SWIDTH 7680 0
DWIDTH 8 0
BBX 8 16 0 -4
BITMAP
00
00
00
00
00
3E
41
41
7F
40
40
3E
08
24
18
00
ENDCHAR
STARTCHAR char554
ENCODING 554
SWIDTH 7680 0
DWIDTH 8 0
BBX 8 16 0 -4
BITMAP
3E
00
14
00
3E
41
41
41
41
41
41
3E
00
00
00
00
ENDCHAR
STARTCHAR char555
ENCODING 555
SWIDTH 7680 0
DWIDTH 8 0
BBX 8 16 0 -4
BITMAP
00
7E
00
24
00
3C
42
42
42
42
42
3C
00
00
00
00
ENDCHAR
STARTCHAR char556
ENCODING 556
SWIDTH 7680 0
DWIDTH 8 0
BBX 8 16 0 -4
BITMAP
3E
1A
2C
00
3E
41
41
41
41
41
41
3E
00
00
00
00
ENDCHAR
STARTCHAR char557
ENCODING 557
SWIDTH 7680 0
DWIDTH 8 0
BBX 8 16 0 -4
BITMAP
7E
00
14
28
00
3C
42
42
42
42
42
3C
00
00
00
00
ENDCHAR
STARTCHAR char558
ENCODING 558
SWIDTH 7680 0
DWIDTH 8 0
BBX 8 16 0 -4
BITMAP
08
00
3E
41
41
41
41
41
41
41
41
3E
00
00
00
00
ENDCHAR
STARTCHAR char559
ENCODING 559
SWIDTH 7680 0
DWIDTH 8 0
BBX 8 16 0 -4
BITMAP
00
00
00
08
00
3E
41
41
41
41
41
3E
00
00
00
00
ENDCHAR
STARTCHAR char560
ENCODING 560
SWIDTH 7680 0
DWIDTH 8 0
BBX 8 16 0 -4
BITMAP
3E
00
08
00
3E
41
41
41
41
41
41
3E
00
00
00
00
ENDCHAR
STARTCHAR char561
ENCODING 561
SWIDTH 7680 0
DWIDTH 8 0
BBX 8 16 0 -4
BITMAP
00
3E
00
08
00
3E
41
41
41
41
41
3E
00
00
00
00
ENDCHAR
STARTCHAR char562
ENCODING 562
SWIDTH 7680 0
DWIDTH 8 0
BBX 8 16 0 -4
BITMAP
00
3E
00
41
41
22
14
08
08
08
08
08
00
00
00
00
ENDCHAR
STARTCHAR char563
ENCODING 563
SWIDTH 7680 0
DWIDTH 8 0
BBX 8 16 0 -4
BITMAP
00
00
00
3C
00
42
42
42
42
42
46
3A
02
42
3C
00
ENDCHAR
STARTCHAR char592
ENCODING 592
SWIDTH 7680 0
DWIDTH 8 0
BBX 8 16 0 -4
BITMAP
00
00
00
00
00
5E
61
41
7E
40
40
3E
00
00
00
00
ENDCHAR
STARTCHAR char593
ENCODING 593
SWIDTH 7680 0
DWIDTH 8 0
BBX 8 16 0 -4
BITMAP
00
00
00
00
00
3D
43
41
41
41
43
3D
00
00
00
00
ENDCHAR
STARTCHAR char594
ENCODING 594
SWIDTH 7680 0
DWIDTH 8 0
BBX 8 16 0 -4
BITMAP
00
00
00
00
00
5E
61
41
41
41
61
5E
00
00
00
00
ENDCHAR
STARTCHAR char595
ENCODING 595
SWIDTH 7680 0
DWIDTH 8 0
BBX 8 16 0 -4
BITMAP
00
38
44
40
40
5E
61
41
41
41
61
5E
00
00
00
00
ENDCHAR
STARTCHAR char596
ENCODING 596
SWIDTH 7680 0
DWIDTH 8 0
BBX 8 16 0 -4
BITMAP
00
00
00
00
00
3E
41
01
01
01
41
3E
00
00
00
00
ENDCHAR
STARTCHAR char597
ENCODING 597
SWIDTH 7680 0
DWIDTH 8 0
BBX 8 16 0 -4
BITMAP
00
00
00
00
00
3E
41
40
40
46
49
3E
10
00
00
00
ENDCHAR
STARTCHAR char598
ENCODING 598
SWIDTH 7680 0
DWIDTH 8 0
BBX 8 16 0 -4
BITMAP
00
00
02
02
02
3A
46
42
42
42
46
3A
01
80
00
00
ENDCHAR
STARTCHAR char599
ENCODING 599
SWIDTH 7680 0
DWIDTH 8 0
BBX 8 16 0 -4
BITMAP
00
00
01
82
02
3A
46
42
42
42
46
3A
00
00
00
00
ENDCHAR
STARTCHAR char600
ENCODING 600
SWIDTH 7680 0
DWIDTH 8 0
BBX 8 16 0 -4
BITMAP
00
00
00
00
00
3E
41
41
7F
01
01
3E
00
00
00
00
ENDCHAR
STARTCHAR char601
ENCODING 601
SWIDTH 7680 0
DWIDTH 8 0
BBX 8 16 0 -4
BITMAP
00
00
00
00
00
3E
01
01
7F
41
41
3E
00
00
00
00
ENDCHAR
STARTCHAR char602
ENCODING 602
SWIDTH 7680 0
DWIDTH 8 0
BBX 8 16 0 -4
BITMAP
00
00
00
00
00
38
06
05
7C
44
44
38
00
00
00
00
ENDCHAR
STARTCHAR char603
ENCODING 603
SWIDTH 7680 0
DWIDTH 8 0
BBX 8 16 0 -4
BITMAP
00
00
00
00
00
3E
41
40
3C
40
41
3E
00
00
00
00
ENDCHAR
STARTCHAR char604
ENCODING 604
SWIDTH 7680 0
DWIDTH 8 0
BBX 8 16 0 -4
BITMAP
00
00
00
00
00
3E
41
01
1E
01
41
3E
00
00
00
00
ENDCHAR
STARTCHAR char605
ENCODING 605
SWIDTH 7680 0
DWIDTH 8 0
BBX 8 16 0 -4
BITMAP
00
00
00
00
00
3A
45
04
38
04
44
38
00
00
00
00
ENDCHAR
STARTCHAR char606
ENCODING 606
SWIDTH 7680 0
DWIDTH 8 0
BBX 8 16 0 -4
BITMAP
00
00
00
00
00
3E
41
41
5E
41
41
3E
00
00
00
00
ENDCHAR
STARTCHAR char607
ENCODING 607
SWIDTH 7680 0
DWIDTH 8 0
BBX 8 16 0 -4
BITMAP
00
00
00
00
00
04
04
04
04
1F
04
04
44
44
38
00
ENDCHAR
STARTCHAR char608
ENCODING 608
SWIDTH 7680 0
DWIDTH 8 0
BBX 8 16 0 -4
BITMAP
00
00
01
02
02
3E
42
42
42
42
46
3A
02
42
3C
00
ENDCHAR
STARTCHAR char609
ENCODING 609
SWIDTH 7680 0
DWIDTH 8 0
BBX 8 16 0 -4
BITMAP
00
00
00
00
00
3C
42
42
42
42
46
3A
02
42
3C
00
ENDCHAR
STARTCHAR char610
ENCODING 610
SWIDTH 7680 0
DWIDTH 8 0
BBX 8 16 0 -4
BITMAP
00
00
00
00
00
3E
41
40
47
41
41
3E
00
00
00
00
ENDCHAR
STARTCHAR char611
ENCODING 611
SWIDTH 7680 0
DWIDTH 8 0
BBX 8 16 0 -4
BITMAP
00
00
00
00
00
41
41
22
14
14
08
08
14
08
00
00
ENDCHAR
STARTCHAR char612
ENCODING 612
SWIDTH 7680 0
DWIDTH 8 0
BBX 8 16 0 -4
BITMAP
00
00
00
00
00
22
55
14
08
14
14
08
00
00
00
00
ENDCHAR
STARTCHAR char613
ENCODING 613
SWIDTH 7680 0
DWIDTH 8 0
BBX 8 16 0 -4
BITMAP
00
00
00
00
00
41
41
41
41
41
43
3D
01
01
01
00
ENDCHAR
STARTCHAR char614
ENCODING 614
SWIDTH 7680 0
DWIDTH 8 0
BBX 8 16 0 -4
BITMAP
00
00
30
40
40
5E
61
41
41
41
41
41
00
00
00
00
ENDCHAR
STARTCHAR char615
ENCODING 615
SWIDTH 7680 0
DWIDTH 8 0
BBX 8 16 0 -4
BITMAP
00
00
30
40
40
5E
61
41
41
41
41
41
09
06
00
00
ENDCHAR
STARTCHAR char616
ENCODING 616
SWIDTH 7680 0
DWIDTH 8 0
BBX 8 16 0 -4
BITMAP
00
00
18
00
00
38
08
08
1C
08
08
3E
00
00
00
00
ENDCHAR
STARTCHAR char617
ENCODING 617
SWIDTH 7680 0
DWIDTH 8 0
BBX 8 16 0 -4
BITMAP
00
00
00
00
00
18
08
08
08
08
0A
04
00
00
00
00
ENDCHAR
STARTCHAR char618
ENCODING 618
SWIDTH 7680 0
DWIDTH 8 0
BBX 8 16 0 -4
BITMAP
00
00
00
00
00
3E
08
08
08
08
08
3E
00
00
00
00
ENDCHAR
STARTCHAR char619
ENCODING 619
SWIDTH 7680 0
DWIDTH 8 0
BBX 8 16 0 -4
BITMAP
00
00
38
08
08
08
1A
2C
08
08
08
3E
00
00
00
00
ENDCHAR
STARTCHAR char620
ENCODING 620
SWIDTH 7680 0
DWIDTH 8 0
BBX 8 16 0 -4
BITMAP
00
00
38
08
08
18
28
1E
08
08
08
3E
00
00
00
00
ENDCHAR
STARTCHAR char621
ENCODING 621
SWIDTH 7680 0
DWIDTH 8 0
BBX 8 16 0 -4
BITMAP
00
00
38
08
08
08
08
08
08
08
08
08
09
06
00
00
ENDCHAR
STARTCHAR char622
ENCODING 622
SWIDTH 7680 0
DWIDTH 8 0
BBX 8 16 0 -4
BITMAP
00
00
60
20
20
2F
21
22
26
21
21
71
0E
00
00
00
ENDCHAR
STARTCHAR char623
ENCODING 623
SWIDTH 7680 0
DWIDTH 8 0
BBX 8 16 0 -4
BITMAP
00
00
00
00
00
41
49
49
49
49
49
37
00
00
00
00
ENDCHAR
STARTCHAR char624
ENCODING 624
SWIDTH 7680 0
DWIDTH 8 0
BBX 8 16 0 -4
BITMAP
00
00
00
00
00
41
49
49
49
49
49
37
01
01
00
00
ENDCHAR
STARTCHAR char625
ENCODING 625
SWIDTH 7680 0
DWIDTH 8 0
BBX 8 16 0 -4
BITMAP
00
00
00
00
00
76
49
49
49
49
49
41
09
06
00
00
ENDCHAR
STARTCHAR char626
ENCODING 626
SWIDTH 7680 0
DWIDTH 8 0
BBX 8 16 0 -4
BITMAP
00
00
00
00
00
5E
61
41
41
41
41
41
40
80
00
00
ENDCHAR
STARTCHAR char627
ENCODING 627
SWIDTH 7680 0
DWIDTH 8 0
BBX 8 16 0 -4
BITMAP
00
00
00
00
00
5C
62
42
42
42
42
42
02
81
00
00
ENDCHAR
STARTCHAR char628
ENCODING 628
SWIDTH 7680 0
DWIDTH 8 0
BBX 8 16 0 -4
BITMAP
00
00
00
00
00
41
61
51
49
45
43
41
00
00
00
00
ENDCHAR
STARTCHAR char629
ENCODING 629
SWIDTH 7680 0
DWIDTH 8 0
BBX 8 16 0 -4
BITMAP
00
00
00
00
00
3E
41
41
7F
41
41
3E
00
00
00
00
ENDCHAR
STARTCHAR char630
ENCODING 630
SWIDTH 7680 0
DWIDTH 8 0
BBX 8 16 0 -4
BITMAP
00
00
00
00
00
3F
48
48
4E
48
48
3F
00
00
00
00
ENDCHAR
STARTCHAR char631
ENCODING 631
SWIDTH 7680 0
DWIDTH 8 0
BBX 8 16 0 -4
BITMAP
00
00
00
00
3E
41
49
49
49
49
49
36
00
00
00
00
ENDCHAR
STARTCHAR char632
ENCODING 632
SWIDTH 7680 0
DWIDTH 8 0
BBX 8 16 0 -4
BITMAP
00
00
08
08
08
3E
49
49
49
49
3E
08
08
08
00
00
ENDCHAR
STARTCHAR char633
ENCODING 633
SWIDTH 7680 0
DWIDTH 8 0
BBX 8 16 0 -4
BITMAP
00
00
00
00
00
02
02
02
02
42
46
39
00
00
00
00
ENDCHAR
STARTCHAR char634
ENCODING 634
SWIDTH 7680 0
DWIDTH 8 0
BBX 8 16 0 -4
BITMAP
00
00
02
02
02
02
02
02
02
42
46
39
00
00
00
00
ENDCHAR
STARTCHAR char635
ENCODING 635
SWIDTH 7680 0
DWIDTH 8 0
BBX 8 16 0 -4
BITMAP
00
00
00
00
00
02
02
02
02
42
46
3A
02
01
80
00
ENDCHAR
STARTCHAR char636
ENCODING 636
SWIDTH 7680 0
DWIDTH 8 0
BBX 8 16 0 -4
BITMAP
00
00
00
00
00
4E
31
21
20
20
20
20
20
20
20
00
ENDCHAR
STARTCHAR char637
ENCODING 637
SWIDTH 7680 0
DWIDTH 8 0
BBX 8 16 0 -4
BITMAP
00
00
00
00
00
4E
31
21
20
20
20
20
24
18
00
00
ENDCHAR
STARTCHAR char638
ENCODING 638
SWIDTH 7680 0
DWIDTH 8 0
BBX 8 16 0 -4
BITMAP
00
00
00
00
00
0E
11
21
20
20
20
20
00
00
00
00
ENDCHAR
STARTCHAR char639
ENCODING 639
SWIDTH 7680 0
DWIDTH 8 0
BBX 8 16 0 -4
BITMAP
00
00
00
00
00
1C
22
21
01
01
01
01
00
00
00
00
ENDCHAR
STARTCHAR char640
ENCODING 640
SWIDTH 7680 0
DWIDTH 8 0
BBX 8 16 0 -4
BITMAP
00
00
00
00
00
7E
41
41
7E
41
41
41
00
00
00
00
ENDCHAR
STARTCHAR char641
ENCODING 641
SWIDTH 7680 0
DWIDTH 8 0
BBX 8 16 0 -4
BITMAP
00
00
00
00
00
41
41
41
7E
41
41
7E
00
00
00
00
ENDCHAR
STARTCHAR char642
ENCODING 642
SWIDTH 7680 0
DWIDTH 8 0
BBX 8 16 0 -4
BITMAP
00
00
00
00
00
3E
41
40
3E
01
41
7E
40
38
00
00
ENDCHAR
STARTCHAR char643
ENCODING 643
SWIDTH 7680 0
DWIDTH 8 0
BBX 8 16 0 -4
BITMAP
00
00
06
09
08
08
08
08
08
08
08
08
48
30
00
00
ENDCHAR
STARTCHAR char644
ENCODING 644
SWIDTH 7680 0
DWIDTH 8 0
BBX 8 16 0 -4
BITMAP
00
00
03
04
04
04
04
04
04
1F
04
04
44
44
38
00
ENDCHAR
STARTCHAR char645
ENCODING 645
SWIDTH 7680 0
DWIDTH 8 0
BBX 8 16 0 -4
BITMAP
00
00
00
00
00
30
48
08
08
08
08
08
09
06
00
00
ENDCHAR
STARTCHAR char646
ENCODING 646
SWIDTH 7680 0
DWIDTH 8 0
BBX 8 16 0 -4
BITMAP
00
00
06
09
08
08
08
08
08
08
08
38
4C
32
00
00
ENDCHAR
STARTCHAR char647
ENCODING 647
SWIDTH 7680 0
DWIDTH 8 0
BBX 8 16 0 -4
BITMAP
00
00
00
00
00
38
44
04
04
04
04
3F
04
04
00
00
ENDCHAR
STARTCHAR char648
ENCODING 648
SWIDTH 7680 0
DWIDTH 8 0
BBX 8 16 0 -4
BITMAP
00
00
00
10
10
7E
10
10
10
10
10
10
12
0C
00
00
ENDCHAR
STARTCHAR char649
ENCODING 649
SWIDTH 7680 0
DWIDTH 8 0
BBX 8 16 0 -4
BITMAP
00
00
00
00
00
22
22
22
7F
22
22
1D
00
00
00
00
ENDCHAR
STARTCHAR char650
ENCODING 650
SWIDTH 7680 0
DWIDTH 8 0
BBX 8 16 0 -4
BITMAP
00
00
00
00
00
77
22
41
41
41
22
1C
00
00
00
00
ENDCHAR
STARTCHAR char651
ENCODING 651
SWIDTH 7680 0
DWIDTH 8 0
BBX 8 16 0 -4
BITMAP
00
00
00
00
00
48
44
42
42
42
44
38
00
00
00
00
ENDCHAR
STARTCHAR char652
ENCODING 652
SWIDTH 7680 0
DWIDTH 8 0
BBX 8 16 0 -4
BITMAP
00
00
00
00
00
08
14
14
22
22
41
41
00
00
00
00
ENDCHAR
STARTCHAR char653
ENCODING 653
SWIDTH 7680 0
DWIDTH 8 0
BBX 8 16 0 -4
BITMAP
00
00
00
00
00
22
55
49
49
49
41
41
00
00
00
00
ENDCHAR
STARTCHAR char654
ENCODING 654
SWIDTH 7680 0
DWIDTH 8 0
BBX 8 16 0 -4
BITMAP
00
00
06
09
08
10
10
28
24
24
42
42
00
00
00
00
ENDCHAR
STARTCHAR char655
ENCODING 655
SWIDTH 7680 0
DWIDTH 8 0
BBX 8 16 0 -4
BITMAP
00
00
00
00
00
41
22
14
08
08
08
08
00
00
00
00
ENDCHAR
STARTCHAR char656
ENCODING 656
SWIDTH 7680 0
DWIDTH 8 0
BBX 8 16 0 -4
BITMAP
00
00
00
00
00
7F
02
04
08
10
20
7E
04
03
00
00
ENDCHAR
STARTCHAR char657
ENCODING 657
SWIDTH 7680 0
DWIDTH 8 0
BBX 8 16 0 -4
BITMAP
00
00
00
00
00
7F
02
04
08
12
25
7E
08
10
00
00
ENDCHAR
STARTCHAR char658
ENCODING 658
SWIDTH 7680 0
DWIDTH 8 0
BBX 8 16 0 -4
BITMAP
00
00
00
00
00
7E
04
08
10
38
04
02
02
44
38
00
ENDCHAR
STARTCHAR char659
ENCODING 659
SWIDTH 7680 0
DWIDTH 8 0
BBX 8 16 0 -4
BITMAP
00
00
00
00
00
3F
02
04
08
1C
02
11
2D
22
1D
00
ENDCHAR
STARTCHAR char660
ENCODING 660
SWIDTH 7680 0
DWIDTH 8 0
BBX 8 16 0 -4
BITMAP
00
00
1C
22
22
02
02
0C
08
08
08
08
00
00
00
00
ENDCHAR
STARTCHAR char661
ENCODING 661
SWIDTH 7680 0
DWIDTH 8 0
BBX 8 16 0 -4
BITMAP
00
00
1C
22
22
20
20
18
08
08
08
08
00
00
00
00
ENDCHAR
STARTCHAR char662
ENCODING 662
SWIDTH 7680 0
DWIDTH 8 0
BBX 8 16 0 -4
BITMAP
00
00
08
08
08
08
0C
02
02
22
22
1C
00
00
00
00
ENDCHAR
STARTCHAR char663
ENCODING 663
SWIDTH 7680 0
DWIDTH 8 0
BBX 8 16 0 -4
BITMAP
00
00
00
3E
41
40
40
40
40
40
40
40
41
3E
00
00
ENDCHAR
STARTCHAR char664
ENCODING 664
SWIDTH 7680 0
DWIDTH 8 0
BBX 8 16 0 -4
BITMAP
00
00
00
00
00
3E
41
41
49
41
41
3E
00
00
00
00
ENDCHAR
STARTCHAR char665
ENCODING 665
SWIDTH 7680 0
DWIDTH 8 0
BBX 8 16 0 -4
BITMAP
00
00
00
00
00
3E
21
21
3E
21
21
3E
00
00
00
00
ENDCHAR
STARTCHAR char666
ENCODING 666
SWIDTH 7680 0
DWIDTH 8 0
BBX 8 16 0 -4
BITMAP
00
00
00
00
00
3C
42
41
39
41
42
3C
00
00
00
00
ENDCHAR
STARTCHAR char667
ENCODING 667
SWIDTH 7680 0
DWIDTH 8 0
BBX 8 16 0 -4
BITMAP
00
00
00
01
02
3E
41
40
47
41
41
3E
00
00
00
00
ENDCHAR
STARTCHAR char668
ENCODING 668
SWIDTH 7680 0
DWIDTH 8 0
BBX 8 16 0 -4
BITMAP
00
00
00
00
00
41
41
41
7F
41
41
41
00
00
00
00
ENDCHAR
STARTCHAR char669
ENCODING 669
SWIDTH 7680 0
DWIDTH 8 0
BBX 8 16 0 -4
BITMAP
00
00
0C
00
00
1C
04
04
04
04
04
3C
46
45
38
00
ENDCHAR
STARTCHAR char670
ENCODING 670
SWIDTH 7680 0
DWIDTH 8 0
BBX 8 16 0 -4
BITMAP
00
00
00
00
00
41
31
0D
03
0D
31
41
01
01
01
00
ENDCHAR
STARTCHAR char671
ENCODING 671
SWIDTH 7680 0
DWIDTH 8 0
BBX 8 16 0 -4
BITMAP
00
00
00
00
00
40
40
40
40
40
40
7E
00
00
00
00
ENDCHAR
STARTCHAR char672
ENCODING 672
SWIDTH 7680 0
DWIDTH 8 0
BBX 8 16 0 -4
BITMAP
00
00
01
82
02
3A
46
42
42
42
46
3A
02
02
02
00
ENDCHAR
STARTCHAR char673
ENCODING 673
SWIDTH 7680 0
DWIDTH 8 0
BBX 8 16 0 -4
BITMAP
00
00
1C
22
22
02
02
0C
08
3E
08
08
00
00
00
00
ENDCHAR
STARTCHAR char674
ENCODING 674
SWIDTH 7680 0
DWIDTH 8 0
BBX 8 16 0 -4
BITMAP
00
00
1C
22
22
20
20
18
08
3E
08
08
00
00
00
00
ENDCHAR
STARTCHAR char675
ENCODING 675
SWIDTH 7680 0
DWIDTH 8 0
BBX 8 16 0 -4
BITMAP
00
00
08
08
08
2F
D8
C9
4A
4C
5C
2F
80
00
00
00
ENDCHAR
STARTCHAR char676
ENCODING 676
SWIDTH 7680 0
DWIDTH 8 0
BBX 8 16 0 -4
BITMAP
00
00
10
10
10
5F
B1
92
96
91
B1
51
09
06
00
00
ENDCHAR
STARTCHAR char677
ENCODING 677
SWIDTH 7680 0
DWIDTH 8 0
BBX 8 16 0 -4
BITMAP
00
00
10
10
10
5F
B1
92
94
94
BB
5E
08
10
00
00
ENDCHAR
STARTCHAR char678
ENCODING 678
SWIDTH 7680 0
DWIDTH 8 0
BBX 8 16 0 -4
BITMAP
00
00
00
20
20
77
28
28
26
21
21
1E
00
00
00
00
ENDCHAR
STARTCHAR char679
ENCODING 679
SWIDTH 7680 0
DWIDTH 8 0
BBX 8 16 0 -4
BITMAP
00
00
02
25
24
74
24
24
24
24
24
14
04
18
00
00
ENDCHAR
STARTCHAR char680
ENCODING 680
SWIDTH 7680 0
DWIDTH 8 0
BBX 8 16 0 -4
BITMAP
00
00
00
20
20
77
28
28
28
2A
2D
16
04
00
00
00
ENDCHAR
STARTCHAR char681
ENCODING 681
SWIDTH 7680 0
DWIDTH 8 0
BBX 8 16 0 -4
BITMAP
00
00
1C
22
20
2A
2D
79
29
29
29
29
01
06
00
00
ENDCHAR
STARTCHAR char682
ENCODING 682
SWIDTH 7680 0
DWIDTH 8 0
BBX 8 16 0 -4
BITMAP
00
00
60
20
20
2E
31
30
2E
21
31
7E
00
00
00
00
ENDCHAR
STARTCHAR char683
ENCODING 683
SWIDTH 7680 0
DWIDTH 8 0
BBX 8 16 0 -4
BITMAP
00
00
60
20
20
3F
21
22
24
28
30
7F
00
00
00
00
ENDCHAR
STARTCHAR char684
ENCODING 684
SWIDTH 7680 0
DWIDTH 8 0
BBX 8 16 0 -4
BITMAP
00
00
00
00
00
2A
2A
14
00
2A
2A
14
00
00
00
00
ENDCHAR
STARTCHAR char685
ENCODING 685
SWIDTH 7680 0
DWIDTH 8 0
BBX 8 16 0 -4
BITMAP
00
00
00
00
3E
22
22
00
3E
22
22
00
00
00
00
00
ENDCHAR
STARTCHAR char688
ENCODING 688
SWIDTH 7680 0
DWIDTH 8 0
BBX 8 16 0 -4
BITMAP
00
40
40
70
48
48
48
00
00
00
00
00
00
00
00
00
ENDCHAR
STARTCHAR char689
ENCODING 689
SWIDTH 7680 0
DWIDTH 8 0
BBX 8 16 0 -4
BITMAP
00
30
40
70
48
48
48
00
00
00
00
00
00
00
00
00
ENDCHAR
STARTCHAR char690
ENCODING 690
SWIDTH 7680 0
DWIDTH 8 0
BBX 8 16 0 -4
BITMAP
00
00
10
00
10
10
10
50
20
00
00
00
00
00
00
00
ENDCHAR
STARTCHAR char691
ENCODING 691
SWIDTH 7680 0
DWIDTH 8 0
BBX 8 16 0 -4
BITMAP
00
00
00
50
68
40
40
40
00
00
00
00
00
00
00
00
ENDCHAR
STARTCHAR char692
ENCODING 692
SWIDTH 7680 0
DWIDTH 8 0
BBX 8 16 0 -4
BITMAP
00
00
00
08
08
08
58
28
00
00
00
00
00
00
00
00
ENDCHAR
STARTCHAR char693
ENCODING 693
SWIDTH 7680 0
DWIDTH 8 0
BBX 8 16 0 -4
BITMAP
00
00
00
08
08
08
58
28
0A
04
00
00
00
00
00
00
ENDCHAR
STARTCHAR char694
ENCODING 694
SWIDTH 7680 0
DWIDTH 8 0
BBX 8 16 0 -4
BITMAP
00
00
48
50
70
48
48
70
00
00
00
00
00
00
00
00
ENDCHAR
STARTCHAR char695
ENCODING 695
SWIDTH 7680 0
DWIDTH 8 0
BBX 8 16 0 -4
BITMAP
00
00
00
54
54
54
28
28
00
00
00
00
00
00
00
00
ENDCHAR
STARTCHAR char696
ENCODING 696
SWIDTH 7680 0
DWIDTH 8 0
BBX 8 16 0 -4
BITMAP
00
00
00
48
48
48
38
08
70
00
00
00
00
00
00
00
ENDCHAR
STARTCHAR char697
ENCODING 697
SWIDTH 7680 0
DWIDTH 8 0
BBX 8 16 0 -4
BITMAP
00
08
08
10
10
00
00
00
00
00
00
00
00
00
00
00
ENDCHAR
STARTCHAR char698
ENCODING 698
SWIDTH 7680 0
DWIDTH 8 0
BBX 8 16 0 -4
BITMAP
00
12
12
24
24
00
00
00
00
00
00
00
00
00
00
00
ENDCHAR
STARTCHAR char699
ENCODING 699
SWIDTH 7680 0
DWIDTH 8 0
BBX 8 16 0 -4
BITMAP
00
00
04
08
0C
0C
00
00
00
00
00
00
00
00
00
00
ENDCHAR
STARTCHAR char700
ENCODING 700
SWIDTH 7680 0
DWIDTH 8 0
BBX 8 16 0 -4
BITMAP
00
00
0C
0C
04
08
00
00
00
00
00
00
00
00
00
00
ENDCHAR
STARTCHAR char701
ENCODING 701
SWIDTH 7680 0
DWIDTH 8 0
BBX 8 16 0 -4
BITMAP
00
00
0C
0C
08
04
00
00
00
00
00
00
00
00
00
00
ENDCHAR
STARTCHAR char702
ENCODING 702
SWIDTH 7680 0
DWIDTH 8 0
BBX 8 16 0 -4
BITMAP
00
00
18
04
04
04
18
00
00
00
00
00
00
00
00
00
ENDCHAR
STARTCHAR char703
ENCODING 703
SWIDTH 7680 0
DWIDTH 8 0
BBX 8 16 0 -4
BITMAP
00
00
18
20
20
20
18
00
00
00
00
00
00
00
00
00
ENDCHAR
STARTCHAR char704
ENCODING 704
SWIDTH 7680 0
DWIDTH 8 0
BBX 8 16 0 -4
BITMAP
00
00
10
28
08
10
10
00
00
00
00
00
00
00
00
00
ENDCHAR
STARTCHAR char705
ENCODING 705
SWIDTH 7680 0
DWIDTH 8 0
BBX 8 16 0 -4
BITMAP
00
00
10
28
20
10
10
00
00
00
00
00
00
00
00
00
ENDCHAR
STARTCHAR char706
ENCODING 706
SWIDTH 7680 0
DWIDTH 8 0
BBX 8 16 0 -4
BITMAP
00
00
04
08
10
08
04
00
00
00
00
00
00
00
00
00
ENDCHAR
STARTCHAR char707
ENCODING 707
SWIDTH 7680 0
DWIDTH 8 0
BBX 8 16 0 -4
BITMAP
00
00
10
08
04
08
10
00
00
00
00
00
00
00
00
00
ENDCHAR
STARTCHAR char708
ENCODING 708
SWIDTH 7680 0
DWIDTH 8 0
BBX 8 16 0 -4
BITMAP
00
00
08
14
14
22
22
00
00
00
00
00
00
00
00
00
ENDCHAR
STARTCHAR char709
ENCODING 709
SWIDTH 7680 0
DWIDTH 8 0
BBX 8 16 0 -4
BITMAP
00
00
22
22
14
14
08
00
00
00
00
00
00
00
00
00
ENDCHAR
STARTCHAR char710
ENCODING 710
SWIDTH 7680 0
DWIDTH 8 0
BBX 8 16 0 -4
BITMAP
00
00
08
14
22
00
00
00
00
00
00
00
00
00
00
00
ENDCHAR
STARTCHAR char711
ENCODING 711
SWIDTH 7680 0
DWIDTH 8 0
BBX 8 16 0 -4
BITMAP
00
00
22
14
08
00
00
00
00
00
00
00
00
00
00
00
ENDCHAR
STARTCHAR char712
ENCODING 712
SWIDTH 7680 0
DWIDTH 8 0
BBX 8 16 0 -4
BITMAP
00
00
08
08
08
00
00
00
00
00
00
00
00
00
00
00
ENDCHAR
STARTCHAR char713
ENCODING 713
SWIDTH 7680 0
DWIDTH 8 0
BBX 8 16 0 -4
BITMAP
00
00
3E
00
00
00
00
00
00
00
00
00
00
00
00
00
ENDCHAR
STARTCHAR char714
ENCODING 714
SWIDTH 7680 0
DWIDTH 8 0
BBX 8 16 0 -4
BITMAP
00
04
08
10
00
00
00
00
00
00
00
00
00
00
00
00
ENDCHAR
STARTCHAR char715
ENCODING 715
SWIDTH 7680 0
DWIDTH 8 0
BBX 8 16 0 -4
BITMAP
00
10
08
04
00
00
00
00
00
00
00
00
00
00
00
00
ENDCHAR
STARTCHAR char716
ENCODING 716
SWIDTH 7680 0
DWIDTH 8 0
BBX 8 16 0 -4
BITMAP
00
00
00
00
00
00
00
00
00
00
00
08
08
08
00
00
ENDCHAR
STARTCHAR char717
ENCODING 717
SWIDTH 7680 0
DWIDTH 8 0
BBX 8 16 0 -4
BITMAP
00
00
00
00
00
00
00
00
00
00
00
00
00
3E
00
00
ENDCHAR
STARTCHAR char718
ENCODING 718
SWIDTH 7680 0
DWIDTH 8 0
BBX 8 16 0 -4
BITMAP
00
00
00
00
00
00
00
00
00
00
00
00
10
08
04
00
ENDCHAR
STARTCHAR char719
ENCODING 719
SWIDTH 7680 0
DWIDTH 8 0
BBX 8 16 0 -4
BITMAP
00
00
00
00
00
00
00
00
00
00
00
00
04
08
10
00
ENDCHAR
STARTCHAR char720
ENCODING 720
SWIDTH 7680 0
DWIDTH 8 0
BBX 8 16 0 -4
BITMAP
00
00
00
00
00
1C
08
00
00
00
08
1C
00
00
00
00
ENDCHAR
STARTCHAR char721
ENCODING 721
SWIDTH 7680 0
DWIDTH 8 0
BBX 8 16 0 -4
BITMAP
00
00
00
00
00
1C
08
00
00
00
00
00
00
00
00
00
ENDCHAR
STARTCHAR char722
ENCODING 722
SWIDTH 7680 0
DWIDTH 8 0
BBX 8 16 0 -4
BITMAP
00
00
00
00
00
00
00
18
04
04
18
00
00
00
00
00
ENDCHAR
STARTCHAR char723
ENCODING 723
SWIDTH 7680 0
DWIDTH 8 0
BBX 8 16 0 -4
BITMAP
00
00
00
00
00
00
00
0C
10
10
0C
00
00
00
00
00
ENDCHAR
STARTCHAR char724
ENCODING 724
SWIDTH 7680 0
DWIDTH 8 0
BBX 8 16 0 -4
BITMAP
00
00
00
00
00
08
08
3E
00
00
00
00
00
00
00
00
ENDCHAR
STARTCHAR char725
ENCODING 725
SWIDTH 7680 0
DWIDTH 8 0
BBX 8 16 0 -4
BITMAP
00
00
00
00
00
00
00
3E
08
08
00
00
00
00
00
00
ENDCHAR
STARTCHAR char726
ENCODING 726
SWIDTH 7680 0
DWIDTH 8 0
BBX 8 16 0 -4
BITMAP
00
00
00
00
00
08
08
3E
08
08
00
00
00
00
00
00
ENDCHAR
STARTCHAR char727
ENCODING 727
SWIDTH 7680 0
DWIDTH 8 0
BBX 8 16 0 -4
BITMAP
00
00
00
00
00
00
21
3F
21
00
00
00
00
00
00
00
ENDCHAR
STARTCHAR char728
ENCODING 728
SWIDTH 7680 0
DWIDTH 8 0
BBX 8 16 0 -4
BITMAP
00
22
1C
00
00
00
00
00
00
00
00
00
00
00
00
00
ENDCHAR
STARTCHAR char729
ENCODING 729
SWIDTH 7680 0
DWIDTH 8 0
BBX 8 16 0 -4
BITMAP
00
08
08
00
00
00
00
00
00
00
00
00
00
00
00
00
ENDCHAR
STARTCHAR char730
ENCODING 730
SWIDTH 7680 0
DWIDTH 8 0
BBX 8 16 0 -4
BITMAP
00
18
24
18
00
00
00
00
00
00
00
00
00
00
00
00
ENDCHAR
STARTCHAR char731
ENCODING 731
SWIDTH 7680 0
DWIDTH 8 0
BBX 8 16 0 -4
BITMAP
00
00
00
00
00
00
00
00
00
00
00
00
10
20
1C
00
ENDCHAR
STARTCHAR char732
ENCODING 732
SWIDTH 7680 0
DWIDTH 8 0
BBX 8 16 0 -4
BITMAP
00
39
4E
00
00
00
00
00
00
00
00
00
00
00
00
00
ENDCHAR
STARTCHAR char733
ENCODING 733
SWIDTH 7680 0
DWIDTH 8 0
BBX 8 16 0 -4
BITMAP
00
11
22
44
00
00
00
00
00
00
00
00
00
00
00
00
ENDCHAR
STARTCHAR char734
ENCODING 734
SWIDTH 7680 0
DWIDTH 8 0
BBX 8 16 0 -4
BITMAP
00
00
00
00
00
10
32
52
0C
00
00
00
00
00
00
00
ENDCHAR
STARTCHAR char735
ENCODING 735
SWIDTH 7680 0
DWIDTH 8 0
BBX 8 16 0 -4
BITMAP
00
14
08
14
00
00
00
00
00
00
00
00
00
00
00
00
ENDCHAR
STARTCHAR char736
ENCODING 736
SWIDTH 7680 0
DWIDTH 8 0
BBX 8 16 0 -4
BITMAP
00
00
00
48
48
30
30
48
30
00
00
00
00
00
00
00
ENDCHAR
STARTCHAR char737
ENCODING 737
SWIDTH 7680 0
DWIDTH 8 0
BBX 8 16 0 -4
BITMAP
00
00
30
10
10
10
10
38
00
00
00
00
00
00
00
00
ENDCHAR
STARTCHAR char738
ENCODING 738
SWIDTH 7680 0
DWIDTH 8 0
BBX 8 16 0 -4
BITMAP
00
00
00
38
40
30
08
70
00
00
00
00
00
00
00
00
ENDCHAR
STARTCHAR char739
ENCODING 739
SWIDTH 7680 0
DWIDTH 8 0
BBX 8 16 0 -4
BITMAP
00
00
00
48
48
30
48
48
00
00
00
00
00
00
00
00
ENDCHAR
STARTCHAR char740
ENCODING 740
SWIDTH 7680 0
DWIDTH 8 0
BBX 8 16 0 -4
BITMAP
00
38
44
40
30
10
10
10
00
00
00
00
00
00
00
00
ENDCHAR
STARTCHAR char741
ENCODING 741
SWIDTH 7680 0
DWIDTH 8 0
BBX 8 16 0 -4
BITMAP
00
3C
04
04
04
04
04
04
04
04
04
04
04
04
00
00
ENDCHAR
STARTCHAR char742
ENCODING 742
SWIDTH 7680 0
DWIDTH 8 0
BBX 8 16 0 -4
BITMAP
00
04
04
04
3C
04
04
04
04
04
04
04
04
04
00
00
ENDCHAR
STARTCHAR char743
ENCODING 743
SWIDTH 7680 0
DWIDTH 8 0
BBX 8 16 0 -4
BITMAP
00
04
04
04
04
04
04
3C
04
04
04
04
04
04
00
00
ENDCHAR
STARTCHAR char744
ENCODING 744
SWIDTH 7680 0
DWIDTH 8 0
BBX 8 16 0 -4
BITMAP
00
04
04
04
04
04
04
04
04
04
3C
04
04
04
00
00
ENDCHAR
STARTCHAR char745
ENCODING 745
SWIDTH 7680 0
DWIDTH 8 0
BBX 8 16 0 -4
BITMAP
00
04
04
04
04
04
04
04
04
04
04
04
04
3C
00
00
ENDCHAR
STARTCHAR char746
ENCODING 746
SWIDTH 7680 0
DWIDTH 8 0
BBX 8 16 0 -4
BITMAP
00
00
00
00
00
00
00
00
00
00
3C
04
04
04
00
00
ENDCHAR
STARTCHAR char747
ENCODING 747
SWIDTH 7680 0
DWIDTH 8 0
BBX 8 16 0 -4
BITMAP
00
00
00
00
00
00
00
10
10
10
1E
10
10
10
00
00
ENDCHAR
STARTCHAR char748
ENCODING 748
SWIDTH 7680 0
DWIDTH 8 0
BBX 8 16 0 -4
BITMAP
00
00
00
00
00
00
00
00
00
00
00
22
14
08
00
00
ENDCHAR
STARTCHAR char749
ENCODING 749
SWIDTH 7680 0
DWIDTH 8 0
BBX 8 16 0 -4
BITMAP
00
00
00
00
00
00
3C
00
3C
00
00
00
00
00
00
00
ENDCHAR
STARTCHAR char750
ENCODING 750
SWIDTH 7680 0
DWIDTH 8 0
BBX 8 16 0 -4
BITMAP
00
00
36
36
12
24
00
00
00
00
00
00
00
00
00
00
ENDCHAR
STARTCHAR char768
ENCODING 768
SWIDTH 7680 0
DWIDTH 8 0
BBX 8 16 0 -4
BITMAP
20
10
08
00
00
00
00
00
00
00
00
00
00
00
00
00
ENDCHAR
STARTCHAR char769
ENCODING 769
SWIDTH 7680 0
DWIDTH 8 0
BBX 8 16 0 -4
BITMAP
02
04
08
00
00
00
00
00
00
00
00
00
00
00
00
00
ENDCHAR
STARTCHAR char770
ENCODING 770
SWIDTH 7680 0
DWIDTH 8 0
BBX 8 16 0 -4
BITMAP
08
14
22
00
00
00
00
00
00
00
00
00
00
00
00
00
ENDCHAR
STARTCHAR char771
ENCODING 771
SWIDTH 7680 0
DWIDTH 8 0
BBX 8 16 0 -4
BITMAP
00
39
4E
00
00
00
00
00
00
00
00
00
00
00
00
00
ENDCHAR
STARTCHAR char772
ENCODING 772
SWIDTH 7680 0
DWIDTH 8 0
BBX 8 16 0 -4
BITMAP
00
00
7E
00
00
00
00
00
00
00
00
00
00
00
00
00
ENDCHAR
STARTCHAR char773
ENCODING 773
SWIDTH 7680 0
DWIDTH 8 0
BBX 8 16 0 -4
BITMAP
00
FF
80
00
00
00
00
00
00
00
00
00
00
00
00
00
ENDCHAR
STARTCHAR char774
ENCODING 774
SWIDTH 7680 0
DWIDTH 8 0
BBX 8 16 0 -4
BITMAP
00
22
1C
00
00
00
00
00
00
00
00
00
00
00
00
00
ENDCHAR
STARTCHAR char775
ENCODING 775
SWIDTH 7680 0
DWIDTH 8 0
BBX 8 16 0 -4
BITMAP
00
08
08
00
00
00
00
00
00
00
00
00
00
00
00
00
ENDCHAR
STARTCHAR char776
ENCODING 776
SWIDTH 7680 0
DWIDTH 8 0
BBX 8 16 0 -4
BITMAP
00
22
22
00
00
00
00
00
00
00
00
00
00
00
00
00
ENDCHAR
STARTCHAR char777
ENCODING 777
SWIDTH 7680 0
DWIDTH 8 0
BBX 8 16 0 -4
BITMAP
00
18
04
08
00
00
00
00
00
00
00
00
00
00
00
00
ENDCHAR
STARTCHAR char778
ENCODING 778
SWIDTH 7680 0
DWIDTH 8 0
BBX 8 16 0 -4
BITMAP
0C
12
0C
00
00
00
00
00
00
00
00
00
00
00
00
00
ENDCHAR
STARTCHAR char779
ENCODING 779
SWIDTH 7680 0
DWIDTH 8 0
BBX 8 16 0 -4
BITMAP
00
12
24
00
00
00
00
00
00
00
00
00
00
00
00
00
ENDCHAR
STARTCHAR char780
ENCODING 780
SWIDTH 7680 0
DWIDTH 8 0
BBX 8 16 0 -4
BITMAP
22
14
08
00
00
00
00
00
00
00
00
00
00
00
00
00
ENDCHAR
STARTCHAR char781
ENCODING 781
SWIDTH 7680 0
DWIDTH 8 0
BBX 8 16 0 -4
BITMAP
08
08
08
00
00
00
00
00
00
00
00
00
00
00
00
00
ENDCHAR
STARTCHAR char782
ENCODING 782
SWIDTH 7680 0
DWIDTH 8 0
BBX 8 16 0 -4
BITMAP
22
22
22
00
00
00
00
00
00
00
00
00
00
00
00
00
ENDCHAR
STARTCHAR char783
ENCODING 783
SWIDTH 7680 0
DWIDTH 8 0
BBX 8 16 0 -4
BITMAP
00
24
12
00
00
00
00
00
00
00
00
00
00
00
00
00
ENDCHAR
STARTCHAR char784
ENCODING 784
SWIDTH 7680 0
DWIDTH 8 0
BBX 8 16 0 -4
BITMAP
08
22
1C
00
00
00
00
00
00
00
00
00
00
00
00
00
ENDCHAR
STARTCHAR char785
ENCODING 785
SWIDTH 7680 0
DWIDTH 8 0
BBX 8 16 0 -4
BITMAP
00
1C
22
00
00
00
00
00
00
00
00
00
00
00
00
00
ENDCHAR
STARTCHAR char786
ENCODING 786
SWIDTH 7680 0
DWIDTH 8 0
BBX 8 16 0 -4
BITMAP
08
10
18
18
00
00
00
00
00
00
00
00
00
00
00
00
ENDCHAR
STARTCHAR char787
ENCODING 787
SWIDTH 7680 0
DWIDTH 8 0
BBX 8 16 0 -4
BITMAP
0C
0C
04
08
00
00
00
00
00
00
00
00
00
00
00
00
ENDCHAR
STARTCHAR char788
ENCODING 788
SWIDTH 7680 0
DWIDTH 8 0
BBX 8 16 0 -4
BITMAP
0C
0C
08
04
00
00
00
00
00
00
00
00
00
00
00
00
ENDCHAR
STARTCHAR char789
ENCODING 789
SWIDTH 7680 0
DWIDTH 8 0
BBX 8 16 0 -4
BITMAP
03
03
01
02
00
00
00
00
00
00
00
00
00
00
00
00
ENDCHAR
STARTCHAR char790
ENCODING 790
SWIDTH 7680 0
DWIDTH 8 0
BBX 8 16 0 -4
BITMAP
00
00
00
00
00
00
00
00
00
00
00
00
00
08
04
00
ENDCHAR
STARTCHAR char791
ENCODING 791
SWIDTH 7680 0
DWIDTH 8 0
BBX 8 16 0 -4
BITMAP
00
00
00
00
00
00
00
00
00
00
00
00
00
08
10
00
ENDCHAR
STARTCHAR char792
ENCODING 792
SWIDTH 7680 0
DWIDTH 8 0
BBX 8 16 0 -4
BITMAP
00
00
00
00
00
00
00
00
00
00
00
00
02
1E
02
00
ENDCHAR
STARTCHAR char793
ENCODING 793
SWIDTH 7680 0
DWIDTH 8 0
BBX 8 16 0 -4
BITMAP
00
00
00
00
00
00
00
00
00
00
00
00
20
3C
20
00
ENDCHAR
STARTCHAR char794
ENCODING 794
SWIDTH 7680 0
DWIDTH 8 0
BBX 8 16 0 -4
BITMAP
00
03
80
80
80
00
00
00
00
00
00
00
00
00
00
00
ENDCHAR
STARTCHAR char795
ENCODING 795
SWIDTH 7680 0
DWIDTH 8 0
BBX 8 16 0 -4
BITMAP
00
00
00
80
81
00
00
00
00
00
00
00
00
00
00
00
ENDCHAR
STARTCHAR char796
ENCODING 796
SWIDTH 7680 0
DWIDTH 8 0
BBX 8 16 0 -4
BITMAP
00
00
00
00
00
00
00
00
00
00
00
00
08
10
08
00
ENDCHAR
STARTCHAR char797
ENCODING 797
SWIDTH 7680 0
DWIDTH 8 0
BBX 8 16 0 -4
BITMAP
00
00
00
00
00
00
00
00
00
00
00
00
08
08
1C
00
ENDCHAR
STARTCHAR char798
ENCODING 798
SWIDTH 7680 0
DWIDTH 8 0
BBX 8 16 0 -4
BITMAP
00
00
00
00
00
00
00
00
00
00
00
00
1C
08
08
00
ENDCHAR
STARTCHAR char799
ENCODING 799
SWIDTH 7680 0
DWIDTH 8 0
BBX 8 16 0 -4
BITMAP
00
00
00
00
00
00
00
00
00
00
00
00
08
1C
08
00
ENDCHAR
STARTCHAR char800
ENCODING 800
SWIDTH 7680 0
DWIDTH 8 0
BBX 8 16 0 -4
BITMAP
00
00
00
00
00
00
00
00
00
00
00
00
00
7F
00
00
ENDCHAR
STARTCHAR char801
ENCODING 801
SWIDTH 7680 0
DWIDTH 8 0
BBX 8 16 0 -4
BITMAP
00
00
00
00
00
00
00
00
00
00
00
00
01
09
06
00
ENDCHAR
STARTCHAR char802
ENCODING 802
SWIDTH 7680 0
DWIDTH 8 0
BBX 8 16 0 -4
BITMAP
00
00
00
00
00
00
00
00
00
00
00
00
01
01
00
80
ENDCHAR
STARTCHAR char803
ENCODING 803
SWIDTH 7680 0
DWIDTH 8 0
BBX 8 16 0 -4
BITMAP
00
00
00
00
00
00
00
00
00
00
00
00
00
08
08
00
ENDCHAR
STARTCHAR char804
ENCODING 804
SWIDTH 7680 0
DWIDTH 8 0
BBX 8 16 0 -4
BITMAP
00
00
00
00
00
00
00
00
00
00
00
00
00
22
22
00
ENDCHAR
STARTCHAR char805
ENCODING 805
SWIDTH 7680 0
DWIDTH 8 0
BBX 8 16 0 -4
BITMAP
00
00
00
00
00
00
00
00
00
00
00
00
0C
12
0C
00
ENDCHAR
STARTCHAR char806
ENCODING 806
SWIDTH 7680 0
DWIDTH 8 0
BBX 8 16 0 -4
BITMAP
00
00
00
00
00
00
00
00
00
00
00
00
0C
04
08
00
ENDCHAR
STARTCHAR char807
ENCODING 807
SWIDTH 7680 0
DWIDTH 8 0
BBX 8 16 0 -4
BITMAP
00
00
00
00
00
00
00
00
00
00
00
00
0C
24
18
00
ENDCHAR
STARTCHAR char808
ENCODING 808
SWIDTH 7680 0
DWIDTH 8 0
BBX 8 16 0 -4
BITMAP
00
00
00
00
00
00
00
00
00
00
00
00
10
18
00
00
ENDCHAR
STARTCHAR char809
ENCODING 809
SWIDTH 7680 0
DWIDTH 8 0
BBX 8 16 0 -4
BITMAP
00
00
00
00
00
00
00
00
00
00
00
00
08
08
08
00
ENDCHAR
STARTCHAR char810
ENCODING 810
SWIDTH 7680 0
DWIDTH 8 0
BBX 8 16 0 -4
BITMAP
00
00
00
00
00
00
00
00
00
00
00
00
00
3E
22
00
ENDCHAR
STARTCHAR char811
ENCODING 811
SWIDTH 7680 0
DWIDTH 8 0
BBX 8 16 0 -4
BITMAP
00
00
00
00
00
00
00
00
00
00
00
00
2A
2A
14
00
ENDCHAR
STARTCHAR char812
ENCODING 812
SWIDTH 7680 0
DWIDTH 8 0
BBX 8 16 0 -4
BITMAP
00
00
00
00
00
00
00
00
00
00
00
00
22
14
08
00
ENDCHAR
STARTCHAR char813
ENCODING 813
SWIDTH 7680 0
DWIDTH 8 0
BBX 8 16 0 -4
BITMAP
00
00
00
00
00
00
00
00
00
00
00
00
08
14
22
00
ENDCHAR
STARTCHAR char814
ENCODING 814
SWIDTH 7680 0
DWIDTH 8 0
BBX 8 16 0 -4
BITMAP
00
00
00
00
00
00
00
00
00
00
00
00
00
22
1C
00
ENDCHAR
STARTCHAR char815
ENCODING 815
SWIDTH 7680 0
DWIDTH 8 0
BBX 8 16 0 -4
BITMAP
00
00
00
00
00
00
00
00
00
00
00
00
00
1C
22
00
ENDCHAR
STARTCHAR char816
ENCODING 816
SWIDTH 7680 0
DWIDTH 8 0
BBX 8 16 0 -4
BITMAP
00
00
00
00
00
00
00
00
00
00
00
00
00
39
4E
00
ENDCHAR
STARTCHAR char817
ENCODING 817
SWIDTH 7680 0
DWIDTH 8 0
BBX 8 16 0 -4
BITMAP
00
00
00
00
00
00
00
00
00
00
00
00
00
7F
00
00
ENDCHAR
STARTCHAR char818
ENCODING 818
SWIDTH 7680 0
DWIDTH 8 0
BBX 8 16 0 -4
BITMAP
00
00
00
00
00
00
00
00
00
00
00
00
00
FF
80
00
ENDCHAR
STARTCHAR char819
ENCODING 819
SWIDTH 7680 0
DWIDTH 8 0
BBX 8 16 0 -4
BITMAP
00
00
00
00
00
00
00
00
00
00
00
00
FF
80
FF
80
ENDCHAR
STARTCHAR char820
ENCODING 820
SWIDTH 7680 0
DWIDTH 8 0
BBX 8 16 0 -4
BITMAP
00
00
00
00
00
00
00
1A
2C
00
00
00
00
00
00
00
ENDCHAR
STARTCHAR char821
ENCODING 821
SWIDTH 7680 0
DWIDTH 8 0
BBX 8 16 0 -4
BITMAP
00
00
00
00
00
00
00
3E
00
00
00
00
00
00
00
00
ENDCHAR
STARTCHAR char822
ENCODING 822
SWIDTH 7680 0
DWIDTH 8 0
BBX 8 16 0 -4
BITMAP
00
00
00
00
00
00
00
7F
00
00
00
00
00
00
00
00
ENDCHAR
STARTCHAR char823
ENCODING 823
SWIDTH 7680 0
DWIDTH 8 0
BBX 8 16 0 -4
BITMAP
00
00
00
00
01
02
04
08
10
20
40
00
00
00
00
00
ENDCHAR
STARTCHAR char824
ENCODING 824
SWIDTH 7680 0
DWIDTH 8 0
BBX 8 16 0 -4
BITMAP
00
01
01
02
02
04
04
08
10
10
20
20
40
40
00
00
ENDCHAR
STARTCHAR char825
ENCODING 825
SWIDTH 7680 0
DWIDTH 8 0
BBX 8 16 0 -4
BITMAP
00
00
00
00
00
00
00
00
00
00
00
00
08
04
08
00
ENDCHAR
STARTCHAR char826
ENCODING 826
SWIDTH 7680 0
DWIDTH 8 0
BBX 8 16 0 -4
BITMAP
00
00
00
00
00
00
00
00
00
00
00
00
00
22
3E
00
ENDCHAR
STARTCHAR char827
ENCODING 827
SWIDTH 7680 0
DWIDTH 8 0
BBX 8 16 0 -4
BITMAP
00
00
00
00
00
00
00
00
00
00
00
00
1C
14
1C
00
ENDCHAR
STARTCHAR char828
ENCODING 828
SWIDTH 7680 0
DWIDTH 8 0
BBX 8 16 0 -4
BITMAP
00
00
00
00
00
00
00
00
00
00
00
00
00
36
49
00
ENDCHAR
STARTCHAR char829
ENCODING 829
SWIDTH 7680 0
DWIDTH 8 0
BBX 8 16 0 -4
BITMAP
36
08
36
00
00
00
00
00
00
00
00
00
00
00
00
00
ENDCHAR
STARTCHAR char830
ENCODING 830
SWIDTH 7680 0
DWIDTH 8 0
BBX 8 16 0 -4
BITMAP
08
10
08
10
00
00
00
00
00
00
00
00
00
00
00
00
ENDCHAR
STARTCHAR char831
ENCODING 831
SWIDTH 7680 0
DWIDTH 8 0
BBX 8 16 0 -4
BITMAP
FF
80
FF
80
00
00
00
00
00
00
00
00
00
00
00
00
ENDCHAR
STARTCHAR char832
ENCODING 832
SWIDTH 7680 0
DWIDTH 8 0
BBX 8 16 0 -4
BITMAP
40
20
00
00
00
00
00
00
00
00
00
00
00
00
00
00
ENDCHAR
STARTCHAR char833
ENCODING 833
SWIDTH 7680 0
DWIDTH 8 0
BBX 8 16 0 -4
BITMAP
01
02
00
00
00
00
00
00
00
00
00
00
00
00
00
00
ENDCHAR
STARTCHAR char834
ENCODING 834
SWIDTH 7680 0
DWIDTH 8 0
BBX 8 16 0 -4
BITMAP
00
1A
2C
00
00
00
00
00
00
00
00
00
00
00
00
00
ENDCHAR
STARTCHAR char835
ENCODING 835
SWIDTH 7680 0
DWIDTH 8 0
BBX 8 16 0 -4
BITMAP
00
0C
04
08
00
00
00
00
00
00
00
00
00
00
00
00
ENDCHAR
STARTCHAR char836
ENCODING 836
SWIDTH 7680 0
DWIDTH 8 0
BBX 8 16 0 -4
BITMAP
00
04
49
51
00
00
00
00
00
00
00
00
00
00
00
00
ENDCHAR
STARTCHAR char837
ENCODING 837
SWIDTH 7680 0
DWIDTH 8 0
BBX 8 16 0 -4
BITMAP
00
00
00
00
00
00
00
00
00
00
00
00
00
08
0C
00
ENDCHAR
STARTCHAR char838
ENCODING 838
SWIDTH 7680 0
DWIDTH 8 0
BBX 8 16 0 -4
BITMAP
3E
22
00
00
00
00
00
00
00
00
00
00
00
00
00
00
ENDCHAR
STARTCHAR char839
ENCODING 839
SWIDTH 7680 0
DWIDTH 8 0
BBX 8 16 0 -4
BITMAP
00
00
00
00
00
00
00
00
00
00
00
00
3E
00
3E
00
ENDCHAR
STARTCHAR char840
ENCODING 840
SWIDTH 7680 0
DWIDTH 8 0
BBX 8 16 0 -4
BITMAP
00
00
00
00
00
00
00
00
00
00
00
00
14
14
14
00
ENDCHAR
STARTCHAR char841
ENCODING 841
SWIDTH 7680 0
DWIDTH 8 0
BBX 8 16 0 -4
BITMAP
00
00
00
00
00
00
00
00
00
00
00
00
1C
04
04
00
ENDCHAR
STARTCHAR char842
ENCODING 842
SWIDTH 7680 0
DWIDTH 8 0
BBX 8 16 0 -4
BITMAP
04
39
4E
10
00
00
00
00
00
00
00
00
00
00
00
00
ENDCHAR
STARTCHAR char843
ENCODING 843
SWIDTH 7680 0
DWIDTH 8 0
BBX 8 16 0 -4
BITMAP
04
71
8E
20
00
00
00
00
00
00
00
00
00
00
00
00
ENDCHAR
STARTCHAR char844
ENCODING 844
SWIDTH 7680 0
DWIDTH 8 0
BBX 8 16 0 -4
BITMAP
39
4E
00
39
4E
00
00
00
00
00
00
00
00
00
00
00
ENDCHAR
STARTCHAR char845
ENCODING 845
SWIDTH 7680 0
DWIDTH 8 0
BBX 8 16 0 -4
BITMAP
00
00
00
00
00
00
00
00
00
00
00
00
22
7F
22
00
ENDCHAR
STARTCHAR char846
ENCODING 846
SWIDTH 7680 0
DWIDTH 8 0
BBX 8 16 0 -4
BITMAP
00
00
00
00
00
00
00
00
00
00
00
08
1C
08
08
00
ENDCHAR
STARTCHAR char847
ENCODING 847
SWIDTH 7680 0
DWIDTH 8 0
BBX 8 16 0 -4
BITMAP
00
00
00
00
00
00
00
00
00
00
00
00
00
00
00
00
ENDCHAR
STARTCHAR char864
ENCODING 864
SWIDTH 7680 0
DWIDTH 8 0
BBX 8 16 0 -4
BITMAP
1C
A7
00
00
00
00
00
00
00
00
00
00
00
00
00
00
ENDCHAR
STARTCHAR char865
ENCODING 865
SWIDTH 7680 0
DWIDTH 8 0
BBX 8 16 0 -4
BITMAP
1F
20
80
00
00
00
00
00
00
00
00
00
00
00
00
00
ENDCHAR
STARTCHAR char866
ENCODING 866
SWIDTH 7680 0
DWIDTH 8 0
BBX 8 16 0 -4
BITMAP
00
00
00
00
00
00
00
00
00
00
00
00
01
1F
81
00
ENDCHAR
STARTCHAR char867
ENCODING 867
SWIDTH 7680 0
DWIDTH 8 0
BBX 8 16 0 -4
BITMAP
18
04
1C
24
1C
00
00
00
00
00
00
00
00
00
00
00
ENDCHAR
STARTCHAR char868
ENCODING 868
SWIDTH 7680 0
DWIDTH 8 0
BBX 8 16 0 -4
BITMAP
18
24
3C
20
18
00
00
00
00
00
00
00
00
00
00
00
ENDCHAR
STARTCHAR char869
ENCODING 869
SWIDTH 7680 0
DWIDTH 8 0
BBX 8 16 0 -4
BITMAP
08
00
08
08
00
00
00
00
00
00
00
00
00
00
00
00
ENDCHAR
STARTCHAR char870
ENCODING 870
SWIDTH 7680 0
DWIDTH 8 0
BBX 8 16 0 -4
BITMAP
18
24
24
18
00
00
00
00
00
00
00
00
00
00
00
00
ENDCHAR
STARTCHAR char871
ENCODING 871
SWIDTH 7680 0
DWIDTH 8 0
BBX 8 16 0 -4
BITMAP
24
24
24
1C
00
00
00
00
00
00
00
00
00
00
00
00
ENDCHAR
STARTCHAR char872
ENCODING 872
SWIDTH 7680 0
DWIDTH 8 0
BBX 8 16 0 -4
BITMAP
1C
20
20
1C
00
00
00
00
00
00
00
00
00
00
00
00
ENDCHAR
STARTCHAR char873
ENCODING 873
SWIDTH 7680 0
DWIDTH 8 0
BBX 8 16 0 -4
BITMAP
04
1C
24
1C
00
00
00
00
00
00
00
00
00
00
00
00
ENDCHAR
STARTCHAR char874
ENCODING 874
SWIDTH 7680 0
DWIDTH 8 0
BBX 8 16 0 -4
BITMAP
20
38
24
24
00
00
00
00
00
00
00
00
00
00
00
00
ENDCHAR
STARTCHAR char875
ENCODING 875
SWIDTH 7680 0
DWIDTH 8 0
BBX 8 16 0 -4
BITMAP
34
2A
2A
2A
00
00
00
00
00
00
00
00
00
00
00
00
ENDCHAR
STARTCHAR char876
ENCODING 876
SWIDTH 7680 0
DWIDTH 8 0
BBX 8 16 0 -4
BITMAP
14
18
10
10
00
00
00
00
00
00
00
00
00
00
00
00
ENDCHAR
STARTCHAR char877
ENCODING 877
SWIDTH 7680 0
DWIDTH 8 0
BBX 8 16 0 -4
BITMAP
10
38
10
0C
00
00
00
00
00
00
00
00
00
00
00
00
ENDCHAR
STARTCHAR char878
ENCODING 878
SWIDTH 7680 0
DWIDTH 8 0
BBX 8 16 0 -4
BITMAP
14
14
08
08
00
00
00
00
00
00
00
00
00
00
00
00
ENDCHAR
STARTCHAR char879
ENCODING 879
SWIDTH 7680 0
DWIDTH 8 0
BBX 8 16 0 -4
BITMAP
14
08
08
14
00
00
00
00
00
00
00
00
00
00
00
00
ENDCHAR
STARTCHAR char884
ENCODING 884
SWIDTH 7680 0
DWIDTH 8 0
BBX 8 16 0 -4
BITMAP
00
04
08
10
00
00
00
00
00
00
00
00
00
00
00
00
ENDCHAR
STARTCHAR char885
ENCODING 885
SWIDTH 7680 0
DWIDTH 8 0
BBX 8 16 0 -4
BITMAP
00
00
00
00
00
00
00
00
00
00
00
00
04
08
10
00
ENDCHAR
STARTCHAR char890
ENCODING 890
SWIDTH 7680 0
DWIDTH 8 0
BBX 8 16 0 -4
BITMAP
00
00
00
00
00
00
00
00
00
00
00
00
00
08
0C
00
ENDCHAR
STARTCHAR char894
ENCODING 894
SWIDTH 7680 0
DWIDTH 8 0
BBX 8 16 0 -4
BITMAP
00
00
00
00
00
0C
0C
00
00
00
0C
0C
04
04
08
00
ENDCHAR
STARTCHAR char900
ENCODING 900
SWIDTH 7680 0
DWIDTH 8 0
BBX 8 16 0 -4
BITMAP
00
04
08
10
00
00
00
00
00
00
00
00
00
00
00
00
ENDCHAR
STARTCHAR char901
ENCODING 901
SWIDTH 7680 0
DWIDTH 8 0
BBX 8 16 0 -4
BITMAP
00
04
49
51
00
00
00
00
00
00
00
00
00
00
00
00
ENDCHAR
STARTCHAR char902
ENCODING 902
SWIDTH 7680 0
DWIDTH 8 0
BBX 8 16 0 -4
BITMAP
00
00
24
4A
91
11
11
11
1F
11
11
11
00
00
00
00
ENDCHAR
STARTCHAR char903
ENCODING 903
SWIDTH 7680 0
DWIDTH 8 0
BBX 8 16 0 -4
BITMAP
00
00
00
00
00
18
18
00
00
00
00
00
00
00
00
00
ENDCHAR
STARTCHAR char904
ENCODING 904
SWIDTH 7680 0
DWIDTH 8 0
BBX 8 16 0 -4
BITMAP
00
00
3F
50
90
10
1C
10
10
10
10
1F
00
00
00
00
ENDCHAR
STARTCHAR char905
ENCODING 905
SWIDTH 7680 0
DWIDTH 8 0
BBX 8 16 0 -4
BITMAP
00
00
31
51
91
11
1F
11
11
11
11
11
00
00
00
00
ENDCHAR
STARTCHAR char906
ENCODING 906
SWIDTH 7680 0
DWIDTH 8 0
BBX 8 16 0 -4
BITMAP
00
00
3F
44
84
04
04
04
04
04
04
1F
00
00
00
00
ENDCHAR
STARTCHAR char908
ENCODING 908
SWIDTH 7680 0
DWIDTH 8 0
BBX 8 16 0 -4
BITMAP
00
00
2E
51
91
11
11
11
11
11
11
0E
00
00
00
00
ENDCHAR
STARTCHAR char910
ENCODING 910
SWIDTH 7680 0
DWIDTH 8 0
BBX 8 16 0 -4
BITMAP
00
00
31
51
8A
0A
04
04
04
04
04
04
00
00
00
00
ENDCHAR
STARTCHAR char911
ENCODING 911
SWIDTH 7680 0
DWIDTH 8 0
BBX 8 16 0 -4
BITMAP
00
00
2E
51
91
11
11
11
11
0A
0A
1B
00
00
00
00
ENDCHAR
STARTCHAR char912
ENCODING 912
SWIDTH 7680 0
DWIDTH 8 0
BBX 8 16 0 -4
BITMAP
00
04
49
51
00
10
10
10
10
10
12
0C
00
00
00
00
ENDCHAR
STARTCHAR char913
ENCODING 913
SWIDTH 7680 0
DWIDTH 8 0
BBX 8 16 0 -4
BITMAP
00
00
08
14
22
41
41
41
7F
41
41
41
00
00
00
00
ENDCHAR
STARTCHAR char914
ENCODING 914
SWIDTH 7680 0
DWIDTH 8 0
BBX 8 16 0 -4
BITMAP
00
00
7E
41
41
41
7E
41
41
41
41
7E
00
00
00
00
ENDCHAR
STARTCHAR char915
ENCODING 915
SWIDTH 7680 0
DWIDTH 8 0
BBX 8 16 0 -4
BITMAP
00
00
7F
40
40
40
40
40
40
40
40
40
00
00
00
00
ENDCHAR
STARTCHAR char916
ENCODING 916
SWIDTH 7680 0
DWIDTH 8 0
BBX 8 16 0 -4
BITMAP
00
00
08
14
14
14
22
22
22
41
41
7F
00
00
00
00
ENDCHAR
STARTCHAR char917
ENCODING 917
SWIDTH 7680 0
DWIDTH 8 0
BBX 8 16 0 -4
BITMAP
00
00
7F
40
40
40
7C
40
40
40
40
7F
00
00
00
00
ENDCHAR
STARTCHAR char918
ENCODING 918
SWIDTH 7680 0
DWIDTH 8 0
BBX 8 16 0 -4
BITMAP
00
00
7F
01
02
04
08
10
20
40
40
7F
00
00
00
00
ENDCHAR
STARTCHAR char919
ENCODING 919
SWIDTH 7680 0
DWIDTH 8 0
BBX 8 16 0 -4
BITMAP
00
00
41
41
41
41
7F
41
41
41
41
41
00
00
00
00
ENDCHAR
STARTCHAR char920
ENCODING 920
SWIDTH 7680 0
DWIDTH 8 0
BBX 8 16 0 -4
BITMAP
00
00
3E
41
41
41
7F
41
41
41
41
3E
00
00
00
00
ENDCHAR
STARTCHAR char921
ENCODING 921
SWIDTH 7680 0
DWIDTH 8 0
BBX 8 16 0 -4
BITMAP
00
00
3E
08
08
08
08
08
08
08
08
3E
00
00
00
00
ENDCHAR
STARTCHAR char922
ENCODING 922
SWIDTH 7680 0
DWIDTH 8 0
BBX 8 16 0 -4
BITMAP
00
00
41
42
44
48
70
50
48
44
42
41
00
00
00
00
ENDCHAR
STARTCHAR char923
ENCODING 923
SWIDTH 7680 0
DWIDTH 8 0
BBX 8 16 0 -4
BITMAP
00
00
08
14
14
14
22
22
22
41
41
41
00
00
00
00
ENDCHAR
STARTCHAR char924
ENCODING 924
SWIDTH 7680 0
DWIDTH 8 0
BBX 8 16 0 -4
BITMAP
00
00
41
41
63
55
55
49
49
41
41
41
00
00
00
00
ENDCHAR
STARTCHAR char925
ENCODING 925
SWIDTH 7680 0
DWIDTH 8 0
BBX 8 16 0 -4
BITMAP
00
00
41
41
61
51
49
45
43
41
41
41
00
00
00
00
ENDCHAR
STARTCHAR char926
ENCODING 926
SWIDTH 7680 0
DWIDTH 8 0
BBX 8 16 0 -4
BITMAP
00
00
7F
00
00
00
3E
00
00
00
00
7F
00
00
00
00
ENDCHAR
STARTCHAR char927
ENCODING 927
SWIDTH 7680 0
DWIDTH 8 0
BBX 8 16 0 -4
BITMAP
00
00
3E
41
41
41
41
41
41
41
41
3E
00
00
00
00
ENDCHAR
STARTCHAR char928
ENCODING 928
SWIDTH 7680 0
DWIDTH 8 0
BBX 8 16 0 -4
BITMAP
00
00
7F
22
22
22
22
22
22
22
22
22
00
00
00
00
ENDCHAR
STARTCHAR char929
ENCODING 929
SWIDTH 7680 0
DWIDTH 8 0
BBX 8 16 0 -4
BITMAP
00
00
7E
41
41
41
7E
40
40
40
40
40
00
00
00
00
ENDCHAR
STARTCHAR char931
ENCODING 931
SWIDTH 7680 0
DWIDTH 8 0
BBX 8 16 0 -4
BITMAP
00
00
7F
40
20
10
08
08
10
20
40
7F
00
00
00
00
ENDCHAR
STARTCHAR char932
ENCODING 932
SWIDTH 7680 0
DWIDTH 8 0
BBX 8 16 0 -4
BITMAP
00
00
7F
08
08
08
08
08
08
08
08
08
00
00
00
00
ENDCHAR
STARTCHAR char933
ENCODING 933
SWIDTH 7680 0
DWIDTH 8 0
BBX 8 16 0 -4
BITMAP
00
00
41
41
22
14
08
08
08
08
08
08
00
00
00
00
ENDCHAR
STARTCHAR char934
ENCODING 934
SWIDTH 7680 0
DWIDTH 8 0
BBX 8 16 0 -4
BITMAP
00
00
08
3E
49
49
49
49
49
49
3E
08
00
00
00
00
ENDCHAR
STARTCHAR char935
ENCODING 935
SWIDTH 7680 0
DWIDTH 8 0
BBX 8 16 0 -4
BITMAP
00
00
41
41
22
14
08
08
14
22
41
41
00
00
00
00
ENDCHAR
STARTCHAR char936
ENCODING 936
SWIDTH 7680 0
DWIDTH 8 0
BBX 8 16 0 -4
BITMAP
00
00
49
49
49
49
49
49
3E
08
08
08
00
00
00
00
ENDCHAR
STARTCHAR char937
ENCODING 937
SWIDTH 7680 0
DWIDTH 8 0
BBX 8 16 0 -4
BITMAP
00
00
3E
41
41
41
41
41
41
36
14
77
00
00
00
00
ENDCHAR
STARTCHAR char938
ENCODING 938
SWIDTH 7680 0
DWIDTH 8 0
BBX 8 16 0 -4
BITMAP
00
22
22
00
3E
08
08
08
08
08
08
3E
00
00
00
00
ENDCHAR
STARTCHAR char939
ENCODING 939
SWIDTH 7680 0
DWIDTH 8 0
BBX 8 16 0 -4
BITMAP
00
41
41
00
41
41
22
14
08
08
08
08
00
00
00
00
ENDCHAR
STARTCHAR char940
ENCODING 940
SWIDTH 7680 0
DWIDTH 8 0
BBX 8 16 0 -4
BITMAP
00
02
04
08
00
3D
43
41
41
43
45
39
00
00
00
00
ENDCHAR
STARTCHAR char941
ENCODING 941
SWIDTH 7680 0
DWIDTH 8 0
BBX 8 16 0 -4
BITMAP
00
02
04
08
00
3E
41
40
3C
40
41
3E
00
00
00
00
ENDCHAR
STARTCHAR char942
ENCODING 942
SWIDTH 7680 0
DWIDTH 8 0
BBX 8 16 0 -4
BITMAP
00
02
04
08
00
5E
61
41
41
41
41
41
01
01
01
00
ENDCHAR
STARTCHAR char943
ENCODING 943
SWIDTH 7680 0
DWIDTH 8 0
BBX 8 16 0 -4
BITMAP
00
04
08
10
00
10
10
10
10
10
12
0C
00
00
00
00
ENDCHAR
STARTCHAR char944
ENCODING 944
SWIDTH 7680 0
DWIDTH 8 0
BBX 8 16 0 -4
BITMAP
00
04
49
51
00
41
41
41
41
41
41
3E
00
00
00
00
ENDCHAR
STARTCHAR char945
ENCODING 945
SWIDTH 7680 0
DWIDTH 8 0
BBX 8 16 0 -4
BITMAP
00
00
00
00
00
3D
43
41
41
43
45
39
00
00
00
00
ENDCHAR
STARTCHAR char946
ENCODING 946
SWIDTH 7680 0
DWIDTH 8 0
BBX 8 16 0 -4
BITMAP
00
00
38
44
44
44
7E
41
41
41
61
5E
40
40
40
00
ENDCHAR
STARTCHAR char947
ENCODING 947
SWIDTH 7680 0
DWIDTH 8 0
BBX 8 16 0 -4
BITMAP
00
00
00
00
00
41
41
22
22
14
14
08
08
08
08
00
ENDCHAR
STARTCHAR char948
ENCODING 948
SWIDTH 7680 0
DWIDTH 8 0
BBX 8 16 0 -4
BITMAP
00
00
3E
41
20
3E
41
41
41
41
41
3E
00
00
00
00
ENDCHAR
STARTCHAR char949
ENCODING 949
SWIDTH 7680 0
DWIDTH 8 0
BBX 8 16 0 -4
BITMAP
00
00
00
00
00
3E
41
40
3C
40
41
3E
00
00
00
00
ENDCHAR
STARTCHAR char950
ENCODING 950
SWIDTH 7680 0
DWIDTH 8 0
BBX 8 16 0 -4
BITMAP
00
00
7F
08
10
20
40
40
40
40
40
3E
01
01
06
00
ENDCHAR
STARTCHAR char951
ENCODING 951
SWIDTH 7680 0
DWIDTH 8 0
BBX 8 16 0 -4
BITMAP
00
00
00
00
00
5E
61
41
41
41
41
41
01
01
01
00
ENDCHAR
STARTCHAR char952
ENCODING 952
SWIDTH 7680 0
DWIDTH 8 0
BBX 8 16 0 -4
BITMAP
00
00
3C
42
42
42
7E
42
42
42
42
3C
00
00
00
00
ENDCHAR
STARTCHAR char953
ENCODING 953
SWIDTH 7680 0
DWIDTH 8 0
BBX 8 16 0 -4
BITMAP
00
00
00
00
00
10
10
10
10
10
12
0C
00
00
00
00
ENDCHAR
STARTCHAR char954
ENCODING 954
SWIDTH 7680 0
DWIDTH 8 0
BBX 8 16 0 -4
BITMAP
00
00
00
00
00
42
44
48
50
68
44
42
00
00
00
00
ENDCHAR
STARTCHAR char955
ENCODING 955
SWIDTH 7680 0
DWIDTH 8 0
BBX 8 16 0 -4
BITMAP
00
00
3C
42
02
3A
46
42
42
42
42
42
00
00
00
00
ENDCHAR
STARTCHAR char956
ENCODING 956
SWIDTH 7680 0
DWIDTH 8 0
BBX 8 16 0 -4
BITMAP
00
00
00
00
00
41
41
41
41
41
63
5D
40
40
40
00
ENDCHAR
STARTCHAR char957
ENCODING 957
SWIDTH 7680 0
DWIDTH 8 0
BBX 8 16 0 -4
BITMAP
00
00
00
00
00
41
41
22
22
14
14
08
00
00
00
00
ENDCHAR
STARTCHAR char958
ENCODING 958
SWIDTH 7680 0
DWIDTH 8 0
BBX 8 16 0 -4
BITMAP
00
00
7F
10
20
20
1C
20
40
40
40
3E
01
01
06
00
ENDCHAR
STARTCHAR char959
ENCODING 959
SWIDTH 7680 0
DWIDTH 8 0
BBX 8 16 0 -4
BITMAP
00
00
00
00
00
3E
41
41
41
41
41
3E
00
00
00
00
ENDCHAR
STARTCHAR char960
ENCODING 960
SWIDTH 7680 0
DWIDTH 8 0
BBX 8 16 0 -4
BITMAP
00
00
00
00
00
7F
22
22
22
22
22
22
00
00
00
00
ENDCHAR
STARTCHAR char961
ENCODING 961
SWIDTH 7680 0
DWIDTH 8 0
BBX 8 16 0 -4
BITMAP
00
00
00
00
00
3E
41
41
41
41
61
5E
40
40
40
00
ENDCHAR
STARTCHAR char962
ENCODING 962
SWIDTH 7680 0
DWIDTH 8 0
BBX 8 16 0 -4
BITMAP
00
00
00
00
00
3E
41
40
40
40
40
3E
01
01
0E
00
ENDCHAR
STARTCHAR char963
ENCODING 963
SWIDTH 7680 0
DWIDTH 8 0
BBX 8 16 0 -4
BITMAP
00
00
00
00
00
3F
44
42
41
41
41
3E
00
00
00
00
ENDCHAR
STARTCHAR char964
ENCODING 964
SWIDTH 7680 0
DWIDTH 8 0
BBX 8 16 0 -4
BITMAP
00
00
00
00
00
7F
08
08
08
08
09
06
00
00
00
00
ENDCHAR
STARTCHAR char965
ENCODING 965
SWIDTH 7680 0
DWIDTH 8 0
BBX 8 16 0 -4
BITMAP
00
00
00
00
00
41
41
41
41
41
41
3E
00
00
00
00
ENDCHAR
STARTCHAR char966
ENCODING 966
SWIDTH 7680 0
DWIDTH 8 0
BBX 8 16 0 -4
BITMAP
00
00
00
00
00
26
49
49
49
49
49
3E
08
08
08
00
ENDCHAR
STARTCHAR char967
ENCODING 967
SWIDTH 7680 0
DWIDTH 8 0
BBX 8 16 0 -4
BITMAP
00
00
00
00
00
41
41
22
14
08
08
14
22
41
41
00
ENDCHAR
STARTCHAR char968
ENCODING 968
SWIDTH 7680 0
DWIDTH 8 0
BBX 8 16 0 -4
BITMAP
00
00
00
00
00
49
49
49
49
49
49
3E
08
08
08
00
ENDCHAR
STARTCHAR char969
ENCODING 969
SWIDTH 7680 0
DWIDTH 8 0
BBX 8 16 0 -4
BITMAP
00
00
00
00
00
41
49
49
49
49
49
36
00
00
00
00
ENDCHAR
STARTCHAR char970
ENCODING 970
SWIDTH 7680 0
DWIDTH 8 0
BBX 8 16 0 -4
BITMAP
00
00
41
41
00
08
08
08
08
08
09
06
00
00
00
00
ENDCHAR
STARTCHAR char971
ENCODING 971
SWIDTH 7680 0
DWIDTH 8 0
BBX 8 16 0 -4
BITMAP
00
00
41
41
00
41
41
41
41
41
41
3E
00
00
00
00
ENDCHAR
STARTCHAR char972
ENCODING 972
SWIDTH 7680 0
DWIDTH 8 0
BBX 8 16 0 -4
BITMAP
00
02
04
08
00
3E
41
41
41
41
41
3E
00
00
00
00
ENDCHAR
STARTCHAR char973
ENCODING 973
SWIDTH 7680 0
DWIDTH 8 0
BBX 8 16 0 -4
BITMAP
00
02
04
08
00
41
41
41
41
41
41
3E
00
00
00
00
ENDCHAR
STARTCHAR char974
ENCODING 974
SWIDTH 7680 0
DWIDTH 8 0
BBX 8 16 0 -4
BITMAP
00
02
04
08
00
41
49
49
49
49
49
36
00
00
00
00
ENDCHAR
STARTCHAR char976
ENCODING 976
SWIDTH 7680 0
DWIDTH 8 0
BBX 8 16 0 -4
BITMAP
00
00
1C
22
42
44
5E
61
41
41
22
1C
00
00
00
00
ENDCHAR
STARTCHAR char977
ENCODING 977
SWIDTH 7680 0
DWIDTH 8 0
BBX 8 16 0 -4
BITMAP
00
00
1C
22
22
1F
02
62
22
22
22
1C
00
00
00
00
ENDCHAR
STARTCHAR char978
ENCODING 978
SWIDTH 7680 0
DWIDTH 8 0
BBX 8 16 0 -4
BITMAP
00
00
22
55
14
14
08
08
08
08
08
08
00
00
00
00
ENDCHAR
STARTCHAR char979
ENCODING 979
SWIDTH 7680 0
DWIDTH 8 0
BBX 8 16 0 -4
BITMAP
00
00
4A
55
84
04
04
04
04
04
04
04
00
00
00
00
ENDCHAR
STARTCHAR char980
ENCODING 980
SWIDTH 7680 0
DWIDTH 8 0
BBX 8 16 0 -4
BITMAP
00
41
41
00
22
55
14
08
08
08
08
08
00
00
00
00
ENDCHAR
STARTCHAR char981
ENCODING 981
SWIDTH 7680 0
DWIDTH 8 0
BBX 8 16 0 -4
BITMAP
00
00
08
08
08
3E
49
49
49
49
49
3E
08
08
08
00
ENDCHAR
STARTCHAR char982
ENCODING 982
SWIDTH 7680 0
DWIDTH 8 0
BBX 8 16 0 -4
BITMAP
00
00
00
00
00
7F
22
49
49
49
49
36
00
00
00
00
ENDCHAR
STARTCHAR char983
ENCODING 983
SWIDTH 7680 0
DWIDTH 8 0
BBX 8 16 0 -4
BITMAP
00
20
10
08
00
61
12
14
18
14
25
43
01
02
3C
00
ENDCHAR
STARTCHAR char984
ENCODING 984
SWIDTH 7680 0
DWIDTH 8 0
BBX 8 16 0 -4
BITMAP
00
00
3E
41
41
41
41
41
41
41
41
3E
08
08
08
00
ENDCHAR
STARTCHAR char985
ENCODING 985
SWIDTH 7680 0
DWIDTH 8 0
BBX 8 16 0 -4
BITMAP
00
00
00
00
00
3E
41
41
41
41
41
3E
08
08
08
00
ENDCHAR
STARTCHAR char986
ENCODING 986
SWIDTH 7680 0
DWIDTH 8 0
BBX 8 16 0 -4
BITMAP
00
00
1E
21
40
40
40
40
40
40
3E
01
01
06
00
00
ENDCHAR
STARTCHAR char987
ENCODING 987
SWIDTH 7680 0
DWIDTH 8 0
BBX 8 16 0 -4
BITMAP
00
00
00
00
01
3E
40
40
40
40
40
3E
01
01
06
00
ENDCHAR
STARTCHAR char988
ENCODING 988
SWIDTH 7680 0
DWIDTH 8 0
BBX 8 16 0 -4
BITMAP
00
00
7F
40
40
40
7C
40
40
40
40
40
00
00
00
00
ENDCHAR
STARTCHAR char989
ENCODING 989
SWIDTH 7680 0
DWIDTH 8 0
BBX 8 16 0 -4
BITMAP
00
00
00
00
00
3E
20
20
20
3C
20
20
20
20
20
00
ENDCHAR
STARTCHAR char990
ENCODING 990
SWIDTH 7680 0
DWIDTH 8 0
BBX 8 16 0 -4
BITMAP
00
00
80
40
42
46
4A
52
62
42
02
01
00
00
00
00
ENDCHAR
STARTCHAR char991
ENCODING 991
SWIDTH 7680 0
DWIDTH 8 0
BBX 8 16 0 -4
BITMAP
00
00
10
10
20
20
20
40
7E
02
04
04
04
08
08
00
ENDCHAR
STARTCHAR char992
ENCODING 992
SWIDTH 7680 0
DWIDTH 8 0
BBX 8 16 0 -4
BITMAP
00
00
08
14
14
14
22
26
26
49
49
49
00
00
00
00
ENDCHAR
STARTCHAR char993
ENCODING 993
SWIDTH 7680 0
DWIDTH 8 0
BBX 8 16 0 -4
BITMAP
00
00
60
18
04
04
0A
12
25
09
11
01
01
01
01
00
ENDCHAR
STARTCHAR char994
ENCODING 994
SWIDTH 7680 0
DWIDTH 8 0
BBX 8 16 0 -4
BITMAP
00
00
49
49
49
49
49
49
49
37
01
3E
00
00
00
00
ENDCHAR
STARTCHAR char995
ENCODING 995
SWIDTH 7680 0
DWIDTH 8 0
BBX 8 16 0 -4
BITMAP
00
00
00
00
00
49
49
49
49
49
49
37
01
3E
00
00
ENDCHAR
STARTCHAR char996
ENCODING 996
SWIDTH 7680 0
DWIDTH 8 0
BBX 8 16 0 -4
BITMAP
00
00
31
49
41
41
41
41
3F
01
01
01
00
00
00
00
ENDCHAR
STARTCHAR char997
ENCODING 997
SWIDTH 7680 0
DWIDTH 8 0
BBX 8 16 0 -4
BITMAP
00
00
14
24
24
24
24
1C
04
04
04
04
00
00
00
00
ENDCHAR
STARTCHAR char998
ENCODING 998
SWIDTH 7680 0
DWIDTH 8 0
BBX 8 16 0 -4
BITMAP
00
00
70
20
20
20
3C
22
21
21
21
71
02
1C
00
00
ENDCHAR
STARTCHAR char999
ENCODING 999
SWIDTH 7680 0
DWIDTH 8 0
BBX 8 16 0 -4
BITMAP
00
00
00
00
10
10
3E
51
21
01
41
3E
00
00
00
00
ENDCHAR
STARTCHAR char1000
ENCODING 1000
SWIDTH 7680 0
DWIDTH 8 0
BBX 8 16 0 -4
BITMAP
00
00
3E
41
41
21
02
1C
20
41
41
3E
00
00
00
00
ENDCHAR
STARTCHAR char1001
ENCODING 1001
SWIDTH 7680 0
DWIDTH 8 0
BBX 8 16 0 -4
BITMAP
00
00
3C
42
42
42
24
18
30
40
40
3E
00
00
00
00
ENDCHAR
STARTCHAR char1002
ENCODING 1002
SWIDTH 7680 0
DWIDTH 8 0
BBX 8 16 0 -4
BITMAP
00
00
63
14
08
08
14
14
22
22
41
7F
00
00
00
00
ENDCHAR
STARTCHAR char1003
ENCODING 1003
SWIDTH 7680 0
DWIDTH 8 0
BBX 8 16 0 -4
BITMAP
00
00
00
00
63
14
08
08
14
14
22
3E
00
00
00
00
ENDCHAR
STARTCHAR char1004
ENCODING 1004
SWIDTH 7680 0
DWIDTH 8 0
BBX 8 16 0 -4
BITMAP
00
00
3E
40
5E
61
41
41
41
41
21
1E
00
00
00
00
ENDCHAR
STARTCHAR char1005
ENCODING 1005
SWIDTH 7680 0
DWIDTH 8 0
BBX 8 16 0 -4
BITMAP
00
00
00
00
00
3F
40
5E
41
41
41
3E
00
00
00
00
ENDCHAR
STARTCHAR char1006
ENCODING 1006
SWIDTH 7680 0
DWIDTH 8 0
BBX 8 16 0 -4
BITMAP
00
00
1C
08
7F
49
08
08
08
08
08
08
00
00
00
00
ENDCHAR
STARTCHAR char1007
ENCODING 1007
SWIDTH 7680 0
DWIDTH 8 0
BBX 8 16 0 -4
BITMAP
00
00
00
00
08
09
7F
48
08
08
08
08
00
00
00
00
ENDCHAR
STARTCHAR char1008
ENCODING 1008
SWIDTH 7680 0
DWIDTH 8 0
BBX 8 16 0 -4
BITMAP
00
00
00
00
00
61
12
14
18
14
24
43
00
00
00
00
ENDCHAR
STARTCHAR char1009
ENCODING 1009
SWIDTH 7680 0
DWIDTH 8 0
BBX 8 16 0 -4
BITMAP
00
00
00
00
00
3E
41
41
41
41
61
5E
40
20
1E
00
ENDCHAR
STARTCHAR char1010
ENCODING 1010
SWIDTH 7680 0
DWIDTH 8 0
BBX 8 16 0 -4
BITMAP
00
00
00
00
00
3E
41
40
40
40
41
3E
00
00
00
00
ENDCHAR
STARTCHAR char1011
ENCODING 1011
SWIDTH 7680 0
DWIDTH 8 0
BBX 8 16 0 -4
BITMAP
00
00
06
00
00
0E
02
02
02
02
02
42
42
42
3C
00
ENDCHAR
STARTCHAR char1012
ENCODING 1012
SWIDTH 7680 0
DWIDTH 8 0
BBX 8 16 0 -4
BITMAP
00
00
3E
41
41
41
7F
41
41
41
41
3E
00
00
00
00
ENDCHAR
STARTCHAR char1013
ENCODING 1013
SWIDTH 7680 0
DWIDTH 8 0
BBX 8 16 0 -4
BITMAP
00
00
00
00
00
3E
40
40
7C
40
40
3E
00
00
00
00
ENDCHAR
STARTCHAR char1014
ENCODING 1014
SWIDTH 7680 0
DWIDTH 8 0
BBX 8 16 0 -4
BITMAP
00
00
00
00
00
7C
02
02
3E
02
02
7C
00
00
00
00
ENDCHAR
STARTCHAR char1024
ENCODING 1024
SWIDTH 7680 0
DWIDTH 8 0
BBX 8 16 0 -4
BITMAP
10
08
04
00
7F
40
40
7C
40
40
40
7F
00
00
00
00
ENDCHAR
STARTCHAR char1025
ENCODING 1025
SWIDTH 7680 0
DWIDTH 8 0
BBX 8 16 0 -4
BITMAP
00
22
22
00
7F
40
40
7C
40
40
40
7F
00
00
00
00
ENDCHAR
STARTCHAR char1026
ENCODING 1026
SWIDTH 7680 0
DWIDTH 8 0
BBX 8 16 0 -4
BITMAP
00
00
7E
10
10
10
1E
11
11
11
11
11
01
06
00
00
ENDCHAR
STARTCHAR char1027
ENCODING 1027
SWIDTH 7680 0
DWIDTH 8 0
BBX 8 16 0 -4
BITMAP
02
04
08
00
7F
40
40
40
40
40
40
40
00
00
00
00
ENDCHAR
STARTCHAR char1028
ENCODING 1028
SWIDTH 7680 0
DWIDTH 8 0
BBX 8 16 0 -4
BITMAP
00
00
00
1E
21
40
40
78
40
40
21
1E
00
00
00
00
ENDCHAR
STARTCHAR char1029
ENCODING 1029
SWIDTH 7680 0
DWIDTH 8 0
BBX 8 16 0 -4
BITMAP
00
00
3E
41
41
40
38
06
01
41
41
3E
00
00
00
00
ENDCHAR
STARTCHAR char1030
ENCODING 1030
SWIDTH 7680 0
DWIDTH 8 0
BBX 8 16 0 -4
BITMAP
00
00
3E
08
08
08
08
08
08
08
08
3E
00
00
00
00
ENDCHAR
STARTCHAR char1031
ENCODING 1031
SWIDTH 7680 0
DWIDTH 8 0
BBX 8 16 0 -4
BITMAP
00
22
22
00
3E
08
08
08
08
08
08
3E
00
00
00
00
ENDCHAR
STARTCHAR char1032
ENCODING 1032
SWIDTH 7680 0
DWIDTH 8 0
BBX 8 16 0 -4
BITMAP
00
00
0F
02
02
02
02
02
02
02
42
3C
00
00
00
00
ENDCHAR
STARTCHAR char1033
ENCODING 1033
SWIDTH 7680 0
DWIDTH 8 0
BBX 8 16 0 -4
BITMAP
00
00
F8
48
48
48
4E
89
89
89
89
8E
00
00
00
00
ENDCHAR
STARTCHAR char1034
ENCODING 1034
SWIDTH 7680 0
DWIDTH 8 0
BBX 8 16 0 -4
BITMAP
00
00
88
88
88
88
FE
89
89
89
89
8E
00
00
00
00
ENDCHAR
STARTCHAR char1035
ENCODING 1035
SWIDTH 7680 0
DWIDTH 8 0
BBX 8 16 0 -4
BITMAP
00
00
7E
10
10
10
1E
11
11
11
11
11
00
00
00
00
ENDCHAR
STARTCHAR char1036
ENCODING 1036
SWIDTH 7680 0
DWIDTH 8 0
BBX 8 16 0 -4
BITMAP
04
08
10
00
42
44
48
70
50
48
44
42
00
00
00
00
ENDCHAR
STARTCHAR char1037
ENCODING 1037
SWIDTH 7680 0
DWIDTH 8 0
BBX 8 16 0 -4
BITMAP
00
20
10
08
41
43
45
49
51
61
41
41
00
00
00
00
ENDCHAR
STARTCHAR char1038
ENCODING 1038
SWIDTH 7680 0
DWIDTH 8 0
BBX 8 16 0 -4
BITMAP
00
22
1C
00
41
41
41
43
3D
01
41
3E
00
00
00
00
ENDCHAR
STARTCHAR char1039
ENCODING 1039
SWIDTH 7680 0
DWIDTH 8 0
BBX 8 16 0 -4
BITMAP
00
00
41
41
41
41
41
41
41
41
41
7F
08
08
00
00
ENDCHAR
STARTCHAR char1040
ENCODING 1040
SWIDTH 7680 0
DWIDTH 8 0
BBX 8 16 0 -4
BITMAP
00
00
08
14
22
41
41
41
7F
41
41
41
00
00
00
00
ENDCHAR
STARTCHAR char1041
ENCODING 1041
SWIDTH 7680 0
DWIDTH 8 0
BBX 8 16 0 -4
BITMAP
00
00
7E
40
40
40
7E
41
41
41
41
7E
00
00
00
00
ENDCHAR
STARTCHAR char1042
ENCODING 1042
SWIDTH 7680 0
DWIDTH 8 0
BBX 8 16 0 -4
BITMAP
00
00
7C
42
41
42
7C
42
41
41
42
7C
00
00
00
00
ENDCHAR
STARTCHAR char1043
ENCODING 1043
SWIDTH 7680 0
DWIDTH 8 0
BBX 8 16 0 -4
BITMAP
00
00
7F
40
40
40
40
40
40
40
40
40
00
00
00
00
ENDCHAR
STARTCHAR char1044
ENCODING 1044
SWIDTH 7680 0
DWIDTH 8 0
BBX 8 16 0 -4
BITMAP
00
00
1E
12
12
12
12
22
22
22
22
7F
41
00
00
00
ENDCHAR
STARTCHAR char1045
ENCODING 1045
SWIDTH 7680 0
DWIDTH 8 0
BBX 8 16 0 -4
BITMAP
00
00
7F
40
40
40
7C
40
40
40
40
7F
00
00
00
00
ENDCHAR
STARTCHAR char1046
ENCODING 1046
SWIDTH 7680 0
DWIDTH 8 0
BBX 8 16 0 -4
BITMAP
00
00
49
49
2A
2A
1C
2A
2A
49
49
49
00
00
00
00
ENDCHAR
STARTCHAR char1047
ENCODING 1047
SWIDTH 7680 0
DWIDTH 8 0
BBX 8 16 0 -4
BITMAP
00
00
3E
41
01
01
0E
01
01
01
41
3E
00
00
00
00
ENDCHAR
STARTCHAR char1048
ENCODING 1048
SWIDTH 7680 0
DWIDTH 8 0
BBX 8 16 0 -4
BITMAP
00
00
41
41
43
45
49
51
61
41
41
41
00
00
00
00
ENDCHAR
STARTCHAR char1049
ENCODING 1049
SWIDTH 7680 0
DWIDTH 8 0
BBX 8 16 0 -4
BITMAP
00
22
1C
00
41
43
45
49
51
61
41
41
00
00
00
00
ENDCHAR
STARTCHAR char1050
ENCODING 1050
SWIDTH 7680 0
DWIDTH 8 0
BBX 8 16 0 -4
BITMAP
00
00
41
42
44
48
70
50
48
44
42
41
00
00
00
00
ENDCHAR
STARTCHAR char1051
ENCODING 1051
SWIDTH 7680 0
DWIDTH 8 0
BBX 8 16 0 -4
BITMAP
00
00
3F
21
21
21
21
21
21
21
21
41
00
00
00
00
ENDCHAR
STARTCHAR char1052
ENCODING 1052
SWIDTH 7680 0
DWIDTH 8 0
BBX 8 16 0 -4
BITMAP
00
00
41
41
63
55
55
49
49
41
41
41
00
00
00
00
ENDCHAR
STARTCHAR char1053
ENCODING 1053
SWIDTH 7680 0
DWIDTH 8 0
BBX 8 16 0 -4
BITMAP
00
00
41
41
41
41
7F
41
41
41
41
41
00
00
00
00
ENDCHAR
STARTCHAR char1054
ENCODING 1054
SWIDTH 7680 0
DWIDTH 8 0
BBX 8 16 0 -4
BITMAP
00
00
3E
41
41
41
41
41
41
41
41
3E
00
00
00
00
ENDCHAR
STARTCHAR char1055
ENCODING 1055
SWIDTH 7680 0
DWIDTH 8 0
BBX 8 16 0 -4
BITMAP
00
00
7F
41
41
41
41
41
41
41
41
41
00
00
00
00
ENDCHAR
STARTCHAR char1056
ENCODING 1056
SWIDTH 7680 0
DWIDTH 8 0
BBX 8 16 0 -4
BITMAP
00
00
7E
41
41
41
7E
40
40
40
40
40
00
00
00
00
ENDCHAR
STARTCHAR char1057
ENCODING 1057
SWIDTH 7680 0
DWIDTH 8 0
BBX 8 16 0 -4
BITMAP
00
00
3E
41
40
40
40
40
40
40
41
3E
00
00
00
00
ENDCHAR
STARTCHAR char1058
ENCODING 1058
SWIDTH 7680 0
DWIDTH 8 0
BBX 8 16 0 -4
BITMAP
00
00
7F
08
08
08
08
08
08
08
08
08
00
00
00
00
ENDCHAR
STARTCHAR char1059
ENCODING 1059
SWIDTH 7680 0
DWIDTH 8 0
BBX 8 16 0 -4
BITMAP
00
00
41
41
41
41
41
43
3D
01
41
3E
00
00
00
00
ENDCHAR
STARTCHAR char1060
ENCODING 1060
SWIDTH 7680 0
DWIDTH 8 0
BBX 8 16 0 -4
BITMAP
00
00
08
3E
49
49
49
49
49
49
3E
08
00
00
00
00
ENDCHAR
STARTCHAR char1061
ENCODING 1061
SWIDTH 7680 0
DWIDTH 8 0
BBX 8 16 0 -4
BITMAP
00
00
41
41
22
14
08
08
14
22
41
41
00
00
00
00
ENDCHAR
STARTCHAR char1062
ENCODING 1062
SWIDTH 7680 0
DWIDTH 8 0
BBX 8 16 0 -4
BITMAP
00
00
42
42
42
42
42
42
42
42
42
7F
01
01
00
00
ENDCHAR
STARTCHAR char1063
ENCODING 1063
SWIDTH 7680 0
DWIDTH 8 0
BBX 8 16 0 -4
BITMAP
00
00
41
41
41
41
41
3F
01
01
01
01
00
00
00
00
ENDCHAR
STARTCHAR char1064
ENCODING 1064
SWIDTH 7680 0
DWIDTH 8 0
BBX 8 16 0 -4
BITMAP
00
00
49
49
49
49
49
49
49
49
49
7F
00
00
00
00
ENDCHAR
STARTCHAR char1065
ENCODING 1065
SWIDTH 7680 0
DWIDTH 8 0
BBX 8 16 0 -4
BITMAP
00
00
49
49
49
49
49
49
49
49
49
7F
01
01
00
00
ENDCHAR
STARTCHAR char1066
ENCODING 1066
SWIDTH 7680 0
DWIDTH 8 0
BBX 8 16 0 -4
BITMAP
00
00
70
10
10
10
1E
11
11
11
11
1E
00
00
00
00
ENDCHAR
STARTCHAR char1067
ENCODING 1067
SWIDTH 7680 0
DWIDTH 8 0
BBX 8 16 0 -4
BITMAP
00
00
41
41
41
41
79
45
45
45
45
79
00
00
00
00
ENDCHAR
STARTCHAR char1068
ENCODING 1068
SWIDTH 7680 0
DWIDTH 8 0
BBX 8 16 0 -4
BITMAP
00
00
40
40
40
40
7E
41
41
41
41
7E
00
00
00
00
ENDCHAR
STARTCHAR char1069
ENCODING 1069
SWIDTH 7680 0
DWIDTH 8 0
BBX 8 16 0 -4
BITMAP
00
00
00
3C
42
01
01
0F
01
01
42
3C
00
00
00
00
ENDCHAR
STARTCHAR char1070
ENCODING 1070
SWIDTH 7680 0
DWIDTH 8 0
BBX 8 16 0 -4
BITMAP
00
00
4E
51
51
51
71
51
51
51
51
4E
00
00
00
00
ENDCHAR
STARTCHAR char1071
ENCODING 1071
SWIDTH 7680 0
DWIDTH 8 0
BBX 8 16 0 -4
BITMAP
00
00
3F
41
41
41
3F
09
11
21
41
41
00
00
00
00
ENDCHAR
STARTCHAR char1072
ENCODING 1072
SWIDTH 7680 0
DWIDTH 8 0
BBX 8 16 0 -4
BITMAP
00
00
00
00
00
3E
01
01
3F
41
43
3D
00
00
00
00
ENDCHAR
STARTCHAR char1073
ENCODING 1073
SWIDTH 7680 0
DWIDTH 8 0
BBX 8 16 0 -4
BITMAP
00
00
01
3E
40
5E
61
41
41
41
41
3E
00
00
00
00
ENDCHAR
STARTCHAR char1074
ENCODING 1074
SWIDTH 7680 0
DWIDTH 8 0
BBX 8 16 0 -4
BITMAP
00
00
00
00
00
7E
41
41
7E
41
41
7E
00
00
00
00
ENDCHAR
STARTCHAR char1075
ENCODING 1075
SWIDTH 7680 0
DWIDTH 8 0
BBX 8 16 0 -4
BITMAP
00
00
00
00
00
7F
40
40
40
40
40
40
00
00
00
00
ENDCHAR
STARTCHAR char1076
ENCODING 1076
SWIDTH 7680 0
DWIDTH 8 0
BBX 8 16 0 -4
BITMAP
00
00
00
00
00
1E
12
12
12
22
22
7F
41
00
00
00
ENDCHAR
STARTCHAR char1077
ENCODING 1077
SWIDTH 7680 0
DWIDTH 8 0
BBX 8 16 0 -4
BITMAP
00
00
00
00
00
3E
41
41
7F
40
40
3E
00
00
00
00
ENDCHAR
STARTCHAR char1078
ENCODING 1078
SWIDTH 7680 0
DWIDTH 8 0
BBX 8 16 0 -4
BITMAP
00
00
00
00
00
49
49
2A
1C
2A
49
49
00
00
00
00
ENDCHAR
STARTCHAR char1079
ENCODING 1079
SWIDTH 7680 0
DWIDTH 8 0
BBX 8 16 0 -4
BITMAP
00
00
00
00
00
3E
41
01
0E
01
41
3E
00
00
00
00
ENDCHAR
STARTCHAR char1080
ENCODING 1080
SWIDTH 7680 0
DWIDTH 8 0
BBX 8 16 0 -4
BITMAP
00
00
00
00
00
41
43
45
49
51
61
41
00
00
00
00
ENDCHAR
STARTCHAR char1081
ENCODING 1081
SWIDTH 7680 0
DWIDTH 8 0
BBX 8 16 0 -4
BITMAP
00
00
22
1C
00
41
43
45
49
51
61
41
00
00
00
00
ENDCHAR
STARTCHAR char1082
ENCODING 1082
SWIDTH 7680 0
DWIDTH 8 0
BBX 8 16 0 -4
BITMAP
00
00
00
00
00
41
42
44
78
44
42
41
00
00
00
00
ENDCHAR
STARTCHAR char1083
ENCODING 1083
SWIDTH 7680 0
DWIDTH 8 0
BBX 8 16 0 -4
BITMAP
00
00
00
00
00
1F
11
11
11
11
11
61
00
00
00
00
ENDCHAR
STARTCHAR char1084
ENCODING 1084
SWIDTH 7680 0
DWIDTH 8 0
BBX 8 16 0 -4
BITMAP
00
00
00
00
00
41
63
55
49
41
41
41
00
00
00
00
ENDCHAR
STARTCHAR char1085
ENCODING 1085
SWIDTH 7680 0
DWIDTH 8 0
BBX 8 16 0 -4
BITMAP
00
00
00
00
00
41
41
41
7F
41
41
41
00
00
00
00
ENDCHAR
STARTCHAR char1086
ENCODING 1086
SWIDTH 7680 0
DWIDTH 8 0
BBX 8 16 0 -4
BITMAP
00
00
00
00
00
3E
41
41
41
41
41
3E
00
00
00
00
ENDCHAR
STARTCHAR char1087
ENCODING 1087
SWIDTH 7680 0
DWIDTH 8 0
BBX 8 16 0 -4
BITMAP
00
00
00
00
00
7F
41
41
41
41
41
41
00
00
00
00
ENDCHAR
STARTCHAR char1088
ENCODING 1088
SWIDTH 7680 0
DWIDTH 8 0
BBX 8 16 0 -4
BITMAP
00
00
00
00
00
5E
61
41
41
41
61
5E
40
40
40
00
ENDCHAR
STARTCHAR char1089
ENCODING 1089
SWIDTH 7680 0
DWIDTH 8 0
BBX 8 16 0 -4
BITMAP
00
00
00
00
00
3E
41
40
40
40
41
3E
00
00
00
00
ENDCHAR
STARTCHAR char1090
ENCODING 1090
SWIDTH 7680 0
DWIDTH 8 0
BBX 8 16 0 -4
BITMAP
00
00
00
00
00
7F
08
08
08
08
08
08
00
00
00
00
ENDCHAR
STARTCHAR char1091
ENCODING 1091
SWIDTH 7680 0
DWIDTH 8 0
BBX 8 16 0 -4
BITMAP
00
00
00
00
00
41
41
41
41
41
43
3D
01
41
3E
00
ENDCHAR
STARTCHAR char1092
ENCODING 1092
SWIDTH 7680 0
DWIDTH 8 0
BBX 8 16 0 -4
BITMAP
00
00
08
08
08
3E
49
49
49
49
49
3E
08
08
08
00
ENDCHAR
STARTCHAR char1093
ENCODING 1093
SWIDTH 7680 0
DWIDTH 8 0
BBX 8 16 0 -4
BITMAP
00
00
00
00
00
41
22
14
08
14
22
41
00
00
00
00
ENDCHAR
STARTCHAR char1094
ENCODING 1094
SWIDTH 7680 0
DWIDTH 8 0
BBX 8 16 0 -4
BITMAP
00
00
00
00
00
42
42
42
42
42
42
7F
01
01
00
00
ENDCHAR
STARTCHAR char1095
ENCODING 1095
SWIDTH 7680 0
DWIDTH 8 0
BBX 8 16 0 -4
BITMAP
00
00
00
00
00
41
41
41
3F
01
01
01
00
00
00
00
ENDCHAR
STARTCHAR char1096
ENCODING 1096
SWIDTH 7680 0
DWIDTH 8 0
BBX 8 16 0 -4
BITMAP
00
00
00
00
00
49
49
49
49
49
49
7F
00
00
00
00
ENDCHAR
STARTCHAR char1097
ENCODING 1097
SWIDTH 7680 0
DWIDTH 8 0
BBX 8 16 0 -4
BITMAP
00
00
00
00
00
49
49
49
49
49
49
7F
01
01
00
00
ENDCHAR
STARTCHAR char1098
ENCODING 1098
SWIDTH 7680 0
DWIDTH 8 0
BBX 8 16 0 -4
BITMAP
00
00
00
00
00
70
10
10
1E
11
11
1E
00
00
00
00
ENDCHAR
STARTCHAR char1099
ENCODING 1099
SWIDTH 7680 0
DWIDTH 8 0
BBX 8 16 0 -4
BITMAP
00
00
00
00
00
41
41
41
79
45
45
79
00
00
00
00
ENDCHAR
STARTCHAR char1100
ENCODING 1100
SWIDTH 7680 0
DWIDTH 8 0
BBX 8 16 0 -4
BITMAP
00
00
00
00
00
40
40
40
7E
41
41
7E
00
00
00
00
ENDCHAR
STARTCHAR char1101
ENCODING 1101
SWIDTH 7680 0
DWIDTH 8 0
BBX 8 16 0 -4
BITMAP
00
00
00
00
00
3E
41
01
0F
01
41
3E
00
00
00
00
ENDCHAR
STARTCHAR char1102
ENCODING 1102
SWIDTH 7680 0
DWIDTH 8 0
BBX 8 16 0 -4
BITMAP
00
00
00
00
00
4E
51
51
71
51
51
4E
00
00
00
00
ENDCHAR
STARTCHAR char1103
ENCODING 1103
SWIDTH 7680 0
DWIDTH 8 0
BBX 8 16 0 -4
BITMAP
00
00
00
00
00
3F
41
41
3F
11
21
41
00
00
00
00
ENDCHAR
STARTCHAR char1104
ENCODING 1104
SWIDTH 7680 0
DWIDTH 8 0
BBX 8 16 0 -4
BITMAP
00
20
10
08
00
3E
41
41
7F
40
40
3E
00
00
00
00
ENDCHAR
STARTCHAR char1105
ENCODING 1105
SWIDTH 7680 0
DWIDTH 8 0
BBX 8 16 0 -4
BITMAP
00
00
22
22
00
3E
41
41
7F
40
40
3E
00
00
00
00
ENDCHAR
STARTCHAR char1106
ENCODING 1106
SWIDTH 7680 0
DWIDTH 8 0
BBX 8 16 0 -4
BITMAP
00
00
20
7C
20
2E
31
21
21
21
21
21
01
0E
00
00
ENDCHAR
STARTCHAR char1107
ENCODING 1107
SWIDTH 7680 0
DWIDTH 8 0
BBX 8 16 0 -4
BITMAP
00
02
04
08
00
7F
40
40
40
40
40
40
00
00
00
00
ENDCHAR
STARTCHAR char1108
ENCODING 1108
SWIDTH 7680 0
DWIDTH 8 0
BBX 8 16 0 -4
BITMAP
00
00
00
00
00
3E
41
40
78
40
41
3E
00
00
00
00
ENDCHAR
STARTCHAR char1109
ENCODING 1109
SWIDTH 7680 0
DWIDTH 8 0
BBX 8 16 0 -4
BITMAP
00
00
00
00
00
3E
41
40
3E
01
41
3E
00
00
00
00
ENDCHAR
STARTCHAR char1110
ENCODING 1110
SWIDTH 7680 0
DWIDTH 8 0
BBX 8 16 0 -4
BITMAP
00
00
00
18
00
38
08
08
08
08
08
3E
00
00
00
00
ENDCHAR
STARTCHAR char1111
ENCODING 1111
SWIDTH 7680 0
DWIDTH 8 0
BBX 8 16 0 -4
BITMAP
00
00
24
24
00
38
08
08
08
08
08
3E
00
00
00
00
ENDCHAR
STARTCHAR char1112
ENCODING 1112
SWIDTH 7680 0
DWIDTH 8 0
BBX 8 16 0 -4
BITMAP
00
00
00
06
00
0E
02
02
02
02
02
42
42
42
3C
00
ENDCHAR
STARTCHAR char1113
ENCODING 1113
SWIDTH 7680 0
DWIDTH 8 0
BBX 8 16 0 -4
BITMAP
00
00
00
00
00
78
48
48
4E
49
49
8E
00
00
00
00
ENDCHAR
STARTCHAR char1114
ENCODING 1114
SWIDTH 7680 0
DWIDTH 8 0
BBX 8 16 0 -4
BITMAP
00
00
00
00
00
48
48
48
7E
49
49
4E
00
00
00
00
ENDCHAR
STARTCHAR char1115
ENCODING 1115
SWIDTH 7680 0
DWIDTH 8 0
BBX 8 16 0 -4
BITMAP
00
00
20
7C
20
2E
31
21
21
21
21
21
00
00
00
00
ENDCHAR
STARTCHAR char1116
ENCODING 1116
SWIDTH 7680 0
DWIDTH 8 0
BBX 8 16 0 -4
BITMAP
00
00
02
04
08
41
42
44
78
44
42
41
00
00
00
00
ENDCHAR
STARTCHAR char1117
ENCODING 1117
SWIDTH 7680 0
DWIDTH 8 0
BBX 8 16 0 -4
BITMAP
00
00
20
10
08
41
43
45
49
51
61
41
00
00
00
00
ENDCHAR
STARTCHAR char1118
ENCODING 1118
SWIDTH 7680 0
DWIDTH 8 0
BBX 8 16 0 -4
BITMAP
00
00
22
1C
00
41
41
41
41
41
43
3D
01
41
3E
00
ENDCHAR
STARTCHAR char1119
ENCODING 1119
SWIDTH 7680 0
DWIDTH 8 0
BBX 8 16 0 -4
BITMAP
00
00
00
00
00
41
41
41
41
41
41
7F
08
08
00
00
ENDCHAR
STARTCHAR char1120
ENCODING 1120
SWIDTH 7680 0
DWIDTH 8 0
BBX 8 16 0 -4
BITMAP
00
00
36
41
41
49
49
49
49
49
49
36
00
00
00
00
ENDCHAR
STARTCHAR char1121
ENCODING 1121
SWIDTH 7680 0
DWIDTH 8 0
BBX 8 16 0 -4
BITMAP
00
00
00
00
00
36
41
41
49
49
49
36
00
00
00
00
ENDCHAR
STARTCHAR char1122
ENCODING 1122
SWIDTH 7680 0
DWIDTH 8 0
BBX 8 16 0 -4
BITMAP
00
00
10
7C
10
10
1E
11
11
11
11
1E
00
00
00
00
ENDCHAR
STARTCHAR char1123
ENCODING 1123
SWIDTH 7680 0
DWIDTH 8 0
BBX 8 16 0 -4
BITMAP
00
00
10
10
10
7C
10
10
1E
11
11
1E
00
00
00
00
ENDCHAR
STARTCHAR char1124
ENCODING 1124
SWIDTH 7680 0
DWIDTH 8 0
BBX 8 16 0 -4
BITMAP
00
00
4E
51
50
50
7C
50
50
50
51
4E
00
00
00
00
ENDCHAR
STARTCHAR char1125
ENCODING 1125
SWIDTH 7680 0
DWIDTH 8 0
BBX 8 16 0 -4
BITMAP
00
00
00
00
00
4E
51
50
7C
50
51
4E
00
00
00
00
ENDCHAR
STARTCHAR char1126
ENCODING 1126
SWIDTH 7680 0
DWIDTH 8 0
BBX 8 16 0 -4
BITMAP
00
00
08
14
14
14
22
3E
2A
49
49
5D
00
00
00
00
ENDCHAR
STARTCHAR char1127
ENCODING 1127
SWIDTH 7680 0
DWIDTH 8 0
BBX 8 16 0 -4
BITMAP
00
00
00
00
00
08
14
14
22
3E
2A
5D
00
00
00
00
ENDCHAR
STARTCHAR char1128
ENCODING 1128
SWIDTH 7680 0
DWIDTH 8 0
BBX 8 16 0 -4
BITMAP
00
00
44
4A
4A
4A
51
7F
55
55
55
55
00
00
00
00
ENDCHAR
STARTCHAR char1129
ENCODING 1129
SWIDTH 7680 0
DWIDTH 8 0
BBX 8 16 0 -4
BITMAP
00
00
00
00
00
44
4A
4A
51
7F
55
55
00
00
00
00
ENDCHAR
STARTCHAR char1130
ENCODING 1130
SWIDTH 7680 0
DWIDTH 8 0
BBX 8 16 0 -4
BITMAP
00
00
7F
22
14
14
08
3E
49
49
49
49
00
00
00
00
ENDCHAR
STARTCHAR char1131
ENCODING 1131
SWIDTH 7680 0
DWIDTH 8 0
BBX 8 16 0 -4
BITMAP
00
00
00
00
00
7F
22
14
08
3E
49
49
00
00
00
00
ENDCHAR
STARTCHAR char1132
ENCODING 1132
SWIDTH 7680 0
DWIDTH 8 0
BBX 8 16 0 -4
BITMAP
00
00
5F
51
4A
4A
7C
4E
55
55
55
55
00
00
00
00
ENDCHAR
STARTCHAR char1133
ENCODING 1133
SWIDTH 7680 0
DWIDTH 8 0
BBX 8 16 0 -4
BITMAP
00
00
00
00
00
5F
51
4A
7C
4E
55
55
00
00
00
00
ENDCHAR
STARTCHAR char1134
ENCODING 1134
SWIDTH 7680 0
DWIDTH 8 0
BBX 8 16 0 -4
BITMAP
22
14
08
00
3E
41
01
01
0E
01
01
3E
40
40
3E
00
ENDCHAR
STARTCHAR char1135
ENCODING 1135
SWIDTH 7680 0
DWIDTH 8 0
BBX 8 16 0 -4
BITMAP
00
22
14
08
00
3E
41
01
0E
01
01
3E
40
40
3E
00
ENDCHAR
STARTCHAR char1136
ENCODING 1136
SWIDTH 7680 0
DWIDTH 8 0
BBX 8 16 0 -4
BITMAP
00
00
49
49
49
49
49
49
3E
08
08
08
00
00
00
00
ENDCHAR
STARTCHAR char1137
ENCODING 1137
SWIDTH 7680 0
DWIDTH 8 0
BBX 8 16 0 -4
BITMAP
00
00
00
00
00
49
49
49
49
49
49
3E
08
08
08
00
ENDCHAR
STARTCHAR char1138
ENCODING 1138
SWIDTH 7680 0
DWIDTH 8 0
BBX 8 16 0 -4
BITMAP
00
00
3E
41
41
41
7F
41
41
41
41
3E
00
00
00
00
ENDCHAR
STARTCHAR char1139
ENCODING 1139
SWIDTH 7680 0
DWIDTH 8 0
BBX 8 16 0 -4
BITMAP
00
00
00
00
00
3E
41
41
7F
41
41
3E
00
00
00
00
ENDCHAR
STARTCHAR char1140
ENCODING 1140
SWIDTH 7680 0
DWIDTH 8 0
BBX 8 16 0 -4
BITMAP
00
00
41
42
42
24
24
24
14
14
14
08
00
00
00
00
ENDCHAR
STARTCHAR char1141
ENCODING 1141
SWIDTH 7680 0
DWIDTH 8 0
BBX 8 16 0 -4
BITMAP
00
00
00
00
00
41
42
24
24
14
14
08
00
00
00
00
ENDCHAR
STARTCHAR char1142
ENCODING 1142
SWIDTH 7680 0
DWIDTH 8 0
BBX 8 16 0 -4
BITMAP
00
24
12
00
41
42
22
24
24
14
14
08
00
00
00
00
ENDCHAR
STARTCHAR char1143
ENCODING 1143
SWIDTH 7680 0
DWIDTH 8 0
BBX 8 16 0 -4
BITMAP
00
00
24
12
00
41
42
24
24
14
14
08
00
00
00
00
ENDCHAR
STARTCHAR char1144
ENCODING 1144
SWIDTH 7680 0
DWIDTH 8 0
BBX 8 16 0 -4
BITMAP
00
00
20
50
50
55
55
55
55
55
55
23
01
05
02
00
ENDCHAR
STARTCHAR char1145
ENCODING 1145
SWIDTH 7680 0
DWIDTH 8 0
BBX 8 16 0 -4
BITMAP
00
00
00
00
00
25
55
55
55
55
55
23
01
05
02
00
ENDCHAR
STARTCHAR char1146
ENCODING 1146
SWIDTH 7680 0
DWIDTH 8 0
BBX 8 16 0 -4
BITMAP
00
08
3E
49
41
41
41
41
41
41
49
3E
08
00
00
00
ENDCHAR
STARTCHAR char1147
ENCODING 1147
SWIDTH 7680 0
DWIDTH 8 0
BBX 8 16 0 -4
BITMAP
00
00
00
00
08
3E
49
41
41
41
49
3E
08
00
00
00
ENDCHAR
STARTCHAR char1148
ENCODING 1148
SWIDTH 7680 0
DWIDTH 8 0
BBX 8 16 0 -4
BITMAP
02
3E
20
00
36
41
41
49
49
49
49
3E
00
00
00
00
ENDCHAR
STARTCHAR char1149
ENCODING 1149
SWIDTH 7680 0
DWIDTH 8 0
BBX 8 16 0 -4
BITMAP
00
02
3E
20
00
36
41
41
49
49
49
3E
00
00
00
00
ENDCHAR
STARTCHAR char1150
ENCODING 1150
SWIDTH 7680 0
DWIDTH 8 0
BBX 8 16 0 -4
BITMAP
00
3E
2A
00
36
41
41
49
49
49
49
3E
00
00
00
00
ENDCHAR
STARTCHAR char1151
ENCODING 1151
SWIDTH 7680 0
DWIDTH 8 0
BBX 8 16 0 -4
BITMAP
00
00
3E
2A
00
36
41
41
49
49
49
3E
00
00
00
00
ENDCHAR
STARTCHAR char1152
ENCODING 1152
SWIDTH 7680 0
DWIDTH 8 0
BBX 8 16 0 -4
BITMAP
00
00
3E
41
40
40
40
40
40
40
40
30
08
08
00
00
ENDCHAR
STARTCHAR char1153
ENCODING 1153
SWIDTH 7680 0
DWIDTH 8 0
BBX 8 16 0 -4
BITMAP
00
00
00
00
00
3E
41
40
40
40
40
30
08
08
00
00
ENDCHAR
STARTCHAR char1154
ENCODING 1154
SWIDTH 7680 0
DWIDTH 8 0
BBX 8 16 0 -4
BITMAP
00
02
02
1C
07
08
08
70
1C
20
20
00
00
00
00
00
ENDCHAR
STARTCHAR char1155
ENCODING 1155
SWIDTH 7680 0
DWIDTH 8 0
BBX 8 16 0 -4
BITMAP
02
3E
20
00
00
00
00
00
00
00
00
00
00
00
00
00
ENDCHAR
STARTCHAR char1156
ENCODING 1156
SWIDTH 7680 0
DWIDTH 8 0
BBX 8 16 0 -4
BITMAP
38
47
00
00
00
00
00
00
00
00
00
00
00
00
00
00
ENDCHAR
STARTCHAR char1157
ENCODING 1157
SWIDTH 7680 0
DWIDTH 8 0
BBX 8 16 0 -4
BITMAP
3C
73
20
00
00
00
00
00
00
00
00
00
00
00
00
00
ENDCHAR
STARTCHAR char1158
ENCODING 1158
SWIDTH 7680 0
DWIDTH 8 0
BBX 8 16 0 -4
BITMAP
1E
67
02
00
00
00
00
00
00
00
00
00
00
00
00
00
ENDCHAR
STARTCHAR char1160
ENCODING 1160
SWIDTH 7680 0
DWIDTH 8 0
BBX 8 16 0 -4
BITMAP
20
52
05
00
00
00
00
00
00
00
00
00
20
52
05
00
ENDCHAR
STARTCHAR char1161
ENCODING 1161
SWIDTH 7680 0
DWIDTH 8 0
BBX 8 16 0 -4
BITMAP
20
42
64
06
00
00
00
00
00
00
00
20
42
64
06
00
ENDCHAR
STARTCHAR char1162
ENCODING 1162
SWIDTH 7680 0
DWIDTH 8 0
BBX 8 16 0 -4
BITMAP
22
1C
00
41
41
43
45
49
51
61
41
41
00
81
00
00
ENDCHAR
STARTCHAR char1163
ENCODING 1163
SWIDTH 7680 0
DWIDTH 8 0
BBX 8 16 0 -4
BITMAP
00
00
22
1C
00
41
43
45
49
51
61
41
00
81
00
00
ENDCHAR
STARTCHAR char1164
ENCODING 1164
SWIDTH 7680 0
DWIDTH 8 0
BBX 8 16 0 -4
BITMAP
00
00
40
F8
40
40
7E
41
41
41
41
7E
00
00
00
00
ENDCHAR
STARTCHAR char1165
ENCODING 1165
SWIDTH 7680 0
DWIDTH 8 0
BBX 8 16 0 -4
BITMAP
00
00
00
00
00
40
F8
40
7E
41
41
7E
00
00
00
00
ENDCHAR
STARTCHAR char1166
ENCODING 1166
SWIDTH 7680 0
DWIDTH 8 0
BBX 8 16 0 -4
BITMAP
00
00
7E
41
41
45
7E
41
40
40
40
40
00
00
00
00
ENDCHAR
STARTCHAR char1167
ENCODING 1167
SWIDTH 7680 0
DWIDTH 8 0
BBX 8 16 0 -4
BITMAP
00
00
00
00
00
5E
61
41
41
49
65
5E
42
40
40
00
ENDCHAR
STARTCHAR char1168
ENCODING 1168
SWIDTH 7680 0
DWIDTH 8 0
BBX 8 16 0 -4
BITMAP
00
01
7F
40
40
40
40
40
40
40
40
40
00
00
00
00
ENDCHAR
STARTCHAR char1169
ENCODING 1169
SWIDTH 7680 0
DWIDTH 8 0
BBX 8 16 0 -4
BITMAP
00
00
00
00
01
7F
40
40
40
40
40
40
00
00
00
00
ENDCHAR
STARTCHAR char1170
ENCODING 1170
SWIDTH 7680 0
DWIDTH 8 0
BBX 8 16 0 -4
BITMAP
00
00
3F
21
20
20
70
20
20
20
20
20
00
00
00
00
ENDCHAR
STARTCHAR char1171
ENCODING 1171
SWIDTH 7680 0
DWIDTH 8 0
BBX 8 16 0 -4
BITMAP
00
00
00
00
00
3F
21
20
70
20
20
20
00
00
00
00
ENDCHAR
STARTCHAR char1172
ENCODING 1172
SWIDTH 7680 0
DWIDTH 8 0
BBX 8 16 0 -4
BITMAP
00
00
7E
10
10
10
1E
11
11
11
11
11
01
1E
00
00
ENDCHAR
STARTCHAR char1173
ENCODING 1173
SWIDTH 7680 0
DWIDTH 8 0
BBX 8 16 0 -4
BITMAP
00
00
00
00
00
7E
10
10
1E
11
11
11
01
1E
00
00
ENDCHAR
STARTCHAR char1174
ENCODING 1174
SWIDTH 7680 0
DWIDTH 8 0
BBX 8 16 0 -4
BITMAP
00
00
49
49
2A
2A
1C
2A
2A
4A
4A
4B
01
01
00
00
ENDCHAR
STARTCHAR char1175
ENCODING 1175
SWIDTH 7680 0
DWIDTH 8 0
BBX 8 16 0 -4
BITMAP
00
00
00
00
00
49
49
2A
1C
2A
4A
4B
01
01
00
00
ENDCHAR
STARTCHAR char1176
ENCODING 1176
SWIDTH 7680 0
DWIDTH 8 0
BBX 8 16 0 -4
BITMAP
00
00
3E
41
01
01
0E
01
01
01
41
3E
08
04
18
00
ENDCHAR
STARTCHAR char1177
ENCODING 1177
SWIDTH 7680 0
DWIDTH 8 0
BBX 8 16 0 -4
BITMAP
00
00
00
00
00
3E
41
01
0E
01
41
3E
08
04
18
00
ENDCHAR
STARTCHAR char1178
ENCODING 1178
SWIDTH 7680 0
DWIDTH 8 0
BBX 8 16 0 -4
BITMAP
00
00
41
42
44
48
70
50
48
44
42
43
01
01
00
00
ENDCHAR
STARTCHAR char1179
ENCODING 1179
SWIDTH 7680 0
DWIDTH 8 0
BBX 8 16 0 -4
BITMAP
00
00
00
00
00
41
42
44
78
44
42
43
01
01
00
00
ENDCHAR
STARTCHAR char1180
ENCODING 1180
SWIDTH 7680 0
DWIDTH 8 0
BBX 8 16 0 -4
BITMAP
00
00
41
41
52
54
78
54
52
41
41
41
00
00
00
00
ENDCHAR
STARTCHAR char1181
ENCODING 1181
SWIDTH 7680 0
DWIDTH 8 0
BBX 8 16 0 -4
BITMAP
00
00
00
00
00
41
42
54
78
54
42
41
00
00
00
00
ENDCHAR
STARTCHAR char1182
ENCODING 1182
SWIDTH 7680 0
DWIDTH 8 0
BBX 8 16 0 -4
BITMAP
00
00
41
F2
44
48
70
50
48
44
42
41
00
00
00
00
ENDCHAR
STARTCHAR char1183
ENCODING 1183
SWIDTH 7680 0
DWIDTH 8 0
BBX 8 16 0 -4
BITMAP
00
00
20
20
78
21
22
24
38
24
22
21
00
00
00
00
ENDCHAR
STARTCHAR char1184
ENCODING 1184
SWIDTH 7680 0
DWIDTH 8 0
BBX 8 16 0 -4
BITMAP
00
00
71
11
12
12
1C
12
12
11
11
11
00
00
00
00
ENDCHAR
STARTCHAR char1185
ENCODING 1185
SWIDTH 7680 0
DWIDTH 8 0
BBX 8 16 0 -4
BITMAP
00
00
00
00
00
71
12
14
18
14
12
11
00
00
00
00
ENDCHAR
STARTCHAR char1186
ENCODING 1186
SWIDTH 7680 0
DWIDTH 8 0
BBX 8 16 0 -4
BITMAP
00
00
42
42
42
42
7E
42
42
42
42
43
01
01
00
00
ENDCHAR
STARTCHAR char1187
ENCODING 1187
SWIDTH 7680 0
DWIDTH 8 0
BBX 8 16 0 -4
BITMAP
00
00
00
00
00
42
42
42
7E
42
42
43
01
01
00
00
ENDCHAR
STARTCHAR char1188
ENCODING 1188
SWIDTH 7680 0
DWIDTH 8 0
BBX 8 16 0 -4
BITMAP
00
00
47
44
44
44
7C
44
44
44
44
44
00
00
00
00
ENDCHAR
STARTCHAR char1189
ENCODING 1189
SWIDTH 7680 0
DWIDTH 8 0
BBX 8 16 0 -4
BITMAP
00
00
00
00
00
47
44
44
7C
44
44
44
00
00
00
00
ENDCHAR
STARTCHAR char1190
ENCODING 1190
SWIDTH 7680 0
DWIDTH 8 0
BBX 8 16 0 -4
BITMAP
00
00
78
48
48
48
4E
49
49
49
49
49
01
0E
00
00
ENDCHAR
STARTCHAR char1191
ENCODING 1191
SWIDTH 7680 0
DWIDTH 8 0
BBX 8 16 0 -4
BITMAP
00
00
00
00
00
78
48
48
4E
49
49
49
01
0E
00
00
ENDCHAR
STARTCHAR char1192
ENCODING 1192
SWIDTH 7680 0
DWIDTH 8 0
BBX 8 16 0 -4
BITMAP
00
00
3F
40
40
4E
51
51
51
51
51
3E
10
0F
00
00
ENDCHAR
STARTCHAR char1193
ENCODING 1193
SWIDTH 7680 0
DWIDTH 8 0
BBX 8 16 0 -4
BITMAP
00
00
00
00
00
3F
40
4E
51
51
51
3E
10
0F
00
00
ENDCHAR
STARTCHAR char1194
ENCODING 1194
SWIDTH 7680 0
DWIDTH 8 0
BBX 8 16 0 -4
BITMAP
00
00
3E
41
40
40
40
40
40
40
41
3E
10
0C
00
00
ENDCHAR
STARTCHAR char1195
ENCODING 1195
SWIDTH 7680 0
DWIDTH 8 0
BBX 8 16 0 -4
BITMAP
00
00
00
00
00
3E
41
40
40
40
41
3E
10
0C
00
00
ENDCHAR
STARTCHAR char1196
ENCODING 1196
SWIDTH 7680 0
DWIDTH 8 0
BBX 8 16 0 -4
BITMAP
00
00
7F
08
08
08
08
08
08
08
08
0C
04
04
00
00
ENDCHAR
STARTCHAR char1197
ENCODING 1197
SWIDTH 7680 0
DWIDTH 8 0
BBX 8 16 0 -4
BITMAP
00
00
00
00
00
7F
08
08
08
08
08
0C
04
04
00
00
ENDCHAR
STARTCHAR char1198
ENCODING 1198
SWIDTH 7680 0
DWIDTH 8 0
BBX 8 16 0 -4
BITMAP
00
00
41
22
14
08
08
08
08
08
08
08
00
00
00
00
ENDCHAR
STARTCHAR char1199
ENCODING 1199
SWIDTH 7680 0
DWIDTH 8 0
BBX 8 16 0 -4
BITMAP
00
00
00
00
00
41
22
14
08
08
08
08
08
08
08
00
ENDCHAR
STARTCHAR char1200
ENCODING 1200
SWIDTH 7680 0
DWIDTH 8 0
BBX 8 16 0 -4
BITMAP
00
00
41
22
14
08
08
08
3E
08
08
08
00
00
00
00
ENDCHAR
STARTCHAR char1201
ENCODING 1201
SWIDTH 7680 0
DWIDTH 8 0
BBX 8 16 0 -4
BITMAP
00
00
00
00
00
41
22
14
08
08
08
3E
08
08
08
00
ENDCHAR
STARTCHAR char1202
ENCODING 1202
SWIDTH 7680 0
DWIDTH 8 0
BBX 8 16 0 -4
BITMAP
00
00
41
41
22
14
08
08
14
22
42
43
01
01
00
00
ENDCHAR
STARTCHAR char1203
ENCODING 1203
SWIDTH 7680 0
DWIDTH 8 0
BBX 8 16 0 -4
BITMAP
00
00
00
00
00
41
22
14
08
14
22
43
01
01
00
00
ENDCHAR
STARTCHAR char1204
ENCODING 1204
SWIDTH 7680 0
DWIDTH 8 0
BBX 8 16 0 -4
BITMAP
00
00
7D
11
11
11
11
11
11
11
11
1F
01
01
00
00
ENDCHAR
STARTCHAR char1205
ENCODING 1205
SWIDTH 7680 0
DWIDTH 8 0
BBX 8 16 0 -4
BITMAP
00
00
00
00
00
7D
11
11
11
11
11
1F
01
01
00
00
ENDCHAR
STARTCHAR char1206
ENCODING 1206
SWIDTH 7680 0
DWIDTH 8 0
BBX 8 16 0 -4
BITMAP
00
00
42
42
42
42
42
3E
02
02
02
03
01
01
00
00
ENDCHAR
STARTCHAR char1207
ENCODING 1207
SWIDTH 7680 0
DWIDTH 8 0
BBX 8 16 0 -4
BITMAP
00
00
00
00
00
42
42
42
3E
02
02
03
01
01
00
00
ENDCHAR
STARTCHAR char1208
ENCODING 1208
SWIDTH 7680 0
DWIDTH 8 0
BBX 8 16 0 -4
BITMAP
00
00
41
41
41
49
49
3F
09
09
01
01
00
00
00
00
ENDCHAR
STARTCHAR char1209
ENCODING 1209
SWIDTH 7680 0
DWIDTH 8 0
BBX 8 16 0 -4
BITMAP
00
00
00
00
00
41
49
49
3F
09
09
01
00
00
00
00
ENDCHAR
STARTCHAR char1210
ENCODING 1210
SWIDTH 7680 0
DWIDTH 8 0
BBX 8 16 0 -4
BITMAP
00
00
40
40
40
5E
61
41
41
41
41
41
00
00
00
00
ENDCHAR
STARTCHAR char1211
ENCODING 1211
SWIDTH 7680 0
DWIDTH 8 0
BBX 8 16 0 -4
BITMAP
00
00
20
20
20
20
2C
32
22
22
22
22
00
00
00
00
ENDCHAR
STARTCHAR char1212
ENCODING 1212
SWIDTH 7680 0
DWIDTH 8 0
BBX 8 16 0 -4
BITMAP
00
00
0E
11
51
51
3F
10
10
10
11
0E
00
00
00
00
ENDCHAR
STARTCHAR char1213
ENCODING 1213
SWIDTH 7680 0
DWIDTH 8 0
BBX 8 16 0 -4
BITMAP
00
00
00
00
00
0E
51
51
3F
10
11
0E
00
00
00
00
ENDCHAR
STARTCHAR char1214
ENCODING 1214
SWIDTH 7680 0
DWIDTH 8 0
BBX 8 16 0 -4
BITMAP
00
00
0E
11
51
51
3F
10
10
10
11
0E
08
06
00
00
ENDCHAR
STARTCHAR char1215
ENCODING 1215
SWIDTH 7680 0
DWIDTH 8 0
BBX 8 16 0 -4
BITMAP
00
00
00
00
00
0E
51
51
3F
10
11
0E
08
06
00
00
ENDCHAR
STARTCHAR char1216
ENCODING 1216
SWIDTH 7680 0
DWIDTH 8 0
BBX 8 16 0 -4
BITMAP
00
00
1C
08
08
08
08
08
08
08
08
1C
00
00
00
00
ENDCHAR
STARTCHAR char1217
ENCODING 1217
SWIDTH 7680 0
DWIDTH 8 0
BBX 8 16 0 -4
BITMAP
00
22
1C
00
49
49
2A
1C
2A
2A
49
49
00
00
00
00
ENDCHAR
STARTCHAR char1218
ENCODING 1218
SWIDTH 7680 0
DWIDTH 8 0
BBX 8 16 0 -4
BITMAP
00
00
22
1C
00
49
49
2A
1C
2A
49
49
00
00
00
00
ENDCHAR
STARTCHAR char1219
ENCODING 1219
SWIDTH 7680 0
DWIDTH 8 0
BBX 8 16 0 -4
BITMAP
00
00
41
42
44
48
70
50
48
44
42
41
01
06
00
00
ENDCHAR
STARTCHAR char1220
ENCODING 1220
SWIDTH 7680 0
DWIDTH 8 0
BBX 8 16 0 -4
BITMAP
00
00
00
00
00
41
42
44
78
44
42
41
01
06
00
00
ENDCHAR
STARTCHAR char1221
ENCODING 1221
SWIDTH 7680 0
DWIDTH 8 0
BBX 8 16 0 -4
BITMAP
00
00
3F
21
21
21
21
21
21
21
21
41
00
81
00
00
ENDCHAR
STARTCHAR char1222
ENCODING 1222
SWIDTH 7680 0
DWIDTH 8 0
BBX 8 16 0 -4
BITMAP
00
00
00
00
00
1F
11
11
11
11
11
61
00
81
00
00
ENDCHAR
STARTCHAR char1223
ENCODING 1223
SWIDTH 7680 0
DWIDTH 8 0
BBX 8 16 0 -4
BITMAP
00
00
41
41
41
41
7F
41
41
41
41
41
01
06
00
00
ENDCHAR
STARTCHAR char1224
ENCODING 1224
SWIDTH 7680 0
DWIDTH 8 0
BBX 8 16 0 -4
BITMAP
00
00
00
00
00
41
41
41
7F
41
41
41
01
06
00
00
ENDCHAR
STARTCHAR char1225
ENCODING 1225
SWIDTH 7680 0
DWIDTH 8 0
BBX 8 16 0 -4
BITMAP
00
00
41
41
41
41
7F
41
41
41
41
41
00
81
00
00
ENDCHAR
STARTCHAR char1226
ENCODING 1226
SWIDTH 7680 0
DWIDTH 8 0
BBX 8 16 0 -4
BITMAP
00
00
00
00
00
41
41
41
7F
41
41
41
00
81
00
00
ENDCHAR
STARTCHAR char1227
ENCODING 1227
SWIDTH 7680 0
DWIDTH 8 0
BBX 8 16 0 -4
BITMAP
00
00
41
41
41
41
41
3F
01
01
01
03
02
02
00
00
ENDCHAR
STARTCHAR char1228
ENCODING 1228
SWIDTH 7680 0
DWIDTH 8 0
BBX 8 16 0 -4
BITMAP
00
00
00
00
00
41
41
41
3F
01
01
03
02
02
00
00
ENDCHAR
STARTCHAR char1229
ENCODING 1229
SWIDTH 7680 0
DWIDTH 8 0
BBX 8 16 0 -4
BITMAP
00
00
41
41
63
55
55
49
49
41
41
41
00
81
00
00
ENDCHAR
STARTCHAR char1230
ENCODING 1230
SWIDTH 7680 0
DWIDTH 8 0
BBX 8 16 0 -4
BITMAP
00
00
00
00
00
41
63
55
49
41
41
41
00
81
00
00
ENDCHAR
STARTCHAR char1232
ENCODING 1232
SWIDTH 7680 0
DWIDTH 8 0
BBX 8 16 0 -4
BITMAP
00
22
1C
00
1C
22
41
41
7F
41
41
41
00
00
00
00
ENDCHAR
STARTCHAR char1233
ENCODING 1233
SWIDTH 7680 0
DWIDTH 8 0
BBX 8 16 0 -4
BITMAP
00
00
22
1C
00
3E
01
01
3F
41
43
3D
00
00
00
00
ENDCHAR
STARTCHAR char1234
ENCODING 1234
SWIDTH 7680 0
DWIDTH 8 0
BBX 8 16 0 -4
BITMAP
00
22
22
00
1C
22
41
41
7F
41
41
41
00
00
00
00
ENDCHAR
STARTCHAR char1235
ENCODING 1235
SWIDTH 7680 0
DWIDTH 8 0
BBX 8 16 0 -4
BITMAP
00
00
22
22
00
3E
01
01
3F
41
43
3D
00
00
00
00
ENDCHAR
STARTCHAR char1236
ENCODING 1236
SWIDTH 7680 0
DWIDTH 8 0
BBX 8 16 0 -4
BITMAP
00
00
37
48
48
48
48
7E
48
48
48
4F
00
00
00
00
ENDCHAR
STARTCHAR char1237
ENCODING 1237
SWIDTH 7680 0
DWIDTH 8 0
BBX 8 16 0 -4
BITMAP
00
00
00
00
00
36
49
09
3E
48
49
37
00
00
00
00
ENDCHAR
STARTCHAR char1238
ENCODING 1238
SWIDTH 7680 0
DWIDTH 8 0
BBX 8 16 0 -4
BITMAP
00
22
1C
00
7F
20
20
3C
20
20
20
7F
00
00
00
00
ENDCHAR
STARTCHAR char1239
ENCODING 1239
SWIDTH 7680 0
DWIDTH 8 0
BBX 8 16 0 -4
BITMAP
00
00
22
1C
00
3E
41
41
7F
40
40
3E
00
00
00
00
ENDCHAR
STARTCHAR char1240
ENCODING 1240
SWIDTH 7680 0
DWIDTH 8 0
BBX 8 16 0 -4
BITMAP
00
00
3E
01
01
01
01
7F
41
41
41
3E
00
00
00
00
ENDCHAR
STARTCHAR char1241
ENCODING 1241
SWIDTH 7680 0
DWIDTH 8 0
BBX 8 16 0 -4
BITMAP
00
00
00
00
00
3E
01
01
7F
41
41
3E
00
00
00
00
ENDCHAR
STARTCHAR char1242
ENCODING 1242
SWIDTH 7680 0
DWIDTH 8 0
BBX 8 16 0 -4
BITMAP
00
22
22
00
3E
01
01
7F
41
41
41
3E
00
00
00
00
ENDCHAR
STARTCHAR char1243
ENCODING 1243
SWIDTH 7680 0
DWIDTH 8 0
BBX 8 16 0 -4
BITMAP
00
00
22
22
00
3E
01
01
7F
41
41
3E
00
00
00
00
ENDCHAR
STARTCHAR char1244
ENCODING 1244
SWIDTH 7680 0
DWIDTH 8 0
BBX 8 16 0 -4
BITMAP
00
22
22
00
49
49
2A
1C
2A
2A
49
49
00
00
00
00
ENDCHAR
STARTCHAR char1245
ENCODING 1245
SWIDTH 7680 0
DWIDTH 8 0
BBX 8 16 0 -4
BITMAP
00
00
22
22
00
49
49
2A
1C
2A
49
49
00
00
00
00
ENDCHAR
STARTCHAR char1246
ENCODING 1246
SWIDTH 7680 0
DWIDTH 8 0
BBX 8 16 0 -4
BITMAP
00
22
22
00
3E
41
01
01
0E
01
41
3E
00
00
00
00
ENDCHAR
STARTCHAR char1247
ENCODING 1247
SWIDTH 7680 0
DWIDTH 8 0
BBX 8 16 0 -4
BITMAP
00
00
22
22
00
3E
41
01
0E
01
41
3E
00
00
00
00
ENDCHAR
STARTCHAR char1248
ENCODING 1248
SWIDTH 7680 0
DWIDTH 8 0
BBX 8 16 0 -4
BITMAP
00
00
00
7F
01
02
04
0E
01
01
41
3E
00
00
00
00
ENDCHAR
STARTCHAR char1249
ENCODING 1249
SWIDTH 7680 0
DWIDTH 8 0
BBX 8 16 0 -4
BITMAP
00
00
00
00
00
7F
02
04
08
1E
01
01
41
3E
00
00
ENDCHAR
STARTCHAR char1250
ENCODING 1250
SWIDTH 7680 0
DWIDTH 8 0
BBX 8 16 0 -4
BITMAP
00
3E
00
41
41
43
45
49
51
61
41
41
00
00
00
00
ENDCHAR
STARTCHAR char1251
ENCODING 1251
SWIDTH 7680 0
DWIDTH 8 0
BBX 8 16 0 -4
BITMAP
00
00
00
3E
00
41
43
45
49
51
61
41
00
00
00
00
ENDCHAR
STARTCHAR char1252
ENCODING 1252
SWIDTH 7680 0
DWIDTH 8 0
BBX 8 16 0 -4
BITMAP
00
22
22
00
41
43
45
49
51
61
41
41
00
00
00
00
ENDCHAR
STARTCHAR char1253
ENCODING 1253
SWIDTH 7680 0
DWIDTH 8 0
BBX 8 16 0 -4
BITMAP
00
00
22
22
00
41
43
45
49
51
61
41
00
00
00
00
ENDCHAR
STARTCHAR char1254
ENCODING 1254
SWIDTH 7680 0
DWIDTH 8 0
BBX 8 16 0 -4
BITMAP
00
22
22
00
3E
41
41
41
41
41
41
3E
00
00
00
00
ENDCHAR
STARTCHAR char1255
ENCODING 1255
SWIDTH 7680 0
DWIDTH 8 0
BBX 8 16 0 -4
BITMAP
00
00
22
22
00
3E
41
41
41
41
41
3E
00
00
00
00
ENDCHAR
STARTCHAR char1256
ENCODING 1256
SWIDTH 7680 0
DWIDTH 8 0
BBX 8 16 0 -4
BITMAP
00
00
3E
41
41
51
6B
45
41
41
41
3E
00
00
00
00
ENDCHAR
STARTCHAR char1257
ENCODING 1257
SWIDTH 7680 0
DWIDTH 8 0
BBX 8 16 0 -4
BITMAP
00
00
00
00
00
3E
41
51
6B
45
41
3E
00
00
00
00
ENDCHAR
STARTCHAR char1258
ENCODING 1258
SWIDTH 7680 0
DWIDTH 8 0
BBX 8 16 0 -4
BITMAP
00
22
22
00
3E
41
51
6B
45
41
41
3E
00
00
00
00
ENDCHAR
STARTCHAR char1259
ENCODING 1259
SWIDTH 7680 0
DWIDTH 8 0
BBX 8 16 0 -4
BITMAP
00
00
22
22
00
3E
41
51
6B
45
41
3E
00
00
00
00
ENDCHAR
STARTCHAR char1260
ENCODING 1260
SWIDTH 7680 0
DWIDTH 8 0
BBX 8 16 0 -4
BITMAP
14
14
00
3C
42
01
01
0F
01
01
42
3C
00
00
00
00
ENDCHAR
STARTCHAR char1261
ENCODING 1261
SWIDTH 7680 0
DWIDTH 8 0
BBX 8 16 0 -4
BITMAP
00
00
14
14
00
3E
41
01
0F
01
41
3E
00
00
00
00
ENDCHAR
STARTCHAR char1262
ENCODING 1262
SWIDTH 7680 0
DWIDTH 8 0
BBX 8 16 0 -4
BITMAP
00
3E
00
41
41
41
41
43
3D
01
41
3E
00
00
00
00
ENDCHAR
STARTCHAR char1263
ENCODING 1263
SWIDTH 7680 0
DWIDTH 8 0
BBX 8 16 0 -4
BITMAP
00
00
00
3E
00
41
41
41
41
41
43
3D
01
41
3E
00
ENDCHAR
STARTCHAR char1264
ENCODING 1264
SWIDTH 7680 0
DWIDTH 8 0
BBX 8 16 0 -4
BITMAP
00
22
22
00
41
41
41
43
3D
01
41
3E
00
00
00
00
ENDCHAR
STARTCHAR char1265
ENCODING 1265
SWIDTH 7680 0
DWIDTH 8 0
BBX 8 16 0 -4
BITMAP
00
00
22
22
00
41
41
41
41
41
43
3D
01
41
3E
00
ENDCHAR
STARTCHAR char1266
ENCODING 1266
SWIDTH 7680 0
DWIDTH 8 0
BBX 8 16 0 -4
BITMAP
00
12
24
00
41
41
41
43
3D
01
41
3E
00
00
00
00
ENDCHAR
STARTCHAR char1267
ENCODING 1267
SWIDTH 7680 0
DWIDTH 8 0
BBX 8 16 0 -4
BITMAP
00
00
12
24
00
41
41
41
41
41
43
3D
01
41
3E
00
ENDCHAR
STARTCHAR char1268
ENCODING 1268
SWIDTH 7680 0
DWIDTH 8 0
BBX 8 16 0 -4
BITMAP
00
22
22
00
41
41
41
41
3F
01
01
01
00
00
00
00
ENDCHAR
STARTCHAR char1269
ENCODING 1269
SWIDTH 7680 0
DWIDTH 8 0
BBX 8 16 0 -4
BITMAP
00
00
22
22
00
41
41
41
3F
01
01
01
00
00
00
00
ENDCHAR
STARTCHAR char1272
ENCODING 1272
SWIDTH 7680 0
DWIDTH 8 0
BBX 8 16 0 -4
BITMAP
00
22
22
00
41
41
41
79
45
45
45
79
00
00
00
00
ENDCHAR
STARTCHAR char1273
ENCODING 1273
SWIDTH 7680 0
DWIDTH 8 0
BBX 8 16 0 -4
BITMAP
00
00
22
22
00
41
41
41
79
45
45
79
00
00
00
00
ENDCHAR
STARTCHAR char1280
ENCODING 1280
SWIDTH 7680 0
DWIDTH 8 0
BBX 8 16 0 -4
BITMAP
00
00
01
01
01
7F
81
81
81
81
81
7F
00
00
00
00
ENDCHAR
STARTCHAR char1281
ENCODING 1281
SWIDTH 7680 0
DWIDTH 8 0
BBX 8 16 0 -4
BITMAP
00
00
01
01
01
3D
43
41
41
41
43
3D
00
00
00
00
ENDCHAR
STARTCHAR char1282
ENCODING 1282
SWIDTH 7680 0
DWIDTH 8 0
BBX 8 16 0 -4
BITMAP
00
00
04
04
04
7C
84
85
85
85
85
7E
00
00
00
00
ENDCHAR
STARTCHAR char1283
ENCODING 1283
SWIDTH 7680 0
DWIDTH 8 0
BBX 8 16 0 -4
BITMAP
00
00
04
04
04
34
4C
44
45
45
4D
32
00
00
00
00
ENDCHAR
STARTCHAR char1284
ENCODING 1284
SWIDTH 7680 0
DWIDTH 8 0
BBX 8 16 0 -4
BITMAP
00
00
38
44
04
04
18
05
05
05
05
02
00
00
00
00
ENDCHAR
STARTCHAR char1285
ENCODING 1285
SWIDTH 7680 0
DWIDTH 8 0
BBX 8 16 0 -4
BITMAP
00
00
00
00
00
38
44
04
18
05
05
02
00
00
00
00
ENDCHAR
STARTCHAR char1286
ENCODING 1286
SWIDTH 7680 0
DWIDTH 8 0
BBX 8 16 0 -4
BITMAP
00
00
38
44
04
04
18
04
04
04
04
06
02
02
00
00
ENDCHAR
STARTCHAR char1287
ENCODING 1287
SWIDTH 7680 0
DWIDTH 8 0
BBX 8 16 0 -4
BITMAP
00
00
00
00
00
38
44
04
18
04
04
06
02
02
00
00
ENDCHAR
STARTCHAR char1288
ENCODING 1288
SWIDTH 7680 0
DWIDTH 8 0
BBX 8 16 0 -4
BITMAP
00
00
3C
24
24
24
24
25
25
25
25
42
00
00
00
00
ENDCHAR
STARTCHAR char1289
ENCODING 1289
SWIDTH 7680 0
DWIDTH 8 0
BBX 8 16 0 -4
BITMAP
00
00
00
00
00
3C
24
24
24
25
25
42
00
00
00
00
ENDCHAR
STARTCHAR char1290
ENCODING 1290
SWIDTH 7680 0
DWIDTH 8 0
BBX 8 16 0 -4
BITMAP
00
00
44
44
44
44
7C
45
45
45
45
42
00
00
00
00
ENDCHAR
STARTCHAR char1291
ENCODING 1291
SWIDTH 7680 0
DWIDTH 8 0
BBX 8 16 0 -4
BITMAP
00
00
00
00
00
44
44
44
7C
45
45
42
00
00
00
00
ENDCHAR
STARTCHAR char1292
ENCODING 1292
SWIDTH 7680 0
DWIDTH 8 0
BBX 8 16 0 -4
BITMAP
00
00
3E
41
40
40
40
47
41
41
41
3E
00
00
00
00
ENDCHAR
STARTCHAR char1293
ENCODING 1293
SWIDTH 7680 0
DWIDTH 8 0
BBX 8 16 0 -4
BITMAP
00
00
00
00
00
3E
41
40
47
41
41
3E
00
00
00
00
ENDCHAR
STARTCHAR char1294
ENCODING 1294
SWIDTH 7680 0
DWIDTH 8 0
BBX 8 16 0 -4
BITMAP
00
00
7F
08
08
08
08
0A
0A
0A
0A
04
00
00
00
00
ENDCHAR
STARTCHAR char1295
ENCODING 1295
SWIDTH 7680 0
DWIDTH 8 0
BBX 8 16 0 -4
BITMAP
00
00
00
00
00
7F
08
08
08
0A
0A
04
00
00
00
00
ENDCHAR
STARTCHAR char1329
ENCODING 1329
SWIDTH 7680 0
DWIDTH 8 0
BBX 8 16 0 -4
BITMAP
00
00
84
84
84
84
84
84
84
8E
85
79
00
00
00
00
ENDCHAR
STARTCHAR char1330
ENCODING 1330
SWIDTH 7680 0
DWIDTH 8 0
BBX 8 16 0 -4
BITMAP
00
00
1C
22
41
41
40
40
7E
41
40
40
00
00
00
00
ENDCHAR
STARTCHAR char1331
ENCODING 1331
SWIDTH 7680 0
DWIDTH 8 0
BBX 8 16 0 -4
BITMAP
00
00
78
84
84
84
84
7E
05
04
04
04
00
00
00
00
ENDCHAR
STARTCHAR char1332
ENCODING 1332
SWIDTH 7680 0
DWIDTH 8 0
BBX 8 16 0 -4
BITMAP
00
00
78
84
84
84
06
05
04
04
04
04
00
00
00
00
ENDCHAR
STARTCHAR char1333
ENCODING 1333
SWIDTH 7680 0
DWIDTH 8 0
BBX 8 16 0 -4
BITMAP
00
00
40
40
40
7E
41
40
40
41
41
3E
00
00
00
00
ENDCHAR
STARTCHAR char1334
ENCODING 1334
SWIDTH 7680 0
DWIDTH 8 0
BBX 8 16 0 -4
BITMAP
00
00
3E
41
41
41
41
3E
04
48
7C
43
00
00
00
00
ENDCHAR
STARTCHAR char1335
ENCODING 1335
SWIDTH 7680 0
DWIDTH 8 0
BBX 8 16 0 -4
BITMAP
00
00
40
40
40
40
7E
41
40
40
40
7E
01
00
00
00
ENDCHAR
STARTCHAR char1336
ENCODING 1336
SWIDTH 7680 0
DWIDTH 8 0
BBX 8 16 0 -4
BITMAP
00
00
1C
22
41
41
40
40
40
40
40
7E
01
00
00
00
ENDCHAR
STARTCHAR char1337
ENCODING 1337
SWIDTH 7680 0
DWIDTH 8 0
BBX 8 16 0 -4
BITMAP
00
00
78
84
84
84
9E
A5
A4
A4
A4
98
00
00
00
00
ENDCHAR
STARTCHAR char1338
ENCODING 1338
SWIDTH 7680 0
DWIDTH 8 0
BBX 8 16 0 -4
BITMAP
00
00
04
04
04
04
7E
85
84
84
84
78
00
00
00
00
ENDCHAR
STARTCHAR char1339
ENCODING 1339
SWIDTH 7680 0
DWIDTH 8 0
BBX 8 16 0 -4
BITMAP
00
00
40
40
40
5E
61
41
41
40
40
40
00
00
00
00
ENDCHAR
STARTCHAR char1340
ENCODING 1340
SWIDTH 7680 0
DWIDTH 8 0
BBX 8 16 0 -4
BITMAP
00
00
40
40
40
40
40
40
40
40
40
7E
01
02
00
00
ENDCHAR
STARTCHAR char1341
ENCODING 1341
SWIDTH 7680 0
DWIDTH 8 0
BBX 8 16 0 -4
BITMAP
00
00
80
80
80
F1
91
91
91
91
91
8E
00
00
00
00
ENDCHAR
STARTCHAR char1342
ENCODING 1342
SWIDTH 7680 0
DWIDTH 8 0
BBX 8 16 0 -4
BITMAP
00
80
C6
39
44
82
82
82
82
82
44
38
00
00
00
00
ENDCHAR
STARTCHAR char1343
ENCODING 1343
SWIDTH 7680 0
DWIDTH 8 0
BBX 8 16 0 -4
BITMAP
00
00
40
40
41
41
41
43
3D
01
01
01
00
00
00
00
ENDCHAR
STARTCHAR char1344
ENCODING 1344
SWIDTH 7680 0
DWIDTH 8 0
BBX 8 16 0 -4
BITMAP
00
00
08
10
18
08
10
20
40
60
18
06
00
00
00
00
ENDCHAR
STARTCHAR char1345
ENCODING 1345
SWIDTH 7680 0
DWIDTH 8 0
BBX 8 16 0 -4
BITMAP
00
00
1C
22
41
41
41
01
01
3E
42
3D
00
00
00
00
ENDCHAR
STARTCHAR char1346
ENCODING 1346
SWIDTH 7680 0
DWIDTH 8 0
BBX 8 16 0 -4
BITMAP
00
00
78
84
84
84
04
04
04
04
04
06
01
00
00
00
ENDCHAR
STARTCHAR char1347
ENCODING 1347
SWIDTH 7680 0
DWIDTH 8 0
BBX 8 16 0 -4
BITMAP
00
00
06
C9
30
10
28
44
44
82
82
FE
00
00
00
00
ENDCHAR
STARTCHAR char1348
ENCODING 1348
SWIDTH 7680 0
DWIDTH 8 0
BBX 8 16 0 -4
BITMAP
00
00
86
85
85
84
84
84
84
84
84
78
00
00
00
00
ENDCHAR
STARTCHAR char1349
ENCODING 1349
SWIDTH 7680 0
DWIDTH 8 0
BBX 8 16 0 -4
BITMAP
00
00
1C
22
02
3C
42
01
01
41
42
3C
00
00
00
00
ENDCHAR
STARTCHAR char1350
ENCODING 1350
SWIDTH 7680 0
DWIDTH 8 0
BBX 8 16 0 -4
BITMAP
00
00
E0
20
20
20
20
20
21
21
21
1E
00
00
00
00
ENDCHAR
STARTCHAR char1351
ENCODING 1351
SWIDTH 7680 0
DWIDTH 8 0
BBX 8 16 0 -4
BITMAP
00
00
60
18
26
40
40
40
41
41
22
1C
00
00
00
00
ENDCHAR
STARTCHAR char1352
ENCODING 1352
SWIDTH 7680 0
DWIDTH 8 0
BBX 8 16 0 -4
BITMAP
00
00
1C
22
41
41
41
41
41
41
41
41
00
00
00
00
ENDCHAR
STARTCHAR char1353
ENCODING 1353
SWIDTH 7680 0
DWIDTH 8 0
BBX 8 16 0 -4
BITMAP
00
00
1C
22
41
41
01
01
02
64
18
07
00
00
00
00
ENDCHAR
STARTCHAR char1354
ENCODING 1354
SWIDTH 7680 0
DWIDTH 8 0
BBX 8 16 0 -4
BITMAP
00
00
3E
49
49
49
09
09
01
01
01
01
00
00
00
00
ENDCHAR
STARTCHAR char1355
ENCODING 1355
SWIDTH 7680 0
DWIDTH 8 0
BBX 8 16 0 -4
BITMAP
00
00
3C
42
41
21
11
0A
0C
48
7C
23
00
00
00
00
ENDCHAR
STARTCHAR char1356
ENCODING 1356
SWIDTH 7680 0
DWIDTH 8 0
BBX 8 16 0 -4
BITMAP
00
00
78
84
84
84
86
85
85
84
84
84
00
00
00
00
ENDCHAR
STARTCHAR char1357
ENCODING 1357
SWIDTH 7680 0
DWIDTH 8 0
BBX 8 16 0 -4
BITMAP
00
00
41
41
41
41
41
41
41
41
22
1C
00
00
00
00
ENDCHAR
STARTCHAR char1358
ENCODING 1358
SWIDTH 7680 0
DWIDTH 8 0
BBX 8 16 0 -4
BITMAP
00
00
04
04
84
84
84
84
7C
04
04
06
01
01
00
00
ENDCHAR
STARTCHAR char1359
ENCODING 1359
SWIDTH 7680 0
DWIDTH 8 0
BBX 8 16 0 -4
BITMAP
00
00
3E
41
40
40
3E
01
01
01
41
3E
00
00
00
00
ENDCHAR
STARTCHAR char1360
ENCODING 1360
SWIDTH 7680 0
DWIDTH 8 0
BBX 8 16 0 -4
BITMAP
00
00
1C
22
41
41
40
40
40
40
40
40
00
00
00
00
ENDCHAR
STARTCHAR char1361
ENCODING 1361
SWIDTH 7680 0
DWIDTH 8 0
BBX 8 16 0 -4
BITMAP
00
00
1C
22
22
1C
62
01
01
41
41
3E
00
00
00
00
ENDCHAR
STARTCHAR char1362
ENCODING 1362
SWIDTH 7680 0
DWIDTH 8 0
BBX 8 16 0 -4
BITMAP
00
00
20
20
20
3C
22
20
20
20
20
20
00
00
00
00
ENDCHAR
STARTCHAR char1363
ENCODING 1363
SWIDTH 7680 0
DWIDTH 8 0
BBX 8 16 0 -4
BITMAP
00
00
08
1C
2A
49
49
49
49
2A
1C
08
00
00
00
00
ENDCHAR
STARTCHAR char1364
ENCODING 1364
SWIDTH 7680 0
DWIDTH 8 0
BBX 8 16 0 -4
BITMAP
00
00
1E
21
21
21
21
21
3E
A0
7C
22
00
00
00
00
ENDCHAR
STARTCHAR char1365
ENCODING 1365
SWIDTH 7680 0
DWIDTH 8 0
BBX 8 16 0 -4
BITMAP
00
00
3C
42
81
81
81
81
81
81
42
3C
00
00
00
00
ENDCHAR
STARTCHAR char1366
ENCODING 1366
SWIDTH 7680 0
DWIDTH 8 0
BBX 8 16 0 -4
BITMAP
00
00
38
48
48
48
3E
09
09
49
49
3E
00
00
00
00
ENDCHAR
STARTCHAR char1369
ENCODING 1369
SWIDTH 7680 0
DWIDTH 8 0
BBX 8 16 0 -4
BITMAP
08
10
10
08
00
00
00
00
00
00
00
00
00
00
00
00
ENDCHAR
STARTCHAR char1370
ENCODING 1370
SWIDTH 7680 0
DWIDTH 8 0
BBX 8 16 0 -4
BITMAP
00
00
18
18
08
10
00
00
00
00
00
00
00
00
00
00
ENDCHAR
STARTCHAR char1371
ENCODING 1371
SWIDTH 7680 0
DWIDTH 8 0
BBX 8 16 0 -4
BITMAP
00
00
04
08
10
00
00
00
00
00
00
00
00
00
00
00
ENDCHAR
STARTCHAR char1372
ENCODING 1372
SWIDTH 7680 0
DWIDTH 8 0
BBX 8 16 0 -4
BITMAP
00
00
04
18
20
00
00
00
00
00
00
00
00
00
00
00
ENDCHAR
STARTCHAR char1373
ENCODING 1373
SWIDTH 7680 0
DWIDTH 8 0
BBX 8 16 0 -4
BITMAP
00
00
10
10
08
00
00
00
00
00
00
00
00
00
00
00
ENDCHAR
STARTCHAR char1374
ENCODING 1374
SWIDTH 7680 0
DWIDTH 8 0
BBX 8 16 0 -4
BITMAP
00
00
1C
22
2A
24
00
00
00
00
00
00
00
00
00
00
ENDCHAR
STARTCHAR char1375
ENCODING 1375
SWIDTH 7680 0
DWIDTH 8 0
BBX 8 16 0 -4
BITMAP
00
00
30
22
1C
00
00
00
00
00
00
00
00
00
00
00
ENDCHAR
STARTCHAR char1377
ENCODING 1377
SWIDTH 7680 0
DWIDTH 8 0
BBX 8 16 0 -4
BITMAP
00
00
00
00
00
49
49
49
49
49
49
37
00
00
00
00
ENDCHAR
STARTCHAR char1378
ENCODING 1378
SWIDTH 7680 0
DWIDTH 8 0
BBX 8 16 0 -4
BITMAP
00
00
00
00
00
3C
42
42
42
42
40
7E
40
40
40
00
ENDCHAR
STARTCHAR char1379
ENCODING 1379
SWIDTH 7680 0
DWIDTH 8 0
BBX 8 16 0 -4
BITMAP
00
00
00
00
00
34
4C
44
44
44
44
3F
04
04
04
00
ENDCHAR
STARTCHAR char1380
ENCODING 1380
SWIDTH 7680 0
DWIDTH 8 0
BBX 8 16 0 -4
BITMAP
00
00
00
00
00
58
64
44
44
44
44
47
04
04
04
00
ENDCHAR
STARTCHAR char1381
ENCODING 1381
SWIDTH 7680 0
DWIDTH 8 0
BBX 8 16 0 -4
BITMAP
00
00
40
40
40
7E
40
42
42
42
42
3D
00
00
00
00
ENDCHAR
STARTCHAR char1382
ENCODING 1382
SWIDTH 7680 0
DWIDTH 8 0
BBX 8 16 0 -4
BITMAP
00
00
00
00
00
34
4C
44
44
44
4C
34
04
04
07
00
ENDCHAR
STARTCHAR char1383
ENCODING 1383
SWIDTH 7680 0
DWIDTH 8 0
BBX 8 16 0 -4
BITMAP
00
00
40
40
40
7C
40
40
40
40
40
3E
01
02
00
00
ENDCHAR
STARTCHAR char1384
ENCODING 1384
SWIDTH 7680 0
DWIDTH 8 0
BBX 8 16 0 -4
BITMAP
00
00
00
00
00
5C
62
42
42
42
42
42
40
40
7E
00
ENDCHAR
STARTCHAR char1385
ENCODING 1385
SWIDTH 7680 0
DWIDTH 8 0
BBX 8 16 0 -4
BITMAP
00
00
00
00
00
5C
62
42
4F
52
52
4C
40
40
40
00
ENDCHAR
STARTCHAR char1386
ENCODING 1386
SWIDTH 7680 0
DWIDTH 8 0
BBX 8 16 0 -4
BITMAP
00
00
04
04
04
3F
44
44
44
44
44
38
00
00
00
00
ENDCHAR
STARTCHAR char1387
ENCODING 1387
SWIDTH 7680 0
DWIDTH 8 0
BBX 8 16 0 -4
BITMAP
00
00
40
40
40
5C
62
42
42
42
42
42
40
40
40
00
ENDCHAR
STARTCHAR char1388
ENCODING 1388
SWIDTH 7680 0
DWIDTH 8 0
BBX 8 16 0 -4
BITMAP
00
00
00
00
00
30
10
10
10
10
10
10
10
10
0E
00
ENDCHAR
STARTCHAR char1389
ENCODING 1389
SWIDTH 7680 0
DWIDTH 8 0
BBX 8 16 0 -4
BITMAP
00
00
80
80
80
80
E2
92
92
92
92
8D
80
80
80
00
ENDCHAR
STARTCHAR char1390
ENCODING 1390
SWIDTH 7680 0
DWIDTH 8 0
BBX 8 16 0 -4
BITMAP
00
00
40
20
10
1F
24
42
42
42
42
3C
00
00
00
00
ENDCHAR
STARTCHAR char1391
ENCODING 1391
SWIDTH 7680 0
DWIDTH 8 0
BBX 8 16 0 -4
BITMAP
00
00
40
40
40
40
42
42
42
42
46
3A
02
02
02
00
ENDCHAR
STARTCHAR char1392
ENCODING 1392
SWIDTH 7680 0
DWIDTH 8 0
BBX 8 16 0 -4
BITMAP
00
00
40
40
40
5C
62
42
42
42
42
42
00
00
00
00
ENDCHAR
STARTCHAR char1393
ENCODING 1393
SWIDTH 7680 0
DWIDTH 8 0
BBX 8 16 0 -4
BITMAP
00
00
08
10
08
3C
42
42
42
42
46
3A
00
00
00
00
ENDCHAR
STARTCHAR char1394
ENCODING 1394
SWIDTH 7680 0
DWIDTH 8 0
BBX 8 16 0 -4
BITMAP
00
00
00
00
00
5C
62
42
42
42
42
42
02
02
03
00
ENDCHAR
STARTCHAR char1395
ENCODING 1395
SWIDTH 7680 0
DWIDTH 8 0
BBX 8 16 0 -4
BITMAP
00
00
1C
22
20
7C
22
22
22
22
22
3D
00
00
00
00
ENDCHAR
STARTCHAR char1396
ENCODING 1396
SWIDTH 7680 0
DWIDTH 8 0
BBX 8 16 0 -4
BITMAP
00
00
06
09
08
44
44
44
44
44
44
3A
00
00
00
00
ENDCHAR
STARTCHAR char1397
ENCODING 1397
SWIDTH 7680 0
DWIDTH 8 0
BBX 8 16 0 -4
BITMAP
00
00
00
00
00
0C
04
04
04
04
04
04
04
04
38
00
ENDCHAR
STARTCHAR char1398
ENCODING 1398
SWIDTH 7680 0
DWIDTH 8 0
BBX 8 16 0 -4
BITMAP
00
00
30
40
40
22
22
22
22
22
22
1D
00
00
00
00
ENDCHAR
STARTCHAR char1399
ENCODING 1399
SWIDTH 7680 0
DWIDTH 8 0
BBX 8 16 0 -4
BITMAP
00
00
00
00
3C
42
02
02
04
08
10
20
40
40
3E
00
ENDCHAR
STARTCHAR char1400
ENCODING 1400
SWIDTH 7680 0
DWIDTH 8 0
BBX 8 16 0 -4
BITMAP
00
00
00
00
00
5C
62
42
42
42
42
42
00
00
00
00
ENDCHAR
STARTCHAR char1401
ENCODING 1401
SWIDTH 7680 0
DWIDTH 8 0
BBX 8 16 0 -4
BITMAP
00
00
00
00
08
10
10
08
04
08
10
20
40
40
3F
00
ENDCHAR
STARTCHAR char1402
ENCODING 1402
SWIDTH 7680 0
DWIDTH 8 0
BBX 8 16 0 -4
BITMAP
00
00
00
00
00
49
49
49
49
49
49
37
01
01
01
00
ENDCHAR
STARTCHAR char1403
ENCODING 1403
SWIDTH 7680 0
DWIDTH 8 0
BBX 8 16 0 -4
BITMAP
00
00
00
00
3C
42
42
42
22
14
08
10
20
20
1F
00
ENDCHAR
STARTCHAR char1404
ENCODING 1404
SWIDTH 7680 0
DWIDTH 8 0
BBX 8 16 0 -4
BITMAP
00
00
00
00
00
5E
61
41
41
42
44
4E
00
00
00
00
ENDCHAR
STARTCHAR char1405
ENCODING 1405
SWIDTH 7680 0
DWIDTH 8 0
BBX 8 16 0 -4
BITMAP
00
00
00
00
00
42
42
42
42
42
46
3A
00
00
00
00
ENDCHAR
STARTCHAR char1406
ENCODING 1406
SWIDTH 7680 0
DWIDTH 8 0
BBX 8 16 0 -4
BITMAP
00
00
02
02
02
02
42
42
42
42
46
3A
02
02
03
00
ENDCHAR
STARTCHAR char1407
ENCODING 1407
SWIDTH 7680 0
DWIDTH 8 0
BBX 8 16 0 -4
BITMAP
00
00
00
00
00
4A
4D
49
49
49
59
29
08
08
08
00
ENDCHAR
STARTCHAR char1408
ENCODING 1408
SWIDTH 7680 0
DWIDTH 8 0
BBX 8 16 0 -4
BITMAP
00
00
00
00
00
5C
62
42
42
42
42
42
40
40
40
00
ENDCHAR
STARTCHAR char1409
ENCODING 1409
SWIDTH 7680 0
DWIDTH 8 0
BBX 8 16 0 -4
BITMAP
00
00
00
00
00
3C
42
42
42
42
3E
02
42
42
3C
00
ENDCHAR
STARTCHAR char1410
ENCODING 1410
SWIDTH 7680 0
DWIDTH 8 0
BBX 8 16 0 -4
BITMAP
00
00
00
00
00
30
10
10
10
10
10
0E
00
00
00
00
ENDCHAR
STARTCHAR char1411
ENCODING 1411
SWIDTH 7680 0
DWIDTH 8 0
BBX 8 16 0 -4
BITMAP
00
00
08
08
08
4A
4D
49
49
49
59
29
08
08
08
00
ENDCHAR
STARTCHAR char1412
ENCODING 1412
SWIDTH 7680 0
DWIDTH 8 0
BBX 8 16 0 -4
BITMAP
00
00
0E
11
11
10
10
7C
10
10
10
10
00
00
00
00
ENDCHAR
STARTCHAR char1413
ENCODING 1413
SWIDTH 7680 0
DWIDTH 8 0
BBX 8 16 0 -4
BITMAP
00
00
00
00
00
3E
41
41
41
41
41
3E
00
00
00
00
ENDCHAR
STARTCHAR char1414
ENCODING 1414
SWIDTH 7680 0
DWIDTH 8 0
BBX 8 16 0 -4
BITMAP
00
00
38
48
48
3E
09
49
49
49
49
3E
08
08
08
00
ENDCHAR
STARTCHAR char1415
ENCODING 1415
SWIDTH 7680 0
DWIDTH 8 0
BBX 8 16 0 -4
BITMAP
00
00
40
40
40
44
44
44
44
44
44
3B
00
00
00
00
ENDCHAR
STARTCHAR char1417
ENCODING 1417
SWIDTH 7680 0
DWIDTH 8 0
BBX 8 16 0 -4
BITMAP
00
00
00
00
10
38
10
00
10
38
10
00
00
00
00
00
ENDCHAR
STARTCHAR char1418
ENCODING 1418
SWIDTH 7680 0
DWIDTH 8 0
BBX 8 16 0 -4
BITMAP
00
00
00
00
00
30
22
1C
00
00
00
00
00
00
00
00
ENDCHAR
STARTCHAR char1456
ENCODING 1456
SWIDTH 7680 0
DWIDTH 8 0
BBX 8 16 0 -4
BITMAP
00
00
00
00
00
00
00
00
00
00
00
00
18
00
18
00
ENDCHAR
STARTCHAR char1457
ENCODING 1457
SWIDTH 7680 0
DWIDTH 8 0
BBX 8 16 0 -4
BITMAP
00
00
00
00
00
00
00
00
00
00
00
00
DB
00
63
00
ENDCHAR
STARTCHAR char1458
ENCODING 1458
SWIDTH 7680 0
DWIDTH 8 0
BBX 8 16 0 -4
BITMAP
00
00
00
00
00
00
00
00
00
00
00
00
FB
00
03
00
ENDCHAR
STARTCHAR char1459
ENCODING 1459
SWIDTH 7680 0
DWIDTH 8 0
BBX 8 16 0 -4
BITMAP
00
00
00
00
00
00
00
00
00
00
00
00
FB
20
23
00
ENDCHAR
STARTCHAR char1460
ENCODING 1460
SWIDTH 7680 0
DWIDTH 8 0
BBX 8 16 0 -4
BITMAP
00
00
00
00
00
00
00
00
00
00
00
00
00
18
00
00
ENDCHAR
STARTCHAR char1461
ENCODING 1461
SWIDTH 7680 0
DWIDTH 8 0
BBX 8 16 0 -4
BITMAP
00
00
00
00
00
00
00
00
00
00
00
00
00
66
00
00
ENDCHAR
STARTCHAR char1462
ENCODING 1462
SWIDTH 7680 0
DWIDTH 8 0
BBX 8 16 0 -4
BITMAP
00
00
00
00
00
00
00
00
00
00
00
00
66
00
18
00
ENDCHAR
STARTCHAR char1463
ENCODING 1463
SWIDTH 7680 0
DWIDTH 8 0
BBX 8 16 0 -4
BITMAP
00
00
00
00
00
00
00
00
00
00
00
00
00
7C
00
00
ENDCHAR
STARTCHAR char1464
ENCODING 1464
SWIDTH 7680 0
DWIDTH 8 0
BBX 8 16 0 -4
BITMAP
00
00
00
00
00
00
00
00
00
00
00
00
00
7C
10
00
ENDCHAR
STARTCHAR char1465
ENCODING 1465
SWIDTH 7680 0
DWIDTH 8 0
BBX 8 16 0 -4
BITMAP
00
00
30
00
00
00
00
00
00
00
00
00
00
00
00
00
ENDCHAR
STARTCHAR char1467
ENCODING 1467
SWIDTH 7680 0
DWIDTH 8 0
BBX 8 16 0 -4
BITMAP
00
00
00
00
00
00
00
00
00
00
00
00
C0
18
03
00
ENDCHAR
STARTCHAR char1468
ENCODING 1468
SWIDTH 7680 0
DWIDTH 8 0
BBX 8 16 0 -4
BITMAP
00
00
00
00
00
00
00
00
18
00
00
00
00
00
00
00
ENDCHAR
STARTCHAR char1469
ENCODING 1469
SWIDTH 7680 0
DWIDTH 8 0
BBX 8 16 0 -4
BITMAP
00
00
00
00
00
00
00
00
00
00
00
00
40
40
40
00
ENDCHAR
STARTCHAR char1470
ENCODING 1470
SWIDTH 7680 0
DWIDTH 8 0
BBX 8 16 0 -4
BITMAP
00
3F
7E
00
00
00
00
00
00
00
00
00
00
00
00
00
ENDCHAR
STARTCHAR char1471
ENCODING 1471
SWIDTH 7680 0
DWIDTH 8 0
BBX 8 16 0 -4
BITMAP
00
00
3E
00
00
00
00
00
00
00
00
00
00
00
00
00
ENDCHAR
STARTCHAR char1472
ENCODING 1472
SWIDTH 7680 0
DWIDTH 8 0
BBX 8 16 0 -4
BITMAP
00
00
00
20
20
20
20
20
20
20
20
20
00
00
00
00
ENDCHAR
STARTCHAR char1473
ENCODING 1473
SWIDTH 7680 0
DWIDTH 8 0
BBX 8 16 0 -4
BITMAP
00
00
06
00
00
00
00
00
00
00
00
00
00
00
00
00
ENDCHAR
STARTCHAR char1474
ENCODING 1474
SWIDTH 7680 0
DWIDTH 8 0
BBX 8 16 0 -4
BITMAP
00
00
C0
00
00
00
00
00
00
00
00
00
00
00
00
00
ENDCHAR
STARTCHAR char1475
ENCODING 1475
SWIDTH 7680 0
DWIDTH 8 0
BBX 8 16 0 -4
BITMAP
00
00
00
00
00
10
38
10
00
10
38
10
00
00
00
00
ENDCHAR
STARTCHAR char1476
ENCODING 1476
SWIDTH 7680 0
DWIDTH 8 0
BBX 8 16 0 -4
BITMAP
00
00
18
00
00
00
00
00
00
00
00
00
00
00
00
00
ENDCHAR
STARTCHAR char1488
ENCODING 1488
SWIDTH 7680 0
DWIDTH 8 0
BBX 8 16 0 -4
BITMAP
00
00
00
84
C7
63
32
DA
8E
46
63
E1
00
00
00
00
ENDCHAR
STARTCHAR char1489
ENCODING 1489
SWIDTH 7680 0
DWIDTH 8 0
BBX 8 16 0 -4
BITMAP
00
00
00
00
80
FC
7E
02
02
02
7F
FE
00
00
00
00
ENDCHAR
STARTCHAR char1490
ENCODING 1490
SWIDTH 7680 0
DWIDTH 8 0
BBX 8 16 0 -4
BITMAP
00
00
00
00
20
38
1C
04
04
04
1E
3A
00
00
00
00
ENDCHAR
STARTCHAR char1491
ENCODING 1491
SWIDTH 7680 0
DWIDTH 8 0
BBX 8 16 0 -4
BITMAP
00
00
00
00
80
FF
7F
02
02
02
02
02
00
00
00
00
ENDCHAR
STARTCHAR char1492
ENCODING 1492
SWIDTH 7680 0
DWIDTH 8 0
BBX 8 16 0 -4
BITMAP
00
00
00
00
80
FF
7F
02
42
42
42
82
00
00
00
00
ENDCHAR
STARTCHAR char1493
ENCODING 1493
SWIDTH 7680 0
DWIDTH 8 0
BBX 8 16 0 -4
BITMAP
00
00
00
00
20
38
1C
04
04
04
04
04
00
00
00
00
ENDCHAR
STARTCHAR char1494
ENCODING 1494
SWIDTH 7680 0
DWIDTH 8 0
BBX 8 16 0 -4
BITMAP
00
00
00
00
20
3C
1E
08
08
08
08
08
00
00
00
00
ENDCHAR
STARTCHAR char1495
ENCODING 1495
SWIDTH 7680 0
DWIDTH 8 0
BBX 8 16 0 -4
BITMAP
00
00
00
00
80
FF
7F
42
42
42
42
82
00
00
00
00
ENDCHAR
STARTCHAR char1496
ENCODING 1496
SWIDTH 7680 0
DWIDTH 8 0
BBX 8 16 0 -4
BITMAP
00
00
00
00
80
E3
77
45
41
41
7F
7E
00
00
00
00
ENDCHAR
STARTCHAR char1497
ENCODING 1497
SWIDTH 7680 0
DWIDTH 8 0
BBX 8 16 0 -4
BITMAP
00
00
00
00
20
38
1C
04
04
00
00
00
00
00
00
00
ENDCHAR
STARTCHAR char1498
ENCODING 1498
SWIDTH 7680 0
DWIDTH 8 0
BBX 8 16 0 -4
BITMAP
00
00
00
00
80
FE
7F
02
04
04
04
04
04
04
04
00
ENDCHAR
STARTCHAR char1499
ENCODING 1499
SWIDTH 7680 0
DWIDTH 8 0
BBX 8 16 0 -4
BITMAP
00
00
00
00
80
FE
7F
01
01
01
7E
FC
00
00
00
00
ENDCHAR
STARTCHAR char1500
ENCODING 1500
SWIDTH 7680 0
DWIDTH 8 0
BBX 8 16 0 -4
BITMAP
00
00
80
40
40
7F
3F
01
01
02
04
18
00
00
00
00
ENDCHAR
STARTCHAR char1501
ENCODING 1501
SWIDTH 7680 0
DWIDTH 8 0
BBX 8 16 0 -4
BITMAP
00
00
00
00
80
FE
7F
81
81
81
FF
FF
00
00
00
00
ENDCHAR
STARTCHAR char1502
ENCODING 1502
SWIDTH 7680 0
DWIDTH 8 0
BBX 8 16 0 -4
BITMAP
00
00
00
00
80
DE
7F
41
81
81
9F
BE
00
00
00
00
ENDCHAR
STARTCHAR char1503
ENCODING 1503
SWIDTH 7680 0
DWIDTH 8 0
BBX 8 16 0 -4
BITMAP
00
00
00
20
38
1C
04
08
08
08
08
08
08
08
08
00
ENDCHAR
STARTCHAR char1504
ENCODING 1504
SWIDTH 7680 0
DWIDTH 8 0
BBX 8 16 0 -4
BITMAP
00
00
00
00
20
38
1C
04
04
04
1C
3C
00
00
00
00
ENDCHAR
STARTCHAR char1505
ENCODING 1505
SWIDTH 7680 0
DWIDTH 8 0
BBX 8 16 0 -4
BITMAP
00
00
00
00
80
FE
7F
41
41
41
7E
3C
00
00
00
00
ENDCHAR
STARTCHAR char1506
ENCODING 1506
SWIDTH 7680 0
DWIDTH 8 0
BBX 8 16 0 -4
BITMAP
00
00
00
00
84
E7
73
41
21
11
7E
FC
00
00
00
00
ENDCHAR
STARTCHAR char1507
ENCODING 1507
SWIDTH 7680 0
DWIDTH 8 0
BBX 8 16 0 -4
BITMAP
00
00
00
00
80
FE
7F
82
C4
C4
04
04
04
04
04
00
ENDCHAR
STARTCHAR char1508
ENCODING 1508
SWIDTH 7680 0
DWIDTH 8 0
BBX 8 16 0 -4
BITMAP
00
00
00
00
80
FF
7F
41
61
01
7E
FC
00
00
00
00
ENDCHAR
STARTCHAR char1509
ENCODING 1509
SWIDTH 7680 0
DWIDTH 8 0
BBX 8 16 0 -4
BITMAP
00
00
00
00
84
E7
63
24
28
30
20
20
20
20
20
00
ENDCHAR
STARTCHAR char1510
ENCODING 1510
SWIDTH 7680 0
DWIDTH 8 0
BBX 8 16 0 -4
BITMAP
00
00
00
00
84
E7
63
24
18
06
7F
FE
00
00
00
00
ENDCHAR
STARTCHAR char1511
ENCODING 1511
SWIDTH 7680 0
DWIDTH 8 0
BBX 8 16 0 -4
BITMAP
00
00
00
00
80
FE
7F
01
21
21
26
28
20
20
20
00
ENDCHAR
STARTCHAR char1512
ENCODING 1512
SWIDTH 7680 0
DWIDTH 8 0
BBX 8 16 0 -4
BITMAP
00
00
00
00
80
FE
7F
01
01
01
01
01
00
00
00
00
ENDCHAR
STARTCHAR char1513
ENCODING 1513
SWIDTH 7680 0
DWIDTH 8 0
BBX 8 16 0 -4
BITMAP
00
00
00
00
92
DB
49
89
91
A2
FE
7C
00
00
00
00
ENDCHAR
STARTCHAR char1514
ENCODING 1514
SWIDTH 7680 0
DWIDTH 8 0
BBX 8 16 0 -4
BITMAP
00
00
00
00
80
FE
7F
21
41
41
61
E1
00
00
00
00
ENDCHAR
STARTCHAR char1520
ENCODING 1520
SWIDTH 7680 0
DWIDTH 8 0
BBX 8 16 0 -4
BITMAP
00
00
00
00
44
66
33
11
11
11
11
11
00
00
00
00
ENDCHAR
STARTCHAR char1521
ENCODING 1521
SWIDTH 7680 0
DWIDTH 8 0
BBX 8 16 0 -4
BITMAP
00
00
00
00
44
66
33
11
01
01
01
01
00
00
00
00
ENDCHAR
STARTCHAR char1522
ENCODING 1522
SWIDTH 7680 0
DWIDTH 8 0
BBX 8 16 0 -4
BITMAP
00
00
00
00
44
66
33
11
00
00
00
00
00
00
00
00
ENDCHAR
STARTCHAR char1523
ENCODING 1523
SWIDTH 7680 0
DWIDTH 8 0
BBX 8 16 0 -4
BITMAP
00
00
06
0C
00
00
00
00
00
00
00
00
00
00
00
00
ENDCHAR
STARTCHAR char1524
ENCODING 1524
SWIDTH 7680 0
DWIDTH 8 0
BBX 8 16 0 -4
BITMAP
00
00
33
66
00
00
00
00
00
00
00
00
00
00
00
00
ENDCHAR
STARTCHAR char1548
ENCODING 1548
SWIDTH 7680 0
DWIDTH 8 0
BBX 8 16 0 -4
BITMAP
00
00
18
30
30
30
30
3C
1C
1C
00
00
00
00
00
00
ENDCHAR
STARTCHAR char1563
ENCODING 1563
SWIDTH 7680 0
DWIDTH 8 0
BBX 8 16 0 -4
BITMAP
00
00
00
00
06
0E
0C
0C
00
0C
0C
00
00
00
00
00
ENDCHAR
STARTCHAR char1567
ENCODING 1567
SWIDTH 7680 0
DWIDTH 8 0
BBX 8 16 0 -4
BITMAP
1E
30
60
40
40
60
38
08
08
00
0C
0C
00
00
00
00
ENDCHAR
STARTCHAR char1569
ENCODING 1569
SWIDTH 7680 0
DWIDTH 8 0
BBX 8 16 0 -4
BITMAP
00
00
1C
30
1C
30
00
00
00
00
00
00
00
00
00
00
ENDCHAR
STARTCHAR char1570
ENCODING 1570
SWIDTH 7680 0
DWIDTH 8 0
BBX 8 16 0 -4
BITMAP
3B
6E
10
10
10
10
10
10
10
10
00
00
00
00
00
00
ENDCHAR
STARTCHAR char1571
ENCODING 1571
SWIDTH 7680 0
DWIDTH 8 0
BBX 8 16 0 -4
BITMAP
1C
30
1C
30
08
08
08
08
08
08
00
00
00
00
00
00
ENDCHAR
STARTCHAR char1572
ENCODING 1572
SWIDTH 7680 0
DWIDTH 8 0
BBX 8 16 0 -4
BITMAP
1C
30
1C
30
00
1E
33
21
31
1F
01
03
06
0C
F8
00
ENDCHAR
STARTCHAR char1573
ENCODING 1573
SWIDTH 7680 0
DWIDTH 8 0
BBX 8 16 0 -4
BITMAP
08
08
08
08
08
08
08
08
08
08
00
1C
30
1C
30
00
ENDCHAR
STARTCHAR char1574
ENCODING 1574
SWIDTH 7680 0
DWIDTH 8 0
BBX 8 16 0 -4
BITMAP
00
00
38
60
38
60
1F
90
10
18
8E
83
C3
7E
00
00
ENDCHAR
STARTCHAR char1575
ENCODING 1575
SWIDTH 7680 0
DWIDTH 8 0
BBX 8 16 0 -4
BITMAP
08
08
08
08
08
08
08
08
08
08
00
00
00
00
00
00
ENDCHAR
STARTCHAR char1576
ENCODING 1576
SWIDTH 7680 0
DWIDTH 8 0
BBX 8 16 0 -4
BITMAP
00
00
00
00
00
00
40
C0
C1
FF
00
08
1C
08
00
00
ENDCHAR
STARTCHAR char1577
ENCODING 1577
SWIDTH 7680 0
DWIDTH 8 0
BBX 8 16 0 -4
BITMAP
24
7E
24
00
18
3C
66
42
66
3C
00
00
00
00
00
00
ENDCHAR
STARTCHAR char1578
ENCODING 1578
SWIDTH 7680 0
DWIDTH 8 0
BBX 8 16 0 -4
BITMAP
00
00
00
12
3F
12
40
C0
C1
FF
00
00
00
00
00
00
ENDCHAR
STARTCHAR char1579
ENCODING 1579
SWIDTH 7680 0
DWIDTH 8 0
BBX 8 16 0 -4
BITMAP
00
04
0E
12
3F
12
40
C0
C1
FF
00
00
00
00
00
00
ENDCHAR
STARTCHAR char1580
ENCODING 1580
SWIDTH 7680 0
DWIDTH 8 0
BBX 8 16 0 -4
BITMAP
00
00
00
00
00
00
79
5F
30
64
CE
84
C0
70
1F
00
ENDCHAR
STARTCHAR char1581
ENCODING 1581
SWIDTH 7680 0
DWIDTH 8 0
BBX 8 16 0 -4
BITMAP
00
00
00
00
00
00
79
5F
30
60
C0
C0
C0
70
1F
00
ENDCHAR
STARTCHAR char1582
ENCODING 1582
SWIDTH 7680 0
DWIDTH 8 0
BBX 8 16 0 -4
BITMAP
00
00
08
1C
08
00
79
5F
30
60
C0
C0
C0
70
1F
00
ENDCHAR
STARTCHAR char1583
ENCODING 1583
SWIDTH 7680 0
DWIDTH 8 0
BBX 8 16 0 -4
BITMAP
00
00
00
18
0C
06
02
06
3C
00
00
00
00
00
00
00
ENDCHAR
STARTCHAR char1584
ENCODING 1584
SWIDTH 7680 0
DWIDTH 8 0
BBX 8 16 0 -4
BITMAP
10
38
10
04
0C
06
02
06
3C
00
00
00
00
00
00
00
ENDCHAR
STARTCHAR char1585
ENCODING 1585
SWIDTH 7680 0
DWIDTH 8 0
BBX 8 16 0 -4
BITMAP
00
00
00
00
00
00
00
02
02
02
02
06
0C
38
E0
00
ENDCHAR
STARTCHAR char1586
ENCODING 1586
SWIDTH 7680 0
DWIDTH 8 0
BBX 8 16 0 -4
BITMAP
00
00
00
00
04
0E
04
00
02
02
02
06
0C
38
E0
00
ENDCHAR
STARTCHAR char1587
ENCODING 1587
SWIDTH 7680 0
DWIDTH 8 0
BBX 8 16 0 -4
BITMAP
00
00
00
00
00
00
00
0A
8A
8F
88
88
D8
70
00
00
ENDCHAR
STARTCHAR char1588
ENCODING 1588
SWIDTH 7680 0
DWIDTH 8 0
BBX 8 16 0 -4
BITMAP
02
07
02
05
0F
85
00
0A
8A
8F
88
88
D8
70
00
00
ENDCHAR
STARTCHAR char1589
ENCODING 1589
SWIDTH 7680 0
DWIDTH 8 0
BBX 8 16 0 -4
BITMAP
00
00
00
00
00
00
03
96
9C
9F
88
88
D8
70
00
00
ENDCHAR
STARTCHAR char1590
ENCODING 1590
SWIDTH 7680 0
DWIDTH 8 0
BBX 8 16 0 -4
BITMAP
00
00
01
03
81
00
03
96
9C
9F
88
88
D8
70
00
00
ENDCHAR
STARTCHAR char1591
ENCODING 1591
SWIDTH 7680 0
DWIDTH 8 0
BBX 8 16 0 -4
BITMAP
20
20
20
20
20
2E
3B
31
E3
7E
00
00
00
00
00
00
ENDCHAR
STARTCHAR char1592
ENCODING 1592
SWIDTH 7680 0
DWIDTH 8 0
BBX 8 16 0 -4
BITMAP
20
24
2E
24
20
2E
3B
31
E3
7E
00
00
00
00
00
00
ENDCHAR
STARTCHAR char1593
ENCODING 1593
SWIDTH 7680 0
DWIDTH 8 0
BBX 8 16 0 -4
BITMAP
00
00
00
00
00
38
20
34
1E
38
20
20
20
30
1F
00
ENDCHAR
STARTCHAR char1594
ENCODING 1594
SWIDTH 7680 0
DWIDTH 8 0
BBX 8 16 0 -4
BITMAP
00
10
38
10
00
70
40
68
3C
70
40
40
40
60
3E
00
ENDCHAR
STARTCHAR char1600
ENCODING 1600
SWIDTH 7680 0
DWIDTH 8 0
BBX 8 16 0 -4
BITMAP
00
00
00
00
00
00
00
00
00
FF
80
00
00
00
00
00
ENDCHAR
STARTCHAR char1601
ENCODING 1601
SWIDTH 7680 0
DWIDTH 8 0
BBX 8 16 0 -4
BITMAP
00
02
07
02
00
03
04
84
C3
FF
00
00
00
00
00
00
ENDCHAR
STARTCHAR char1602
ENCODING 1602
SWIDTH 7680 0
DWIDTH 8 0
BBX 8 16 0 -4
BITMAP
00
0A
1F
0A
00
0E
1B
11
99
8F
81
81
C3
7E
00
00
ENDCHAR
STARTCHAR char1603
ENCODING 1603
SWIDTH 7680 0
DWIDTH 8 0
BBX 8 16 0 -4
BITMAP
01
01
31
61
31
61
01
01
83
FE
00
00
00
00
00
00
ENDCHAR
STARTCHAR char1604
ENCODING 1604
SWIDTH 7680 0
DWIDTH 8 0
BBX 8 16 0 -4
BITMAP
00
01
01
01
01
01
01
01
01
81
83
C2
7E
00
00
00
ENDCHAR
STARTCHAR char1605
ENCODING 1605
SWIDTH 7680 0
DWIDTH 8 0
BBX 8 16 0 -4
BITMAP
00
00
00
00
00
1C
24
24
1C
78
40
40
40
40
40
00
ENDCHAR
STARTCHAR char1606
ENCODING 1606
SWIDTH 7680 0
DWIDTH 8 0
BBX 8 16 0 -4
BITMAP
00
00
00
08
1C
08
00
42
C2
81
81
81
C3
7E
00
00
ENDCHAR
STARTCHAR char1607
ENCODING 1607
SWIDTH 7680 0
DWIDTH 8 0
BBX 8 16 0 -4
BITMAP
00
00
00
00
18
3C
66
42
66
3C
00
00
00
00
00
00
ENDCHAR
STARTCHAR char1608
ENCODING 1608
SWIDTH 7680 0
DWIDTH 8 0
BBX 8 16 0 -4
BITMAP
00
00
00
00
00
1E
33
21
31
1F
01
03
06
1C
F8
00
ENDCHAR
STARTCHAR char1609
ENCODING 1609
SWIDTH 7680 0
DWIDTH 8 0
BBX 8 16 0 -4
BITMAP
00
00
00
00
00
00
0F
98
88
8E
C3
7E
00
00
00
00
ENDCHAR
STARTCHAR char1610
ENCODING 1610
SWIDTH 7680 0
DWIDTH 8 0
BBX 8 16 0 -4
BITMAP
00
00
00
00
00
00
0F
98
88
8E
C3
7E
24
7E
24
00
ENDCHAR
STARTCHAR char1611
ENCODING 1611
SWIDTH 7680 0
DWIDTH 8 0
BBX 8 16 0 -4
BITMAP
20
40
A0
40
80
00
00
00
00
00
00
00
00
00
00
00
ENDCHAR
STARTCHAR char1612
ENCODING 1612
SWIDTH 7680 0
DWIDTH 8 0
BBX 8 16 0 -4
BITMAP
38
AC
B8
E0
80
00
00
00
00
00
00
00
00
00
00
00
ENDCHAR
STARTCHAR char1613
ENCODING 1613
SWIDTH 7680 0
DWIDTH 8 0
BBX 8 16 0 -4
BITMAP
00
00
00
00
00
00
00
00
00
00
20
40
A0
40
80
00
ENDCHAR
STARTCHAR char1614
ENCODING 1614
SWIDTH 7680 0
DWIDTH 8 0
BBX 8 16 0 -4
BITMAP
20
40
80
00
00
00
00
00
00
00
00
00
00
00
00
00
ENDCHAR
STARTCHAR char1615
ENCODING 1615
SWIDTH 7680 0
DWIDTH 8 0
BBX 8 16 0 -4
BITMAP
D0
A0
40
80
00
00
00
00
00
00
00
00
00
00
00
00
ENDCHAR
STARTCHAR char1616
ENCODING 1616
SWIDTH 7680 0
DWIDTH 8 0
BBX 8 16 0 -4
BITMAP
00
00
00
00
00
00
00
00
00
00
00
00
20
40
80
00
ENDCHAR
STARTCHAR char1617
ENCODING 1617
SWIDTH 7680 0
DWIDTH 8 0
BBX 8 16 0 -4
BITMAP
08
28
B8
E0
40
00
00
00
00
00
00
00
00
00
00
00
ENDCHAR
STARTCHAR char1618
ENCODING 1618
SWIDTH 7680 0
DWIDTH 8 0
BBX 8 16 0 -4
BITMAP
10
28
28
10
00
00
00
00
00
00
00
00
00
00
00
00
ENDCHAR
STARTCHAR char1620
ENCODING 1620
SWIDTH 7680 0
DWIDTH 8 0
BBX 8 16 0 -4
BITMAP
70
C0
70
C0
00
00
00
00
00
00
00
00
00
00
00
00
ENDCHAR
STARTCHAR char1621
ENCODING 1621
SWIDTH 7680 0
DWIDTH 8 0
BBX 8 16 0 -4
BITMAP
00
00
00
00
00
00
00
00
00
00
00
70
C0
70
C0
00
ENDCHAR
STARTCHAR char1632
ENCODING 1632
SWIDTH 7680 0
DWIDTH 8 0
BBX 8 16 0 -4
BITMAP
00
00
00
00
00
10
38
10
00
00
00
00
00
00
00
00
ENDCHAR
STARTCHAR char1633
ENCODING 1633
SWIDTH 7680 0
DWIDTH 8 0
BBX 8 16 0 -4
BITMAP
00
40
40
40
60
20
20
20
20
20
00
00
00
00
00
00
ENDCHAR
STARTCHAR char1634
ENCODING 1634
SWIDTH 7680 0
DWIDTH 8 0
BBX 8 16 0 -4
BITMAP
00
66
5C
40
60
20
20
20
20
20
00
00
00
00
00
00
ENDCHAR
STARTCHAR char1635
ENCODING 1635
SWIDTH 7680 0
DWIDTH 8 0
BBX 8 16 0 -4
BITMAP
00
49
59
7E
20
20
20
20
20
20
00
00
00
00
00
00
ENDCHAR
STARTCHAR char1636
ENCODING 1636
SWIDTH 7680 0
DWIDTH 8 0
BBX 8 16 0 -4
BITMAP
00
3C
60
40
7C
20
40
40
60
3E
00
00
00
00
00
00
ENDCHAR
STARTCHAR char1637
ENCODING 1637
SWIDTH 7680 0
DWIDTH 8 0
BBX 8 16 0 -4
BITMAP
00
00
1C
36
63
41
41
61
32
1C
00
00
00
00
00
00
ENDCHAR
STARTCHAR char1638
ENCODING 1638
SWIDTH 7680 0
DWIDTH 8 0
BBX 8 16 0 -4
BITMAP
00
00
42
62
3E
03
01
01
01
01
00
00
00
00
00
00
ENDCHAR
STARTCHAR char1639
ENCODING 1639
SWIDTH 7680 0
DWIDTH 8 0
BBX 8 16 0 -4
BITMAP
00
41
41
22
22
22
14
14
08
08
00
00
00
00
00
00
ENDCHAR
STARTCHAR char1640
ENCODING 1640
SWIDTH 7680 0
DWIDTH 8 0
BBX 8 16 0 -4
BITMAP
00
04
04
0C
0A
12
13
21
21
21
00
00
00
00
00
00
ENDCHAR
STARTCHAR char1641
ENCODING 1641
SWIDTH 7680 0
DWIDTH 8 0
BBX 8 16 0 -4
BITMAP
00
1C
32
23
31
1F
01
01
01
01
00
00
00
00
00
00
ENDCHAR
STARTCHAR char1642
ENCODING 1642
SWIDTH 7680 0
DWIDTH 8 0
BBX 8 16 0 -4
BITMAP
00
00
00
E3
A6
EC
18
37
65
C7
00
00
00
00
00
00
ENDCHAR
STARTCHAR char1662
ENCODING 1662
SWIDTH 7680 0
DWIDTH 8 0
BBX 8 16 0 -4
BITMAP
00
00
00
00
00
00
40
C0
C1
FF
00
77
2A
1C
08
00
ENDCHAR
STARTCHAR char1670
ENCODING 1670
SWIDTH 7680 0
DWIDTH 8 0
BBX 8 16 0 -4
BITMAP
00
00
00
00
00
00
79
5F
30
60
DB
8E
C4
70
1F
00
ENDCHAR
STARTCHAR char1678
ENCODING 1678
SWIDTH 7680 0
DWIDTH 8 0
BBX 8 16 0 -4
BITMAP
04
0E
1B
00
0C
06
02
06
3C
00
00
00
00
00
00
00
ENDCHAR
STARTCHAR char1687
ENCODING 1687
SWIDTH 7680 0
DWIDTH 8 0
BBX 8 16 0 -4
BITMAP
00
00
00
00
05
0F
85
00
02
02
02
06
0C
38
E0
00
ENDCHAR
STARTCHAR char1695
ENCODING 1695
SWIDTH 7680 0
DWIDTH 8 0
BBX 8 16 0 -4
BITMAP
20
22
27
2D
A0
2E
3B
31
E3
7E
00
00
00
00
00
00
ENDCHAR
STARTCHAR char1700
ENCODING 1700
SWIDTH 7680 0
DWIDTH 8 0
BBX 8 16 0 -4
BITMAP
00
02
07
0D
80
03
04
84
C3
FF
00
00
00
00
00
00
ENDCHAR
STARTCHAR char1705
ENCODING 1705
SWIDTH 7680 0
DWIDTH 8 0
BBX 8 16 0 -4
BITMAP
03
06
0C
18
30
18
0C
06
83
FE
00
00
00
00
00
00
ENDCHAR
STARTCHAR char1711
ENCODING 1711
SWIDTH 7680 0
DWIDTH 8 0
BBX 8 16 0 -4
BITMAP
18
36
2C
18
30
18
0C
06
83
FE
00
00
00
00
00
00
ENDCHAR
STARTCHAR char3585
ENCODING 3585
SWIDTH 7680 0
DWIDTH 8 0
BBX 8 16 0 -4
BITMAP
00
00
00
00
00
3E
41
61
21
21
21
21
00
00
00
00
ENDCHAR
STARTCHAR char3586
ENCODING 3586
SWIDTH 7680 0
DWIDTH 8 0
BBX 8 16 0 -4
BITMAP
00
00
00
00
00
31
69
59
29
09
09
06
00
00
00
00
ENDCHAR
STARTCHAR char3587
ENCODING 3587
SWIDTH 7680 0
DWIDTH 8 0
BBX 8 16 0 -4
BITMAP
00
00
00
00
00
51
69
49
29
09
09
06
00
00
00
00
ENDCHAR
STARTCHAR char3588
ENCODING 3588
SWIDTH 7680 0
DWIDTH 8 0
BBX 8 16 0 -4
BITMAP
00
00
00
00
00
3E
41
49
55
29
41
41
00
00
00
00
ENDCHAR
STARTCHAR char3589
ENCODING 3589
SWIDTH 7680 0
DWIDTH 8 0
BBX 8 16 0 -4
BITMAP
00
00
00
00
00
36
49
49
55
29
41
41
00
00
00
00
ENDCHAR
STARTCHAR char3590
ENCODING 3590
SWIDTH 7680 0
DWIDTH 8 0
BBX 8 16 0 -4
BITMAP
00
00
00
00
00
51
71
51
11
39
55
22
00
00
00
00
ENDCHAR
STARTCHAR char3591
ENCODING 3591
SWIDTH 7680 0
DWIDTH 8 0
BBX 8 16 0 -4
BITMAP
00
00
00
00
00
02
05
03
21
11
09
06
00
00
00
00
ENDCHAR
STARTCHAR char3592
ENCODING 3592
SWIDTH 7680 0
DWIDTH 8 0
BBX 8 16 0 -4
BITMAP
00
00
00
00
00
3E
41
09
15
0D
05
02
00
00
00
00
ENDCHAR
STARTCHAR char3593
ENCODING 3593
SWIDTH 7680 0
DWIDTH 8 0
BBX 8 16 0 -4
BITMAP
00
00
00
00
00
3C
42
22
52
33
16
89
00
00
00
00
ENDCHAR
STARTCHAR char3594
ENCODING 3594
SWIDTH 7680 0
DWIDTH 8 0
BBX 8 16 0 -4
BITMAP
00
00
00
00
01
31
6A
59
29
09
09
06
00
00
00
00
ENDCHAR
STARTCHAR char3595
ENCODING 3595
SWIDTH 7680 0
DWIDTH 8 0
BBX 8 16 0 -4
BITMAP
00
00
00
00
01
51
6A
49
29
09
09
06
00
00
00
00
ENDCHAR
STARTCHAR char3596
ENCODING 3596
SWIDTH 7680 0
DWIDTH 8 0
BBX 8 16 0 -4
BITMAP
00
00
00
00
00
39
45
25
45
45
6F
6D
00
00
00
00
ENDCHAR
STARTCHAR char3597
ENCODING 3597
SWIDTH 7680 0
DWIDTH 8 0
BBX 8 16 0 -4
BITMAP
00
00
00
00
00
31
49
29
49
49
69
66
00
07
00
00
ENDCHAR
STARTCHAR char3598
ENCODING 3598
SWIDTH 7680 0
DWIDTH 8 0
BBX 8 16 0 -4
BITMAP
00
00
00
00
00
3E
41
61
21
61
A1
49
3D
4B
30
00
ENDCHAR
STARTCHAR char3599
ENCODING 3599
SWIDTH 7680 0
DWIDTH 8 0
BBX 8 16 0 -4
BITMAP
00
00
00
00
00
3E
41
61
21
61
A1
51
35
5B
20
00
ENDCHAR
STARTCHAR char3600
ENCODING 3600
SWIDTH 7680 0
DWIDTH 8 0
BBX 8 16 0 -4
BITMAP
00
00
00
00
00
3D
42
7E
09
15
0D
02
33
55
2B
00
ENDCHAR
STARTCHAR char3601
ENCODING 3601
SWIDTH 7680 0
DWIDTH 8 0
BBX 8 16 0 -4
BITMAP
00
00
00
00
00
A6
E9
A9
31
31
21
21
00
00
00
00
ENDCHAR
STARTCHAR char3602
ENCODING 3602
SWIDTH 7680 0
DWIDTH 8 0
BBX 8 16 0 -4
BITMAP
00
00
00
00
00
29
55
45
75
55
6F
4D
00
00
00
00
ENDCHAR
STARTCHAR char3603
ENCODING 3603
SWIDTH 7680 0
DWIDTH 8 0
BBX 8 16 0 -4
BITMAP
00
00
00
00
00
32
4A
2A
4A
4B
6E
E9
00
00
00
00
ENDCHAR
STARTCHAR char3604
ENCODING 3604
SWIDTH 7680 0
DWIDTH 8 0
BBX 8 16 0 -4
BITMAP
00
00
00
00
00
3E
41
49
55
49
51
21
00
00
00
00
ENDCHAR
STARTCHAR char3605
ENCODING 3605
SWIDTH 7680 0
DWIDTH 8 0
BBX 8 16 0 -4
BITMAP
00
00
00
00
00
36
49
49
55
49
51
21
00
00
00
00
ENDCHAR
STARTCHAR char3606
ENCODING 3606
SWIDTH 7680 0
DWIDTH 8 0
BBX 8 16 0 -4
BITMAP
00
00
00
00
00
3E
41
61
21
31
29
11
00
00
00
00
ENDCHAR
STARTCHAR char3607
ENCODING 3607
SWIDTH 7680 0
DWIDTH 8 0
BBX 8 16 0 -4
BITMAP
00
00
00
00
00
46
A9
69
31
31
21
21
00
00
00
00
ENDCHAR
STARTCHAR char3608
ENCODING 3608
SWIDTH 7680 0
DWIDTH 8 0
BBX 8 16 0 -4
BITMAP
00
00
00
00
00
3D
42
7E
21
21
21
1E
00
00
00
00
ENDCHAR
STARTCHAR char3609
ENCODING 3609
SWIDTH 7680 0
DWIDTH 8 0
BBX 8 16 0 -4
BITMAP
00
00
00
00
00
42
A2
62
22
27
2A
B1
00
00
00
00
ENDCHAR
STARTCHAR char3610
ENCODING 3610
SWIDTH 7680 0
DWIDTH 8 0
BBX 8 16 0 -4
BITMAP
00
00
00
00
00
41
A1
61
21
21
21
1E
00
00
00
00
ENDCHAR
STARTCHAR char3611
ENCODING 3611
SWIDTH 7680 0
DWIDTH 8 0
BBX 8 16 0 -4
BITMAP
00
00
00
01
01
41
A1
61
21
21
21
1E
00
00
00
00
ENDCHAR
STARTCHAR char3612
ENCODING 3612
SWIDTH 7680 0
DWIDTH 8 0
BBX 8 16 0 -4
BITMAP
00
00
00
00
00
21
51
61
41
49
49
36
00
00
00
00
ENDCHAR
STARTCHAR char3613
ENCODING 3613
SWIDTH 7680 0
DWIDTH 8 0
BBX 8 16 0 -4
BITMAP
00
00
00
01
01
21
51
61
41
49
49
36
00
00
00
00
ENDCHAR
STARTCHAR char3614
ENCODING 3614
SWIDTH 7680 0
DWIDTH 8 0
BBX 8 16 0 -4
BITMAP
00
00
00
00
00
41
A1
6D
2D
33
33
21
00
00
00
00
ENDCHAR
STARTCHAR char3615
ENCODING 3615
SWIDTH 7680 0
DWIDTH 8 0
BBX 8 16 0 -4
BITMAP
00
00
00
01
01
41
A1
6D
2D
33
33
21
00
00
00
00
ENDCHAR
STARTCHAR char3616
ENCODING 3616
SWIDTH 7680 0
DWIDTH 8 0
BBX 8 16 0 -4
BITMAP
00
00
00
00
00
3E
41
61
21
61
A1
41
00
00
00
00
ENDCHAR
STARTCHAR char3617
ENCODING 3617
SWIDTH 7680 0
DWIDTH 8 0
BBX 8 16 0 -4
BITMAP
00
00
00
00
00
21
51
31
11
39
55
22
00
00
00
00
ENDCHAR
STARTCHAR char3618
ENCODING 3618
SWIDTH 7680 0
DWIDTH 8 0
BBX 8 16 0 -4
BITMAP
00
00
00
00
00
21
51
61
31
41
41
3E
00
00
00
00
ENDCHAR
STARTCHAR char3619
ENCODING 3619
SWIDTH 7680 0
DWIDTH 8 0
BBX 8 16 0 -4
BITMAP
00
00
00
00
00
3D
42
7C
02
06
0A
04
00
00
00
00
ENDCHAR
STARTCHAR char3620
ENCODING 3620
SWIDTH 7680 0
DWIDTH 8 0
BBX 8 16 0 -4
BITMAP
00
00
00
00
00
3E
41
61
21
31
29
11
01
01
00
00
ENDCHAR
STARTCHAR char3621
ENCODING 3621
SWIDTH 7680 0
DWIDTH 8 0
BBX 8 16 0 -4
BITMAP
00
00
00
00
00
3E
41
39
45
63
51
21
00
00
00
00
ENDCHAR
STARTCHAR char3622
ENCODING 3622
SWIDTH 7680 0
DWIDTH 8 0
BBX 8 16 0 -4
BITMAP
00
00
00
00
00
3E
41
61
21
61
A1
41
01
01
00
00
ENDCHAR
STARTCHAR char3623
ENCODING 3623
SWIDTH 7680 0
DWIDTH 8 0
BBX 8 16 0 -4
BITMAP
00
00
00
00
00
3E
41
01
01
03
05
02
00
00
00
00
ENDCHAR
STARTCHAR char3624
ENCODING 3624
SWIDTH 7680 0
DWIDTH 8 0
BBX 8 16 0 -4
BITMAP
00
00
00
00
01
3E
41
49
55
29
41
41
00
00
00
00
ENDCHAR
STARTCHAR char3625
ENCODING 3625
SWIDTH 7680 0
DWIDTH 8 0
BBX 8 16 0 -4
BITMAP
00
00
00
00
00
41
A5
6B
A7
21
21
1E
00
00
00
00
ENDCHAR
STARTCHAR char3626
ENCODING 3626
SWIDTH 7680 0
DWIDTH 8 0
BBX 8 16 0 -4
BITMAP
00
00
00
00
01
3E
41
39
45
63
51
21
00
00
00
00
ENDCHAR
STARTCHAR char3627
ENCODING 3627
SWIDTH 7680 0
DWIDTH 8 0
BBX 8 16 0 -4
BITMAP
00
00
00
00
00
42
A5
62
25
29
31
21
00
00
00
00
ENDCHAR
STARTCHAR char3628
ENCODING 3628
SWIDTH 7680 0
DWIDTH 8 0
BBX 8 16 0 -4
BITMAP
00
00
00
00
01
46
A1
6D
2D
33
33
21
00
00
00
00
ENDCHAR
STARTCHAR char3629
ENCODING 3629
SWIDTH 7680 0
DWIDTH 8 0
BBX 8 16 0 -4
BITMAP
00
00
00
00
00
3E
41
21
51
61
41
3E
00
00
00
00
ENDCHAR
STARTCHAR char3630
ENCODING 3630
SWIDTH 7680 0
DWIDTH 8 0
BBX 8 16 0 -4
BITMAP
00
00
00
00
01
3F
43
3D
21
51
61
3E
00
00
00
00
ENDCHAR
STARTCHAR char3631
ENCODING 3631
SWIDTH 7680 0
DWIDTH 8 0
BBX 8 16 0 -4
BITMAP
00
00
00
00
00
23
55
39
01
01
01
01
00
00
00
00
ENDCHAR
STARTCHAR char3632
ENCODING 3632
SWIDTH 7680 0
DWIDTH 8 0
BBX 8 16 0 -4
BITMAP
00
00
00
00
00
21
52
3C
00
21
52
3C
00
00
00
00
ENDCHAR
STARTCHAR char3633
ENCODING 3633
SWIDTH 7680 0
DWIDTH 8 0
BBX 8 16 0 -4
BITMAP
00
00
30
BF
00
00
00
00
00
00
00
00
00
00
00
00
ENDCHAR
STARTCHAR char3634
ENCODING 3634
SWIDTH 7680 0
DWIDTH 8 0
BBX 8 16 0 -4
BITMAP
00
00
00
00
00
3E
41
01
01
01
01
01
00
00
00
00
ENDCHAR
STARTCHAR char3635
ENCODING 3635
SWIDTH 7680 0
DWIDTH 8 0
BBX 8 16 0 -4
BITMAP
00
00
00
40
A0
4E
11
01
01
01
01
01
00
00
00
00
ENDCHAR
STARTCHAR char3636
ENCODING 3636
SWIDTH 7680 0
DWIDTH 8 0
BBX 8 16 0 -4
BITMAP
00
00
00
7F
00
00
00
00
00
00
00
00
00
00
00
00
ENDCHAR
STARTCHAR char3637
ENCODING 3637
SWIDTH 7680 0
DWIDTH 8 0
BBX 8 16 0 -4
BITMAP
00
00
01
7F
00
00
00
00
00
00
00
00
00
00
00
00
ENDCHAR
STARTCHAR char3638
ENCODING 3638
SWIDTH 7680 0
DWIDTH 8 0
BBX 8 16 0 -4
BITMAP
00
00
03
7F
00
00
00
00
00
00
00
00
00
00
00
00
ENDCHAR
STARTCHAR char3639
ENCODING 3639
SWIDTH 7680 0
DWIDTH 8 0
BBX 8 16 0 -4
BITMAP
00
00
05
7F
00
00
00
00
00
00
00
00
00
00
00
00
ENDCHAR
STARTCHAR char3640
ENCODING 3640
SWIDTH 7680 0
DWIDTH 8 0
BBX 8 16 0 -4
BITMAP
00
00
00
00
00
00
00
00
00
00
00
00
03
03
01
00
ENDCHAR
STARTCHAR char3641
ENCODING 3641
SWIDTH 7680 0
DWIDTH 8 0
BBX 8 16 0 -4
BITMAP
00
00
00
00
00
00
00
00
00
00
00
00
0D
0D
07
00
ENDCHAR
STARTCHAR char3642
ENCODING 3642
SWIDTH 7680 0
DWIDTH 8 0
BBX 8 16 0 -4
BITMAP
00
00
00
00
00
00
00
00
00
00
00
00
00
03
03
00
ENDCHAR
STARTCHAR char3647
ENCODING 3647
SWIDTH 7680 0
DWIDTH 8 0
BBX 8 16 0 -4
BITMAP
00
00
08
7E
29
29
3E
29
29
29
7E
08
00
00
00
00
ENDCHAR
STARTCHAR char3648
ENCODING 3648
SWIDTH 7680 0
DWIDTH 8 0
BBX 8 16 0 -4
BITMAP
00
00
00
00
00
10
10
10
10
18
14
08
00
00
00
00
ENDCHAR
STARTCHAR char3649
ENCODING 3649
SWIDTH 7680 0
DWIDTH 8 0
BBX 8 16 0 -4
BITMAP
00
00
00
00
00
44
44
44
44
66
55
22
00
00
00
00
ENDCHAR
STARTCHAR char3650
ENCODING 3650
SWIDTH 7680 0
DWIDTH 8 0
BBX 8 16 0 -4
BITMAP
00
00
00
3D
42
7C
04
04
04
06
05
02
00
00
00
00
ENDCHAR
STARTCHAR char3651
ENCODING 3651
SWIDTH 7680 0
DWIDTH 8 0
BBX 8 16 0 -4
BITMAP
00
00
38
64
54
24
04
04
04
06
05
02
00
00
00
00
ENDCHAR
STARTCHAR char3652
ENCODING 3652
SWIDTH 7680 0
DWIDTH 8 0
BBX 8 16 0 -4
BITMAP
00
00
00
8C
54
24
04
04
04
06
05
02
00
00
00
00
ENDCHAR
STARTCHAR char3653
ENCODING 3653
SWIDTH 7680 0
DWIDTH 8 0
BBX 8 16 0 -4
BITMAP
00
00
00
00
00
3E
41
01
01
01
01
01
01
01
00
00
ENDCHAR
STARTCHAR char3654
ENCODING 3654
SWIDTH 7680 0
DWIDTH 8 0
BBX 8 16 0 -4
BITMAP
00
00
00
00
00
36
49
61
51
21
01
01
01
01
02
00
ENDCHAR
STARTCHAR char3655
ENCODING 3655
SWIDTH 7680 0
DWIDTH 8 0
BBX 8 16 0 -4
BITMAP
01
3E
49
36
00
00
00
00
00
00
00
00
00
00
00
00
ENDCHAR
STARTCHAR char3656
ENCODING 3656
SWIDTH 7680 0
DWIDTH 8 0
BBX 8 16 0 -4
BITMAP
02
02
00
00
00
00
00
00
00
00
00
00
00
00
00
00
ENDCHAR
STARTCHAR char3657
ENCODING 3657
SWIDTH 7680 0
DWIDTH 8 0
BBX 8 16 0 -4
BITMAP
11
3E
00
00
00
00
00
00
00
00
00
00
00
00
00
00
ENDCHAR
STARTCHAR char3658
ENCODING 3658
SWIDTH 7680 0
DWIDTH 8 0
BBX 8 16 0 -4
BITMAP
6D
56
00
00
00
00
00
00
00
00
00
00
00
00
00
00
ENDCHAR
STARTCHAR char3659
ENCODING 3659
SWIDTH 7680 0
DWIDTH 8 0
BBX 8 16 0 -4
BITMAP
04
0E
04
00
00
00
00
00
00
00
00
00
00
00
00
00
ENDCHAR
STARTCHAR char3660
ENCODING 3660
SWIDTH 7680 0
DWIDTH 8 0
BBX 8 16 0 -4
BITMAP
3F
30
00
00
00
00
00
00
00
00
00
00
00
00
00
00
ENDCHAR
STARTCHAR char3661
ENCODING 3661
SWIDTH 7680 0
DWIDTH 8 0
BBX 8 16 0 -4
BITMAP
00
00
0C
0C
00
00
00
00
00
00
00
00
00
00
00
00
ENDCHAR
STARTCHAR char3662
ENCODING 3662
SWIDTH 7680 0
DWIDTH 8 0
BBX 8 16 0 -4
BITMAP
07
0C
10
0C
00
00
00
00
00
00
00
00
00
00
00
00
ENDCHAR
STARTCHAR char3663
ENCODING 3663
SWIDTH 7680 0
DWIDTH 8 0
BBX 8 16 0 -4
BITMAP
00
00
00
00
00
1C
22
49
55
49
22
1C
00
00
00
00
ENDCHAR
STARTCHAR char3664
ENCODING 3664
SWIDTH 7680 0
DWIDTH 8 0
BBX 8 16 0 -4
BITMAP
00
00
00
00
00
1C
22
41
41
41
22
1C
00
00
00
00
ENDCHAR
STARTCHAR char3665
ENCODING 3665
SWIDTH 7680 0
DWIDTH 8 0
BBX 8 16 0 -4
BITMAP
00
00
00
00
00
1C
22
51
69
31
02
1C
00
00
00
00
ENDCHAR
STARTCHAR char3666
ENCODING 3666
SWIDTH 7680 0
DWIDTH 8 0
BBX 8 16 0 -4
BITMAP
00
00
00
00
80
4A
55
59
55
49
41
3E
00
00
00
00
ENDCHAR
STARTCHAR char3667
ENCODING 3667
SWIDTH 7680 0
DWIDTH 8 0
BBX 8 16 0 -4
BITMAP
00
00
00
00
00
36
49
49
49
61
51
21
00
00
00
00
ENDCHAR
STARTCHAR char3668
ENCODING 3668
SWIDTH 7680 0
DWIDTH 8 0
BBX 8 16 0 -4
BITMAP
00
00
00
00
00
9F
20
44
4A
4C
26
1F
00
00
00
00
ENDCHAR
STARTCHAR char3669
ENCODING 3669
SWIDTH 7680 0
DWIDTH 8 0
BBX 8 16 0 -4
BITMAP
00
00
00
04
0A
9F
20
44
4A
4C
26
1F
00
00
00
00
ENDCHAR
STARTCHAR char3670
ENCODING 3670
SWIDTH 7680 0
DWIDTH 8 0
BBX 8 16 0 -4
BITMAP
00
00
00
00
80
5C
22
01
01
11
2A
1C
00
00
00
00
ENDCHAR
STARTCHAR char3671
ENCODING 3671
SWIDTH 7680 0
DWIDTH 8 0
BBX 8 16 0 -4
BITMAP
00
00
00
00
81
69
95
95
95
C5
A5
46
00
00
00
00
ENDCHAR
STARTCHAR char3672
ENCODING 3672
SWIDTH 7680 0
DWIDTH 8 0
BBX 8 16 0 -4
BITMAP
00
00
00
00
00
9F
20
42
45
43
39
16
00
00
00
00
ENDCHAR
STARTCHAR char3673
ENCODING 3673
SWIDTH 7680 0
DWIDTH 8 0
BBX 8 16 0 -4
BITMAP
00
00
00
00
00
82
B5
4C
44
54
2A
12
00
00
00
00
ENDCHAR
STARTCHAR char3674
ENCODING 3674
SWIDTH 7680 0
DWIDTH 8 0
BBX 8 16 0 -4
BITMAP
00
00
00
00
00
6A
75
05
05
05
05
0A
00
00
00
00
ENDCHAR
STARTCHAR char3675
ENCODING 3675
SWIDTH 7680 0
DWIDTH 8 0
BBX 8 16 0 -4
BITMAP
00
00
00
00
00
00
20
50
55
D6
48
30
00
00
00
00
ENDCHAR
STARTCHAR char3713
ENCODING 3713
SWIDTH 7680 0
DWIDTH 8 0
BBX 8 16 0 -4
BITMAP
00
00
00
00
00
46
A9
71
21
61
A1
61
00
00
00
00
ENDCHAR
STARTCHAR char3714
ENCODING 3714
SWIDTH 7680 0
DWIDTH 8 0
BBX 8 16 0 -4
BITMAP
00
00
00
00
1C
62
A1
42
0C
70
8E
71
00
00
00
00
ENDCHAR
STARTCHAR char3716
ENCODING 3716
SWIDTH 7680 0
DWIDTH 8 0
BBX 8 16 0 -4
BITMAP
00
00
00
00
00
3E
41
21
19
21
51
31
00
00
00
00
ENDCHAR
STARTCHAR char3719
ENCODING 3719
SWIDTH 7680 0
DWIDTH 8 0
BBX 8 16 0 -4
BITMAP
00
00
00
00
00
1C
22
32
02
02
22
1C
00
00
00
00
ENDCHAR
STARTCHAR char3720
ENCODING 3720
SWIDTH 7680 0
DWIDTH 8 0
BBX 8 16 0 -4
BITMAP
00
00
00
00
00
1E
21
41
0D
03
01
02
00
00
00
00
ENDCHAR
STARTCHAR char3722
ENCODING 3722
SWIDTH 7680 0
DWIDTH 8 0
BBX 8 16 0 -4
BITMAP
00
00
00
00
00
7E
A1
41
06
78
87
79
01
01
01
00
ENDCHAR
STARTCHAR char3725
ENCODING 3725
SWIDTH 7680 0
DWIDTH 8 0
BBX 8 16 0 -4
BITMAP
00
00
00
00
00
21
51
61
51
21
41
3E
00
00
00
00
ENDCHAR
STARTCHAR char3732
ENCODING 3732
SWIDTH 7680 0
DWIDTH 8 0
BBX 8 16 0 -4
BITMAP
00
00
00
00
00
3E
41
41
41
61
51
21
00
00
00
00
ENDCHAR
STARTCHAR char3733
ENCODING 3733
SWIDTH 7680 0
DWIDTH 8 0
BBX 8 16 0 -4
BITMAP
00
00
00
00
00
36
49
49
41
61
51
21
00
00
00
00
ENDCHAR
STARTCHAR char3734
ENCODING 3734
SWIDTH 7680 0
DWIDTH 8 0
BBX 8 16 0 -4
BITMAP
00
00
00
00
00
44
AA
51
41
61
51
21
01
01
00
80
ENDCHAR
STARTCHAR char3735
ENCODING 3735
SWIDTH 7680 0
DWIDTH 8 0
BBX 8 16 0 -4
BITMAP
00
00
00
00
00
46
A9
69
29
49
49
31
00
00
00
00
ENDCHAR
STARTCHAR char3737
ENCODING 3737
SWIDTH 7680 0
DWIDTH 8 0
BBX 8 16 0 -4
BITMAP
00
00
00
00
00
41
A1
61
21
61
B1
6E
00
00
00
00
ENDCHAR
STARTCHAR char3738
ENCODING 3738
SWIDTH 7680 0
DWIDTH 8 0
BBX 8 16 0 -4
BITMAP
00
00
00
00
00
41
A1
61
21
41
41
3E
00
00
00
00
ENDCHAR
STARTCHAR char3739
ENCODING 3739
SWIDTH 7680 0
DWIDTH 8 0
BBX 8 16 0 -4
BITMAP
00
00
00
01
01
41
A1
61
21
41
22
1C
00
00
00
00
ENDCHAR
STARTCHAR char3740
ENCODING 3740
SWIDTH 7680 0
DWIDTH 8 0
BBX 8 16 0 -4
BITMAP
00
00
00
00
00
45
AA
C6
82
92
92
6C
00
00
00
00
ENDCHAR
STARTCHAR char3741
ENCODING 3741
SWIDTH 7680 0
DWIDTH 8 0
BBX 8 16 0 -4
BITMAP
00
00
00
01
01
21
51
61
41
49
49
36
00
00
00
00
ENDCHAR
STARTCHAR char3742
ENCODING 3742
SWIDTH 7680 0
DWIDTH 8 0
BBX 8 16 0 -4
BITMAP
00
00
00
00
00
41
A1
61
21
49
49
36
00
00
00
00
ENDCHAR
STARTCHAR char3743
ENCODING 3743
SWIDTH 7680 0
DWIDTH 8 0
BBX 8 16 0 -4
BITMAP
00
00
00
00
81
41
A1
61
21
49
49
36
00
00
00
00
ENDCHAR
STARTCHAR char3745
ENCODING 3745
SWIDTH 7680 0
DWIDTH 8 0
BBX 8 16 0 -4
BITMAP
00
00
00
00
00
21
21
21
21
71
A9
46
00
00
00
00
ENDCHAR
STARTCHAR char3746
ENCODING 3746
SWIDTH 7680 0
DWIDTH 8 0
BBX 8 16 0 -4
BITMAP
00
00
00
01
01
21
51
21
21
41
22
1C
00
00
00
00
ENDCHAR
STARTCHAR char3747
ENCODING 3747
SWIDTH 7680 0
DWIDTH 8 0
BBX 8 16 0 -4
BITMAP
00
00
00
00
00
7E
81
78
06
61
91
7E
00
00
00
00
ENDCHAR
STARTCHAR char3749
ENCODING 3749
SWIDTH 7680 0
DWIDTH 8 0
BBX 8 16 0 -4
BITMAP
00
00
00
00
00
7C
82
01
01
71
A9
46
00
00
00
00
ENDCHAR
STARTCHAR char3751
ENCODING 3751
SWIDTH 7680 0
DWIDTH 8 0
BBX 8 16 0 -4
BITMAP
00
00
00
00
00
3C
42
02
02
22
52
3C
00
00
00
00
ENDCHAR
STARTCHAR char3754
ENCODING 3754
SWIDTH 7680 0
DWIDTH 8 0
BBX 8 16 0 -4
BITMAP
00
00
00
00
B9
47
45
39
01
31
59
26
00
00
00
00
ENDCHAR
STARTCHAR char3755
ENCODING 3755
SWIDTH 7680 0
DWIDTH 8 0
BBX 8 16 0 -4
BITMAP
00
00
00
00
00
44
AA
AD
69
49
49
31
00
00
00
00
ENDCHAR
STARTCHAR char3757
ENCODING 3757
SWIDTH 7680 0
DWIDTH 8 0
BBX 8 16 0 -4
BITMAP
00
00
00
00
00
3E
41
3F
01
21
51
3E
00
00
00
00
ENDCHAR
STARTCHAR char3758
ENCODING 3758
SWIDTH 7680 0
DWIDTH 8 0
BBX 8 16 0 -4
BITMAP
00
00
00
00
03
3C
40
3C
02
61
52
3C
00
00
00
00
ENDCHAR
STARTCHAR char3759
ENCODING 3759
SWIDTH 7680 0
DWIDTH 8 0
BBX 8 16 0 -4
BITMAP
00
00
00
20
50
A3
85
89
71
02
24
18
00
00
00
00
ENDCHAR
STARTCHAR char3760
ENCODING 3760
SWIDTH 7680 0
DWIDTH 8 0
BBX 8 16 0 -4
BITMAP
00
00
00
00
00
21
51
3E
00
21
51
3E
00
00
00
00
ENDCHAR
STARTCHAR char3761
ENCODING 3761
SWIDTH 7680 0
DWIDTH 8 0
BBX 8 16 0 -4
BITMAP
00
20
D1
3E
00
00
00
00
00
00
00
00
00
00
00
00
ENDCHAR
STARTCHAR char3762
ENCODING 3762
SWIDTH 7680 0
DWIDTH 8 0
BBX 8 16 0 -4
BITMAP
00
00
00
00
00
38
54
24
04
04
04
04
00
00
00
00
ENDCHAR
STARTCHAR char3763
ENCODING 3763
SWIDTH 7680 0
DWIDTH 8 0
BBX 8 16 0 -4
BITMAP
00
00
00
40
A0
4C
16
0A
02
02
02
02
00
00
00
00
ENDCHAR
STARTCHAR char3764
ENCODING 3764
SWIDTH 7680 0
DWIDTH 8 0
BBX 8 16 0 -4
BITMAP
3E
41
41
22
00
00
00
00
00
00
00
00
00
00
00
00
ENDCHAR
STARTCHAR char3765
ENCODING 3765
SWIDTH 7680 0
DWIDTH 8 0
BBX 8 16 0 -4
BITMAP
3C
42
42
27
80
00
00
00
00
00
00
00
00
00
00
00
ENDCHAR
STARTCHAR char3766
ENCODING 3766
SWIDTH 7680 0
DWIDTH 8 0
BBX 8 16 0 -4
BITMAP
3E
41
49
22
00
00
00
00
00
00
00
00
00
00
00
00
ENDCHAR
STARTCHAR char3767
ENCODING 3767
SWIDTH 7680 0
DWIDTH 8 0
BBX 8 16 0 -4
BITMAP
7C
82
92
47
80
00
00
00
00
00
00
00
00
00
00
00
ENDCHAR
ENDFONT
